SplineFontDB: 3.0
FontName: PfennigBoldItalic
FullName: Pfennig Bold Italic
FamilyName: Pfennig
Weight: Bold
Copyright: Copyright 2009, 2010 by Daniel Johnson.  Released under the terms of the SIL Open Font License.
UComments: "2009-7-16: Created." 
Version: 20100423
ItalicAngle: -13
UnderlinePosition: -100
UnderlineWidth: 50
Ascent: 800
Descent: 200
LayerCount: 2
Layer: 0 0 "Back"  1
Layer: 1 0 "Fore"  0
NeedsXUIDChange: 1
XUID: [1021 1003 1579404955 6722392]
FSType: 0
OS2Version: 0
OS2_WeightWidthSlopeOnly: 0
OS2_UseTypoMetrics: 1
CreationTime: 1247766582
ModificationTime: 1272034993
PfmFamily: 33
TTFWeight: 700
TTFWidth: 5
LineGap: 90
VLineGap: 0
OS2TypoAscent: 0
OS2TypoAOffset: 1
OS2TypoDescent: 0
OS2TypoDOffset: 1
OS2TypoLinegap: 90
OS2WinAscent: 0
OS2WinAOffset: 1
OS2WinDescent: 0
OS2WinDOffset: 1
HheadAscent: 0
HheadAOffset: 1
HheadDescent: 0
HheadDOffset: 1
OS2Vendor: 'PfEd'
Lookup: 1 0 0 "'locl' Localized Forms in Sami"  {"'locl' Localized Forms in Sami-1"  } ['locl' ('latn' <'ISM ' > 'latn' <'LSM ' > 'latn' <'NSM ' > 'latn' <'SKS ' > ) ]
Lookup: 4 0 1 "'liga' Standard Ligatures in Latin lookup 0"  {"'liga' Standard Ligatures in Latin lookup 0-1"  } ['liga' ('DFLT' <'dflt' > 'latn' <'dflt' > ) ]
Lookup: 258 0 0 "'kern' Horizontal Kerning lookup 1"  {"'kern' Horizontal Kerning lookup 1-1"  } ['kern' ('DFLT' <'dflt' > 'cyrl' <'dflt' > 'latn' <'dflt' > ) ]
Lookup: 260 0 0 "'mark' Mark Positioning in Latin lookup 0"  {"'mark' Mark Positioning in Latin lookup 0-1"  } ['mark' ('DFLT' <'dflt' > 'latn' <'dflt' > ) ]
MarkAttachClasses: 1
DEI: 91125
KernClass2: 9 9 "'kern' Horizontal Kerning lookup 1-1" 
 109 A L Agrave Aacute Acircumflex Atilde Adieresis Aring Amacron Abreve Aogonek Lacute Lcommaaccent Lcaron Lslash

StartChar: d
Encoding: 100 100 0
Width: 558
VWidth: 0
Flags: W
HStem: -10 50<205.405 308.016 466.755 528.536> 400 50<285.24 377.974>
VStem: 74 116<63.2422 244.044> 532 34<46.9489 64>
AnchorPoint: "top" 359 490 basechar 0
LayerCount: 2
Fore
SplineSet
478 135 m 2
 472 110 466 87 466 70 c 0
 466 52 473 40 494 40 c 0
 511 40 527 54 532 64 c 1
 566 64 l 1
 557 27 512 -10 469 -10 c 0
 423 -10 390 2 369 21 c 1
 328 -1 281 -10 230 -10 c 0
 121 -10 74 65 74 155 c 0
 74 287 176 450 336 450 c 0
 369 450 397 443 421 431 c 1
 474 660 l 1
 599 660 l 1
 478 135 l 2
256 40 m 0
 375 40 388 315 388 328 c 0
 388 370 376 400 339 400 c 0
 206 400 190 118 190 118 c 0
 190 73 206 40 256 40 c 0
EndSplineSet
Validated: 1
EndChar

StartChar: a
Encoding: 97 97 1
Width: 552
VWidth: 0
Flags: W
HStem: -10 50<216.296 342.166 443 521.038> 400 50<308.956 407.577>
VStem: 75 120<66.4938 236.842> 337 128<46.758 182.094> 525 35<47.1311 64>
AnchorPoint: "ogonek" 435 0 basechar 0
AnchorPoint: "top" 392 490 basechar 0
LayerCount: 2
Fore
SplineSet
536 409 m 1
 472 135 l 2
 467 115 465 97 465 81 c 0
 465 56 472 40 487 40 c 0
 503 40 522 52 525 64 c 1
 560 64 l 1
 551 28 505 -10 462 -10 c 0
 424 -10 394 -2 374 12 c 1
 333 -2 272 -10 230 -10 c 0
 142 -10 75 59 75 151 c 0
 75 301 208 450 368 450 c 0
 451 450 497 429 536 409 c 1
408 398 m 1
 397 399 385 400 371 400 c 0
 258 400 195 214 195 124 c 0
 195 58 237 40 256 40 c 0
 279 40 321 43 343 49 c 1
 339 59 337 69 337 80 c 0
 337 88 338 96 340 104 c 2
 408 398 l 1
EndSplineSet
Validated: 1
EndChar

StartChar: h
Encoding: 104 104 2
Width: 475
VWidth: 0
Flags: W
HStem: 0 21G<70 199.648 336 465.583> 400 50<297.771 396.788> 620 50<141.147 246>
VStem: 104 34<596 614.89> 200 127<481.148 618.973> 405 121<202.781 392.471>
AnchorPoint: "top" 394 700 basechar 0
LayerCount: 2
Fore
SplineSet
195 0 m 1
 70 0 l 1
 191 525 l 2
 196 547 200 568 200 584 c 0
 200 606 193 620 175 620 c 0
 159 620 146 613 138 596 c 1
 104 596 l 1
 112 633 158 670 201 670 c 0
 291 670 327 633 327 584 c 0
 327 575 326 566 323 556 c 2
 297 443 l 1
 317 447 336 450 356 450 c 0
 469 450 526 405 526 313 c 0
 526 291 523 267 516 240 c 2
 461 0 l 1
 336 0 l 1
 389 228 l 2
 400 277 405 313 405 338 c 0
 405 386 387 400 359 400 c 0
 333 400 308 394 284 383 c 1
 195 0 l 1
EndSplineSet
Validated: 1
EndChar

StartChar: e
Encoding: 101 101 3
Width: 471
VWidth: 0
Flags: W
HStem: -10 50<214.227 344.412> 220 50<219 385.186> 400 50<280.84 381.426>
VStem: 73 120<69.9665 217.567> 390 114<274.165 372.379>
AnchorPoint: "ogonek" 273 0 basechar 0
AnchorPoint: "top" 358 490 basechar 0
LayerCount: 2
Fore
SplineSet
73 158 m 0
 73 319 216 450 340 450 c 0
 454 450 504 369 504 279 c 0
 504 246 484 220 433 220 c 2
 206 220 l 1
 198 185 193 154 193 128 c 0
 193 72 216 40 280 40 c 0
 331 40 354 63 369 100 c 1
 459 77 l 1
 407 26 336 -10 254 -10 c 0
 144 -10 73 54 73 158 c 0
219 270 m 1
 342 270 l 2
 383 270 390 284 390 339 c 0
 390 376 379 400 343 400 c 0
 280 400 244 351 219 270 c 1
EndSplineSet
Validated: 1
EndChar

StartChar: n
Encoding: 110 110 4
Width: 473
VWidth: 0
Flags: W
HStem: 0 21G<40 169.643 306 435.583> 400 50<60.147 145.5 250.634 367.674>
VStem: 23 34<376 394.89> 119 127<257.297 380.99> 376 120<208.312 392.404>
AnchorPoint: "cedilla" 232 0 basechar 0
AnchorPoint: "top" 349 490 basechar 0
LayerCount: 2
Fore
SplineSet
165 0 m 1
 40 0 l 1
 110 305 l 2
 116 327 119 348 119 364 c 0
 119 386 113 400 94 400 c 0
 78 400 65 393 57 376 c 1
 23 376 l 1
 31 413 77 450 120 450 c 0
 171 450 204 438 224 419 c 1
 244 430 279 450 326 450 c 0
 439 450 496 405 496 313 c 0
 496 291 493 267 486 240 c 2
 431 0 l 1
 306 0 l 1
 359 228 l 2
 370 279 376 316 376 342 c 0
 376 387 359 400 329 400 c 0
 293 400 266 388 245 375 c 1
 246 372 246 368 246 364 c 0
 246 355 245 346 243 336 c 2
 165 0 l 1
EndSplineSet
Validated: 1
EndChar

StartChar: c
Encoding: 99 99 5
Width: 461
VWidth: 0
Flags: W
HStem: -10 50<214.227 340.871> 400 50<286.666 383.758>
VStem: 73 120<69.9665 257.913> 391 107<327.841 381.866>
AnchorPoint: "cedilla" 264 0 basechar 0
AnchorPoint: "top" 359 490 basechar 0
LayerCount: 2
Fore
SplineSet
73 158 m 0
 73 319 216 450 340 450 c 0
 432 450 482 398 498 330 c 1
 391 297 l 1
 388 357 398 400 343 400 c 0
 216 400 193 159 193 128 c 0
 193 72 216 40 280 40 c 0
 331 40 343 63 374 100 c 1
 459 77 l 1
 407 26 336 -10 254 -10 c 0
 144 -10 73 54 73 158 c 0
EndSplineSet
Validated: 1
EndChar

StartChar: b
Encoding: 98 98 6
Width: 522
VWidth: 0
Flags: W
HStem: -10 50<227.997 338.968> 400 50<316.219 414.65> 620 50<141.147 246>
VStem: 103 118<48.8414 207.586> 104 34<596 614.89> 200 127<480.219 618.973> 428 119<189.983 384.164>
AnchorPoint: "top" 397 490 basechar 0
LayerCount: 2
Fore
SplineSet
294 40 m 0xf2
 401 40 428 296 428 325 c 0
 428 368 415 400 377 400 c 0
 298 400 269 322 248 230 c 2
 229 148 l 2
 224 124 221 105 221 91 c 0
 221 49 244 40 294 40 c 0xf2
547 296 m 0
 547 201 492 -10 268 -10 c 0
 183 -10 103 9 103 113 c 0xf2
 103 132 106 155 112 180 c 2
 191 525 l 2
 196 547 200 568 200 584 c 0
 200 606 193 620 175 620 c 0
 159 620 146 613 138 596 c 1
 104 596 l 1
 112 633 158 670 201 670 c 0
 291 670 327 633 327 584 c 0xee
 327 575 326 566 323 556 c 2
 296 438 l 1
 321 446 347 450 374 450 c 0
 500 450 547 385 547 296 c 0
EndSplineSet
Validated: 1
EndChar

StartChar: s
Encoding: 115 115 7
Width: 420
VWidth: 0
Flags: W
HStem: -10 50<141.372 255.391> 399 51<268.339 350.636>
VStem: 123 125<268.081 377.973> 291 126<81.374 189.353>
AnchorPoint: "cedilla" 206 0 basechar 0
AnchorPoint: "top" 303 490 basechar 0
LayerCount: 2
Fore
SplineSet
123 313 m 0
 123 375 185 450 300 450 c 0
 370 450 398 429 446 388 c 1
 363 353 l 1
 352 386 332 399 302 399 c 0
 265 399 248 342 248 313 c 0
 248 286 261 268 281 263 c 0
 365 243 417 204 417 149 c 0
 417 95 367 -10 197 -10 c 0
 120 -10 93 14 43 57 c 1
 115 98 l 1
 133 60 159 40 205 40 c 0
 274 40 291 127 291 144 c 0
 291 184 252 205 226 212 c 0
 165 229 123 262 123 313 c 0
EndSplineSet
Validated: 1
EndChar

StartChar: i
Encoding: 105 105 8
Width: 280
VWidth: 0
Flags: W
HStem: -10 50<148.789 250.536> 420 20G<142.298 271> 520 80<194 280>
VStem: 65 124<40.3643 177.695> 254 34<46.9489 64>
AnchorPoint: "ogonek" 150 1 basechar 0
LayerCount: 2
Fore
SplineSet
194 600 m 1
 299 600 l 1
 280 520 l 1
 175 520 l 1
 194 600 l 1
200 135 m 6
 194 110 189 87 189 70 c 4
 189 52 195 40 216 40 c 4
 233 40 249 54 254 64 c 13
 288 64 l 21
 279 27 234 -10 191 -10 c 4
 108 -10 65 29 65 80 c 4
 65 88 66 96 68 104 c 14
 147 440 l 1
 271 440 l 1
 200 135 l 6
EndSplineSet
Validated: 1
EndChar

StartChar: o
Encoding: 111 111 9
Width: 495
VWidth: 0
Flags: W
HStem: -10 50<208.412 311.045> 400 50<286.186 388.226>
VStem: 72 119<57.2972 248.036> 401 119<185.683 377.509>
AnchorPoint: "bottom" 238 0 basechar 0
AnchorPoint: "horn" 488 310 basechar 0
AnchorPoint: "ogonek" 248 0 basechar 0
AnchorPoint: "top" 360 490 basechar 0
LayerCount: 2
Fore
SplineSet
401 324 m 0
 401 371 385 400 343 400 c 0
 213 400 191 142 191 120 c 0
 191 69 210 40 260 40 c 0
 380 40 401 298 401 324 c 0
520 290 m 0
 520 185 451 -10 234 -10 c 0
 128 -10 72 49 72 147 c 0
 72 321 217 450 340 450 c 0
 448 450 520 397 520 290 c 0
EndSplineSet
Validated: 1
EndChar

StartChar: t
Encoding: 116 116 10
Width: 327
VWidth: 0
Flags: W
HStem: -10 50<193 297.65> 390 50<142 181 318 385>
VStem: 112 126<41.0266 183.625> 301 34<45.2679 64>
AnchorPoint: "cedilla" 187 0 basechar 0
AnchorPoint: "top" 284 660 basechar 0
LayerCount: 2
Fore
SplineSet
247 135 m 2
 242 113 238 92 238 76 c 0
 238 54 245 40 263 40 c 0
 279 40 293 47 301 64 c 1
 335 64 l 1
 326 27 281 -10 238 -10 c 0
 148 -10 112 27 112 76 c 0
 112 85 113 94 115 104 c 2
 181 390 l 1
 115 390 l 1
 142 440 l 1
 193 440 l 1
 226 585 l 1
 355 600 l 1
 318 440 l 1
 397 440 l 1
 385 390 l 1
 306 390 l 1
 247 135 l 2
EndSplineSet
Validated: 1
EndChar

StartChar: m
Encoding: 109 109 11
Width: 763
VWidth: 0
Flags: W
HStem: 0 21G<40 169.643 321 450.615 593 722.604> 400 50<60.147 143.5 244.502 379.985 535.17 651.405>
VStem: 23 34<376 394.89> 119 127<257.297 388.068> 663 123<210.43 388.846>
AnchorPoint: "top" 475 490 basechar 0
LayerCount: 2
Fore
SplineSet
165 0 m 1
 40 0 l 1
 110 305 l 2
 116 327 119 348 119 364 c 0
 119 386 113 400 94 400 c 0
 78 400 65 393 57 376 c 1
 23 376 l 1
 31 413 77 450 120 450 c 0
 167 450 199 440 219 424 c 1
 242 435 277 450 325 450 c 0
 388 450 439 436 465 408 c 1
 504 432 547 450 588 450 c 0
 707 450 786 419 786 321 c 0
 786 304 784 286 779 265 c 2
 718 0 l 1
 593 0 l 1
 649 244 l 2
 658 283 663 312 663 335 c 0
 663 388 637 400 591 400 c 0
 571 400 553 397 536 390 c 1
 446 0 l 1
 321 0 l 1
 377 244 l 2
 386 282 391 312 391 334 c 0
 391 388 364 400 314 400 c 0
 289 400 263 392 244 384 c 1
 245 377 246 371 246 364 c 0
 246 355 245 346 243 336 c 2
 165 0 l 1
EndSplineSet
Validated: 1
EndChar

StartChar: f
Encoding: 102 102 12
Width: 301
VWidth: 0
Flags: W
HStem: -135 50<0.706245 58.6467> 390 50<142 174 311 370> 620 50<356.007 431.861>
VStem: -36 36<-82.8995 -61>
AnchorPoint: "top" 352 700 basechar 0
LayerCount: 2
Fore
SplineSet
299 390 m 1
 204 -21 l 22
 190 -84 135 -135 29 -135 c 4
 -9 -135 -36 -106 -36 -74 c 4
 -36 -70 -35 -65 -34 -61 c 13
 -0 -61 l 21
 -0 -78 10 -85 26 -85 c 4
 58 -85 74 -42 86 10 c 6
 174 390 l 1
 115 390 l 1
 142 440 l 1
 186 440 l 1
 208 535 l 2
 226 615 306 670 386 670 c 0
 415 670 437 666 454 659 c 1
 421 605 l 1
 415 615 406 620 389 620 c 0
 361 620 347 597 327 509 c 2
 311 440 l 1
 382 440 l 1
 370 390 l 1
 299 390 l 1
EndSplineSet
Validated: 1
EndChar

StartChar: j
Encoding: 106 106 13
Width: 214
VWidth: 0
Flags: W
HStem: -170 50<-97.7988 7.16284> 420 20G<137.364 267> 520 80<189 275>
LayerCount: 2
Fore
SplineSet
-74 -95 m 5
 -65 -115 -46 -120 -27 -120 c 4
 9 -120 21 -82 40 0 c 6
 142 440 l 1
 267 440 l 1
 157 -33 l 6
 135 -132 17 -170 -53 -170 c 4
 -91 -170 -125 -156 -144 -125 c 5
 -74 -95 l 5
189 600 m 1
 294 600 l 1
 275 520 l 1
 170 520 l 1
 189 600 l 1
EndSplineSet
Validated: 1
EndChar

StartChar: l
Encoding: 108 108 15
Width: 281
VWidth: 0
Flags: W
HStem: -10 50<147 251.65>
VStem: 66 126<41.0266 183.203> 255 34<45.2679 64>
AnchorPoint: "cedilla" 161 0 basechar 0
AnchorPoint: "top" 269 700 basechar 0
LayerCount: 2
Fore
SplineSet
197 660 m 25
 322 660 l 25
 201 135 l 6
 196 113 192 92 192 76 c 4
 192 54 199 40 217 40 c 4
 233 40 247 47 255 64 c 13
 289 64 l 21
 280 27 235 -10 192 -10 c 4
 102 -10 66 27 66 76 c 4
 66 85 67 94 69 104 c 14
 197 660 l 25
EndSplineSet
Validated: 1
EndChar

StartChar: p
Encoding: 112 112 16
Width: 491
VWidth: 0
Flags: W
HStem: -8 50<220.03 311.927> 400 50<60.147 143 282.353 382.471>
VStem: 23 34<376 394.89> 394 121<178.714 371.115>
AnchorPoint: "top" 365 490 basechar 0
LayerCount: 2
Fore
SplineSet
515 281 m 0
 515 129 375 -8 233 -8 c 0
 207 -8 185 -4 166 4 c 1
 119 -200 l 1
 -6 -200 l 1
 110 305 l 2
 116 327 119 348 119 364 c 0
 119 386 113 400 94 400 c 0
 78 400 65 393 57 376 c 1
 23 376 l 1
 31 413 77 450 120 450 c 0
 166 450 199 440 219 424 c 1
 256 444 300 452 349 452 c 0
 454 452 515 378 515 281 c 0
260 42 m 0
 367 42 394 271 394 312 c 0
 394 363 382 402 353 402 c 0
 274 402 246 349 222 246 c 0
 213 207 206 165 206 129 c 0
 206 80 219 42 260 42 c 0
EndSplineSet
Validated: 1
EndChar

StartChar: q
Encoding: 113 113 17
Width: 528
VWidth: 0
Flags: W
HStem: -200 50<385 489.65> -10 50<205.606 307.83> 400 50<280.009 395.823>
VStem: 76 119<55.9407 249.975> 304 127<-149.009 -4.64062> 403 118<238.609 391.159> 493 34<-144.732 -126>
AnchorPoint: "top" 359 490 basechar 0
LayerCount: 2
Fore
SplineSet
76 144 m 0xfa
 76 239 131 450 356 450 c 0
 440 450 521 431 521 327 c 0xf4
 521 308 518 285 512 260 c 2
 439 -55 l 2
 434 -77 431 -98 431 -114 c 0
 431 -136 437 -150 455 -150 c 0
 471 -150 485 -143 493 -126 c 1
 527 -126 l 1
 518 -163 473 -200 430 -200 c 0
 340 -200 304 -163 304 -114 c 0
 304 -105 305 -96 307 -86 c 2
 327 2 l 1
 302 -6 276 -10 250 -10 c 0
 123 -10 76 55 76 144 c 0xfa
375 210 m 2
 394 292 l 2
 400 316 403 335 403 349 c 0
 403 391 380 400 329 400 c 0
 222 400 195 145 195 112 c 0
 195 70 207 40 246 40 c 0
 327 40 354 118 375 210 c 2
EndSplineSet
Validated: 1
EndChar

StartChar: r
Encoding: 114 114 18
Width: 401
VWidth: 0
Flags: W
HStem: 0 21G<70 199.643> 400 50<90.147 179.5 303.583 446.088>
VStem: 53 34<376 394.89>
AnchorPoint: "cedilla" 133 0 basechar 0
AnchorPoint: "top" 305 490 basechar 0
LayerCount: 2
Fore
SplineSet
455 362 m 1
 446 391 415 400 378 400 c 0
 335 400 306 384 276 357 c 1
 275 350 274 343 273 336 c 2
 195 0 l 1
 70 0 l 1
 140 305 l 2
 146 327 149 348 149 364 c 0
 149 386 143 400 124 400 c 0
 108 400 95 393 87 376 c 1
 53 376 l 1
 61 413 107 450 150 450 c 0
 209 450 245 434 262 410 c 1
 304 435 335 450 383 450 c 0
 420 450 449 445 472 436 c 1
 455 362 l 1
EndSplineSet
Validated: 1
EndChar

StartChar: u
Encoding: 117 117 19
Width: 542
VWidth: 0
Flags: W
HStem: -10 50<212.173 326.167 427.5 512.65> 420 20G<137.333 267 403.357 533>
VStem: 75 125<51.385 244.531> 326 127<49.1721 177.5> 516 34<45.2679 64>
AnchorPoint: "horn" 503 310 basechar 0
AnchorPoint: "bottom" 230 0 basechar 0
AnchorPoint: "top" 349 490 basechar 0
AnchorPoint: "ogonek" 451 0 basechar 0
LayerCount: 2
Fore
SplineSet
408 440 m 1
 533 440 l 1
 462 135 l 2
 457 113 453 92 453 76 c 0
 453 54 460 40 478 40 c 0
 494 40 508 47 516 64 c 1
 550 64 l 1
 541 27 496 -10 453 -10 c 0
 402 -10 368 2 349 21 c 1
 326 11 279 -10 232 -10 c 0
 123 -10 75 31 75 117 c 0
 75 141 79 169 86 200 c 2
 142 440 l 1
 267 440 l 1
 214 212 l 2
 205 171 200 140 200 115 c 0
 200 56 225 40 258 40 c 0
 292 40 312 51 327 62 c 1
 327 66 326 71 326 75 c 0
 326 84 328 94 330 104 c 2
 408 440 l 1
EndSplineSet
Validated: 1
EndChar

StartChar: g
Encoding: 103 103 20
Width: 533
VWidth: 0
Flags: W
HStem: -170 50<129.113 252.169> -10 50<204.089 294.5> 400 50<269.792 382.7 518.99 578.916>
VStem: 72 116<61.7126 235.037> 579 35<376 397.899>
AnchorPoint: "top" 346 490 basechar 0
LayerCount: 2
Fore
SplineSet
72 150 m 0
 72 304 193 450 325 450 c 0
 369 450 404 438 430 418 c 1
 458 438 498 450 550 450 c 0
 588 450 614 421 614 389 c 0
 614 385 614 380 613 376 c 1
 579 376 l 1
 579 393 568 400 552 400 c 0
 520 400 504 357 492 305 c 2
 440 78 l 2
 394 -122 355 -170 178 -170 c 0
 123 -170 71 -149 30 -125 c 1
 92 -73 l 1
 131 -105 169 -120 204 -120 c 0
 248 -120 271 -90 295 -4 c 1
 277 -8 258 -10 239 -10 c 0
 132 -10 72 51 72 150 c 0
308 46 m 1
 375 336 l 2
 378 348 382 360 388 372 c 1
 375 390 355 400 328 400 c 0
 253 400 231 330 206 220 c 0
 196 177 188 141 188 112 c 0
 188 66 207 40 265 40 c 0
 280 40 294 42 308 46 c 1
EndSplineSet
Validated: 1
EndChar

StartChar: v
Encoding: 118 118 21
Width: 455
VWidth: 0
Flags: W
HStem: 0 21G<187.364 281.909> 420 20G<132 242.603 440.082 532>
AnchorPoint: "top" 345 490 basechar 0
LayerCount: 2
Fore
SplineSet
278 148 m 1
 452 440 l 1
 532 440 l 1
 270 0 l 1
 190 0 l 1
 132 440 l 1
 240 440 l 1
 278 148 l 1
EndSplineSet
Validated: 1
EndChar

StartChar: w
Encoding: 119 119 22
Width: 747
VWidth: 0
Flags: W
HStem: 0 21G<187.364 281.89 479.32 573.909> 420 20G<132 242.603 440.082 534.612 732.041 824>
AnchorPoint: "top" 500 490 basechar 0
LayerCount: 2
Fore
SplineSet
278 148 m 1
 452 440 l 1
 532 440 l 1
 570 149 l 1
 744 440 l 1
 824 440 l 1
 562 0 l 1
 482 0 l 1
 443 291 l 1
 270 0 l 1
 190 0 l 1
 132 440 l 1
 240 440 l 1
 278 148 l 1
EndSplineSet
Validated: 1
EndChar

StartChar: x
Encoding: 120 120 23
Width: 476
VWidth: 0
Flags: W
HStem: 0 21G<30 134.677 310.613 441> 420 20G<135 264.48 401.4 505>
AnchorPoint: "top" 345 490 basechar 0
LayerCount: 2
Fore
SplineSet
226 222 m 1
 135 440 l 1
 256 440 l 1
 309 315 l 1
 419 440 l 1
 505 440 l 1
 336 249 l 1
 441 0 l 1
 319 0 l 1
 254 155 l 1
 117 0 l 1
 30 0 l 1
 226 222 l 1
EndSplineSet
Validated: 1
EndChar

StartChar: y
Encoding: 121 121 24
Width: 455
VWidth: 0
Flags: W
HStem: -170 50<47.3007 122.581> 420 20G<132 242.612 440.041 532>
AnchorPoint: "top" 346 490 basechar 0
LayerCount: 2
Fore
SplineSet
67 -170 m 0
 28 -170 -28 -147 -38 -88 c 1
 61 -74 l 1
 64 -109 82 -120 93 -120 c 0
 110 -120 141 -82 177 -22 c 2
 190 0 l 1
 132 440 l 1
 240 440 l 1
 278 149 l 1
 452 440 l 1
 532 440 l 1
 255 -24 l 2
 201 -115 144 -170 67 -170 c 0
EndSplineSet
Validated: 1
EndChar

StartChar: k
Encoding: 107 107 25
Width: 478
VWidth: 0
Flags: W
HStem: 0 21G<70 199.598 321.736 444> 420 20G<388.5 528> 620 50<141.147 246>
VStem: 104 34<596 614.89> 200 127<481.867 618.973>
AnchorPoint: "top" 394 700 basechar 0
AnchorPoint: "cedilla" 246 0 basechar 0
LayerCount: 2
Fore
SplineSet
195 0 m 1
 70 0 l 1
 191 525 l 2
 196 547 200 568 200 584 c 0
 200 606 193 620 175 620 c 0
 159 620 146 613 138 596 c 1
 104 596 l 1
 112 633 158 670 201 670 c 0
 291 670 327 633 327 584 c 0
 327 575 326 566 323 556 c 2
 267 312 l 1
 411 440 l 1
 528 440 l 1
 308 245 l 1
 444 0 l 1
 333 0 l 1
 235 174 l 1
 195 0 l 1
EndSplineSet
Validated: 1
EndChar

StartChar: z
Encoding: 122 122 26
Width: 404
VWidth: 0
Flags: W
HStem: -114 40<56.2 123.471> 390 50<120 294>
VStem: 238 125<8.48885 147.771>
AnchorPoint: "top" 288 490 basechar 0
LayerCount: 2
Fore
SplineSet
43 -74 m 2
 43 -74 238 -58 238 78 c 0
 238 178 114 234 114 234 c 2
 294 390 l 1
 93 390 l 1
 120 440 l 1
 456 440 l 1
 238 250 l 1
 284 222 363 163 363 80 c 0
 363 -98 59 -114 59 -114 c 2
 43 -74 l 2
EndSplineSet
Validated: 1
EndChar

StartChar: A
Encoding: 65 65 27
Width: 623
VWidth: 0
Flags: W
HStem: 0 21G<15 141.9 495.3 613> 200 50<279 465> 680 20G<420.086 522.657>
AnchorPoint: "ogonek" 533 0 basechar 0
AnchorPoint: "top" 476 700 basechar 0
LayerCount: 2
Fore
SplineSet
520 700 m 1
 613 0 l 1
 498 0 l 1
 471 200 l 1
 249 200 l 1
 130 0 l 1
 15 0 l 1
 432 700 l 1
 520 700 l 1
431 505 m 1
 279 250 l 1
 465 250 l 1
 431 505 l 1
EndSplineSet
Validated: 1
EndChar

StartChar: B
Encoding: 66 66 28
Width: 514
VWidth: 0
Flags: W
HStem: 0 50<182 296.681> 355 50<264 333.017> 650 50<320 393.65>
VStem: 381 131<144.536 320.713> 416 132<489.174 629.964>
AnchorPoint: "top" 362 700 basechar 0
LayerCount: 2
Fore
SplineSet
222 50 m 2xf0
 323 50 381 148 381 239 c 0
 381 298 358 355 292 355 c 2
 252 355 l 1
 182 50 l 1
 222 50 l 2xf0
548 580 m 0xe8
 548 465 460 406 426 388 c 1
 488 360 512 303 512 243 c 0xf0
 512 128 428 0 240 0 c 2
 40 0 l 1
 202 700 l 1
 382 700 l 2
 509 700 548 648 548 580 c 0xe8
264 405 m 1
 333 406 416 471 416 566 c 0xe8
 416 605 401 650 340 650 c 2
 320 650 l 1
 264 405 l 1
EndSplineSet
Validated: 1
EndChar

StartChar: P
Encoding: 80 80 29
Width: 474
VWidth: 0
Flags: W
HStem: 0 21G<45 179.625> 320 50<260 370.28> 650 50<325 430.121>
VStem: 459 130<464.216 620.779>
AnchorPoint: "top" 396 700 basechar 0
LayerCount: 2
Fore
SplineSet
589 551 m 0
 589 452 496 320 324 320 c 2
 249 320 l 1
 175 0 l 1
 45 0 l 1
 207 700 l 1
 412 700 l 2
 545 700 589 623 589 551 c 0
305 370 m 2
 398 370 459 469 459 551 c 0
 459 601 437 650 370 650 c 2
 325 650 l 1
 260 370 l 1
 305 370 l 2
EndSplineSet
Validated: 1
EndChar

StartChar: C
Encoding: 67 67 30
Width: 647
VWidth: 0
Flags: W
HStem: -10 50<293.284 453.337> 650 50<406.388 572.255>
VStem: 98 127<136.527 376.13>
AnchorPoint: "cedilla" 350 0 basechar 0
AnchorPoint: "top" 492 700 basechar 0
LayerCount: 2
Fore
SplineSet
614 102 m 1
 549 38 449 -10 340 -10 c 0
 229 -10 98 70 98 249 c 0
 98 459 262 700 485 700 c 0
 621 700 695 665 727 608 c 1
 610 575 l 1
 588 622 572 650 488 650 c 0
 278 650 225 317 225 227 c 0
 225 96 291 40 366 40 c 0
 443 40 476 72 526 129 c 1
 614 102 l 1
EndSplineSet
Validated: 1
EndChar

StartChar: D
Encoding: 68 68 31
Width: 594
VWidth: 0
Flags: W
HStem: 0 50<187 336.707> 650 50<325 471.845>
VStem: 520 129<350.484 598.965>
AnchorPoint: "top" 406 700 basechar 0
LayerCount: 2
Fore
SplineSet
649 498 m 0
 649 377 577 0 287 0 c 2
 45 0 l 1
 207 700 l 1
 449 700 l 2
 574 700 649 640 649 498 c 0
325 650 m 1
 187 50 l 1
 269 50 l 2
 443 50 520 380 520 500 c 0
 520 611 470 650 407 650 c 2
 325 650 l 1
EndSplineSet
Validated: 1
EndChar

StartChar: E
Encoding: 69 69 32
Width: 470
VWidth: 0
Flags: W
HStem: 0 50<182 460> 390 50<272 444> 650 50<320 594>
AnchorPoint: "ogonek" 368 0 basechar 0
AnchorPoint: "top" 417 700 basechar 0
LayerCount: 2
Fore
SplineSet
460 0 m 1
 40 0 l 1
 202 700 l 1
 606 700 l 1
 594 650 l 9
 320 650 l 1
 272 440 l 1
 456 440 l 17
 444 390 l 9
 260 390 l 1
 182 50 l 1
 472 50 l 17
 460 0 l 1
EndSplineSet
Validated: 1
EndChar

StartChar: F
Encoding: 70 70 33
Width: 439
VWidth: 0
Flags: W
HStem: 0 21G<45 179.615> 390 50<277 449> 650 50<325 599>
AnchorPoint: "top" 417 700 basechar 0
LayerCount: 2
Fore
SplineSet
45 0 m 1
 207 700 l 1
 611 700 l 17
 599 650 l 9
 325 650 l 1
 277 440 l 1
 461 440 l 17
 449 390 l 9
 265 390 l 1
 175 0 l 1
 45 0 l 1
EndSplineSet
Validated: 1
EndChar

StartChar: G
Encoding: 71 71 34
Width: 647
VWidth: 0
Flags: W
HStem: -10 50<293.284 466.689> 350 50<473 546> 650 50<406.388 572.255>
VStem: 98 127<136.527 376.13>
AnchorPoint: "cedilla" 350 0 basechar 0
AnchorPoint: "top" 492 700 basechar 0
LayerCount: 2
Fore
SplineSet
473 400 m 1
 682 400 l 1
 614 102 l 1
 549 38 449 -10 340 -10 c 0
 229 -10 98 70 98 249 c 0
 98 459 262 700 485 700 c 0
 621 700 695 665 727 608 c 1
 610 575 l 1
 588 622 572 650 488 650 c 0
 278 650 225 317 225 227 c 0
 225 96 291 40 366 40 c 0
 407 40 445 49 480 66 c 1
 546 350 l 1
 462 350 l 1
 473 400 l 1
EndSplineSet
Validated: 1
EndChar

StartChar: H
Encoding: 72 72 35
Width: 581
VWidth: 0
Flags: W
HStem: 0 21G<40 174.629 402 536.629> 350 50<262 483> 680 20G<197.371 332 559.333 694>
AnchorPoint: "top" 452 700 basechar 0
LayerCount: 2
Fore
SplineSet
332 700 m 1
 262 400 l 1
 494 400 l 1
 564 700 l 1
 694 700 l 1
 532 0 l 1
 402 0 l 1
 483 350 l 1
 251 350 l 1
 170 0 l 1
 40 0 l 1
 202 700 l 1
 332 700 l 1
EndSplineSet
Validated: 1
EndChar

StartChar: I
Encoding: 73 73 36
Width: 224
VWidth: 0
Flags: W
HStem: 0 21G<45 179.629> 680 20G<202.371 337>
VStem: 45 292
AnchorPoint: "ogonek" 98 0 basechar 0
AnchorPoint: "top" 273 700 basechar 0
LayerCount: 2
Fore
SplineSet
337 700 m 25
 175 0 l 17
 45 0 l 9
 207 700 l 25
 337 700 l 25
EndSplineSet
Validated: 1
EndChar

StartChar: J
Encoding: 74 74 37
Width: 437
VWidth: 0
Flags: W
HStem: -10 50<149.73 244.709> 680 20G<415.372 550>
AnchorPoint: "top" 486 700 basechar 0
LayerCount: 2
Fore
SplineSet
443 238 m 18
 397 38 353 -10 176 -10 c 0
 121 -10 69 11 28 35 c 1
 125 87 l 1
 150 52 184 40 202 40 c 0
 245 40 277 84 308 216 c 2
 420 700 l 17
 550 700 l 9
 443 238 l 18
EndSplineSet
Validated: 1
EndChar

StartChar: K
Encoding: 75 75 38
Width: 605
VWidth: 0
Flags: W
HStem: 0 21G<45 179.643 441.854 562> 680 20G<202.371 337 574.534 712>
AnchorPoint: "cedilla" 280 0 basechar 0
AnchorPoint: "top" 403 700 basechar 0
LayerCount: 2
Fore
SplineSet
240 280 m 1
 175 0 l 1
 45 0 l 1
 207 700 l 1
 337 700 l 1
 269 408 l 1
 597 700 l 1
 712 700 l 1
 351 379 l 1
 562 0 l 1
 453 0 l 1
 278 314 l 1
 240 280 l 1
EndSplineSet
Validated: 1
EndChar

StartChar: L
Encoding: 76 76 39
Width: 514
VWidth: 0
Flags: W
HStem: 0 50<182 460> 680 20G<197.371 332>
AnchorPoint: "cedilla" 246 0 basechar 0
AnchorPoint: "top" 377 700 basechar 0
LayerCount: 2
Fore
SplineSet
182 50 m 1
 472 50 l 17
 460 0 l 1
 40 0 l 1
 202 700 l 1
 332 700 l 1
 182 50 l 1
EndSplineSet
Validated: 1
EndChar

StartChar: M
Encoding: 77 77 40
Width: 723
VWidth: 0
Flags: W
HStem: 0 21G<45 179.618 541 675.629> 680 20G<202.371 341.694 689.02 833>
AnchorPoint: "top" 520 700 basechar 0
LayerCount: 2
Fore
SplineSet
337 700 m 1
 429 308 l 1
 703 700 l 1
 833 700 l 1
 671 0 l 1
 541 0 l 1
 659 511 l 1
 386 121 l 1
 293 511 l 1
 175 0 l 1
 45 0 l 1
 207 700 l 1
 337 700 l 1
EndSplineSet
Validated: 1
EndChar

StartChar: N
Encoding: 78 78 41
Width: 616
VWidth: 0
Flags: W
HStem: 0 21G<45 179.61 428.743 568.629> 680 20G<202.371 343.259 591.355 726>
AnchorPoint: "cedilla" 300 0 basechar 0
AnchorPoint: "top" 472 700 basechar 0
LayerCount: 2
Fore
SplineSet
726 700 m 1
 564 0 l 1
 434 0 l 1
 296 525 l 1
 175 0 l 1
 45 0 l 1
 207 700 l 1
 337 700 l 1
 338 700 l 1
 475 179 l 1
 596 700 l 1
 726 700 l 1
EndSplineSet
Validated: 1
EndChar

StartChar: O
Encoding: 79 79 42
Width: 669
VWidth: 0
Flags: W
HStem: -10 50<279.005 411.83> 660 50<401.456 547.74>
VStem: 97 126<122.719 365.575> 603 125<340.624 574.941>
AnchorPoint: "bottom" 332 0 basechar 0
AnchorPoint: "horn" 696 530 basechar 0
AnchorPoint: "ogonek" 334 0 basechar 0
AnchorPoint: "top" 487 700 basechar 0
LayerCount: 2
Fore
SplineSet
322 -10 m 0
 210 -10 97 67 97 239 c 0
 97 460 260 710 479 710 c 0
 615 710 728 633 728 463 c 0
 728 273 599 -10 322 -10 c 0
339 40 m 0
 518 40 603 347 603 494 c 0
 603 610 552 660 473 660 c 0
 313 660 223 366 223 215 c 0
 223 92 278 40 339 40 c 0
EndSplineSet
Validated: 1
EndChar

StartChar: Q
Encoding: 81 81 43
Width: 669
VWidth: 0
Flags: W
HStem: -170 50<443.18 505> 660 50<396.554 551.922>
VStem: 97 124<124.849 363.967> 260 131<-69.3173 -0.637741> 604 124<348.64 575.054>
AnchorPoint: "top" 479 700 basechar 0
LayerCount: 2
Fore
SplineSet
339 40 m 0
 540 40 604 395 604 502 c 0
 604 612 557 660 473 660 c 0
 261 660 221 263 221 200 c 0
 221 88 268 40 339 40 c 0
261 -2 m 1
 172 21 97 99 97 239 c 0
 97 460 260 710 479 710 c 0
 615 710 728 633 728 463 c 0
 728 310 638 44 391 -3 c 1
 391 -5 391 -7 391 -9 c 0
 391 -76 454 -120 516 -120 c 1
 505 -170 l 1
 413 -170 260 -131 260 -17 c 0
 260 -12 260 -7 261 -2 c 1
EndSplineSet
Validated: 1
EndChar

StartChar: R
Encoding: 82 82 44
Width: 548
VWidth: 0
Flags: W
HStem: 0 21G<45 179.625 365 494> 320 50<260 296.596> 650 50<325 430.121>
VStem: 370 128<0 186.626> 459 130<464.392 620.779>
AnchorPoint: "cedilla" 248 0 basechar 0
AnchorPoint: "top" 396 700 basechar 0
LayerCount: 2
Fore
SplineSet
589 551 m 0xe8
 589 469 527 370 416 334 c 1
 459 283 498 153 498 56 c 0
 498 36 496 17 492 0 c 1
 365 0 l 1
 369 16 370 33 370 52 c 0xf0
 370 147 329 273 278 320 c 1
 249 320 l 1
 175 0 l 1
 45 0 l 1
 207 700 l 1
 412 700 l 2
 545 700 589 623 589 551 c 0xe8
305 370 m 2
 398 370 459 469 459 551 c 0xe8
 459 601 437 650 370 650 c 2
 325 650 l 1
 260 370 l 1
 305 370 l 2
EndSplineSet
Validated: 1
EndChar

StartChar: S
Encoding: 83 83 45
Width: 585
VWidth: 0
Flags: W
HStem: -10 50<257.369 377.477> 660 50<396.651 500.091>
VStem: 101 116<86.481 171> 210 132<459.224 578.848> 455 132<136.045 271.014>
AnchorPoint: "cedilla" 292 0 basechar 0
AnchorPoint: "top" 452 700 basechar 0
LayerCount: 2
Fore
SplineSet
587 227 m 0xd8
 587 85 451 -10 286 -10 c 0
 166 -10 103 75 101 171 c 1
 218 186 l 1
 217 179 217 173 217 167 c 0xe8
 217 96 257 40 304 40 c 0
 428 40 455 173 455 211 c 0
 455 353 210 334 210 494 c 0
 210 628 356 710 458 710 c 0
 596 710 619 662 644 598 c 1
 530 577 l 1
 513 632 500 660 438 660 c 0
 389 660 342 563 342 513 c 0
 342 388 587 397 587 227 c 0xd8
EndSplineSet
Validated: 1
EndChar

StartChar: T
Encoding: 84 84 46
Width: 585
VWidth: 0
Flags: W
HStem: 0 21G<238 372.615> 650 50<172 388 518 745>
AnchorPoint: "cedilla" 302 0 basechar 0
AnchorPoint: "top" 466 700 basechar 0
LayerCount: 2
Fore
SplineSet
172 700 m 1
 759 700 l 1
 745 650 l 1
 518 650 l 1
 368 0 l 1
 238 0 l 1
 388 650 l 1
 160 650 l 1
 172 700 l 1
EndSplineSet
Validated: 1
EndChar

StartChar: U
Encoding: 85 85 47
Width: 605
VWidth: 0
Flags: W
HStem: -10 50<243.063 381.24> 680 20G<187.373 322 590.373 725>
VStem: 86 124<88.8447 310.562>
AnchorPoint: "bottom" 306 0 basechar 0
AnchorPoint: "horn" 685 530 basechar 0
AnchorPoint: "ogonek" 330 0 basechar 0
AnchorPoint: "top" 468 700 basechar 0
LayerCount: 2
Fore
SplineSet
595 700 m 1
 725 700 l 1
 632 298 l 2
 574 48 436 -10 292 -10 c 0
 202 -10 86 31 86 194 c 0
 86 224 90 259 99 298 c 2
 192 700 l 1
 322 700 l 1
 229 298 l 2
 216 242 210 198 210 163 c 0
 210 61 258 40 309 40 c 0
 385 40 453 88 502 298 c 2
 595 700 l 1
EndSplineSet
Validated: 1
EndChar

StartChar: V
Encoding: 86 86 48
Width: 538
VWidth: 0
Flags: W
HStem: 0 21G<225.143 326.114> 680 20G<162 282.834 573.87 704>
AnchorPoint: "top" 430 700 basechar 0
LayerCount: 2
Fore
SplineSet
227 0 m 1
 162 700 l 1
 281 700 l 1
 324 231 l 1
 585 700 l 1
 704 700 l 1
 315 0 l 1
 227 0 l 1
EndSplineSet
Validated: 1
EndChar

StartChar: X
Encoding: 88 88 49
Width: 535
VWidth: 0
Flags: W
HStem: 0 21G<20 123.792 373.415 505> 680 20G<184 315.536 523.179 628>
AnchorPoint: "top" 421 700 basechar 0
LayerCount: 2
Fore
SplineSet
397 388 m 1
 505 0 l 1
 379 0 l 1
 305 265 l 1
 109 0 l 1
 20 0 l 1
 280 352 l 1
 184 700 l 1
 310 700 l 1
 372 476 l 1
 538 700 l 1
 628 700 l 1
 397 388 l 1
EndSplineSet
Validated: 1
EndChar

StartChar: W
Encoding: 87 87 50
Width: 831
VWidth: 0
Flags: W
HStem: 0 21G<225.143 326.139 518.165 619.114> 420 20G<458.819 570.811> 680 20G<162 282.829 866.872 997>
AnchorPoint: "top" 572 700 basechar 0
LayerCount: 2
Fore
SplineSet
569 440 m 1
 592 186 l 1
 878 700 l 1
 997 700 l 1
 608 0 l 1
 520 0 l 1
 491 316 l 1
 315 0 l 1
 227 0 l 1
 162 700 l 1
 281 700 l 1
 328 186 l 1
 470 440 l 1
 569 440 l 1
EndSplineSet
Validated: 1
EndChar

StartChar: Y
Encoding: 89 89 51
Width: 525
VWidth: 0
Flags: W
HStem: 0 21G<198 332.604> 680 20G<184 315.597 543.185 648>
AnchorPoint: "top" 424 700 basechar 0
LayerCount: 2
Fore
SplineSet
378 457 m 1
 558 700 l 1
 648 700 l 1
 418 391 l 1
 328 0 l 1
 198 0 l 1
 280 355 l 1
 184 700 l 1
 310 700 l 1
 378 457 l 1
EndSplineSet
Validated: 1
EndChar

StartChar: Z
Encoding: 90 90 52
Width: 525
VWidth: 0
Flags: W
HStem: 0 50<179 470> 650 50<202 468>
AnchorPoint: "top" 402 700 basechar 0
LayerCount: 2
Fore
SplineSet
468 650 m 1
 175 650 l 1
 202 700 l 1
 628 700 l 1
 179 50 l 1
 482 50 l 1
 470 0 l 1
 20 0 l 1
 468 650 l 1
EndSplineSet
Validated: 1
EndChar

StartChar: exclam
Encoding: 33 33 53
Width: 219
VWidth: 0
Flags: W
HStem: 0 80<73 160> 680 20G<202.962 332>
VStem: 55 277
LayerCount: 2
Fore
SplineSet
73 80 m 5
 178 80 l 5
 160 0 l 5
 55 0 l 5
 73 80 l 5
332 700 m 17
 197 180 l 9
 102 180 l 25
 207 700 l 25
 332 700 l 17
EndSplineSet
Validated: 1
EndChar

StartChar: period
Encoding: 46 46 54
Width: 199
VWidth: 0
Flags: W
HStem: 0 80<63 150>
VStem: 45 123
LayerCount: 2
Fore
SplineSet
63 80 m 1
 168 80 l 1
 150 0 l 1
 45 0 l 1
 63 80 l 1
EndSplineSet
Validated: 1
EndChar

StartChar: comma
Encoding: 44 44 55
Width: 219
VWidth: 0
Flags: W
HStem: -99 179<70.0861 104.048>
VStem: 27 151
LayerCount: 2
Fore
SplineSet
27 -99 m 1
 67 -56 70 -20 70 -6 c 0
 70 9 67 25 67 44 c 0
 67 55 68 67 71 80 c 1
 178 80 l 1
 148 -50 120 -72 99 -99 c 1
 27 -99 l 1
EndSplineSet
Validated: 1
EndChar

StartChar: quotesingle
Encoding: 39 39 56
Width: 209
VWidth: 0
Flags: W
HStem: 500 200<207 260>
VStem: 175 147
LayerCount: 2
Fore
SplineSet
322 700 m 25
 260 500 l 25
 175 500 l 25
 207 700 l 25
 322 700 l 25
EndSplineSet
Validated: 1
EndChar

StartChar: dollar
Encoding: 36 36 58
Width: 510
VWidth: 0
Flags: W
HStem: 0 21G<188 233.658 269 314.5> 73 50<258 286> 77 53<153.469 206> 543 50<366 394>
VStem: 135 125<407.23 502.292> 404 125<182.122 289.722>
LayerCount: 2
Fore
SplineSet
569 531 m 1xbc
 503 496 l 1
 485 514 460 526 433 534 c 1
 394 366 l 1
 475 339 529 291 529 242 c 0
 529 180 451 105 328 80 c 1
 310 0 l 1
 269 0 l 1
 286 74 l 1
 278 73 269 73 261 73 c 0
 256 73 251 73 246 73 c 1xdc
 229 0 l 1
 188 0 l 1
 206 77 l 1
 151 86 100 107 62 140 c 1
 114 177 l 1
 142 154 177 138 218 130 c 1
 265 333 l 1
 197 356 135 394 135 447 c 0
 135 504 207 575 324 590 c 1
 340 660 l 1
 381 660 l 1
 366 593 l 1
 379 593 392 592 405 590 c 1
 421 660 l 1
 462 660 l 1
 445 584 l 1
 493 574 539 557 569 531 c 1xbc
310 527 m 1
 283 510 260 481 260 450 c 0
 260 432 268 417 282 406 c 1
 310 527 l 1
304 323 m 1
 258 124 l 1
 267 123 277 123 287 123 c 2
 297 123 l 1
 341 314 l 1
 327 319 319 320 304 323 c 1
318 386 m 1
 333 381 341 380 356 377 c 1
 394 541 l 1
 384 542 374 543 364 543 c 0
 361 543 357 543 354 542 c 1
 318 386 l 1
341 136 m 1
 385 159 404 216 404 243 c 0
 404 264 394 281 378 294 c 1
 341 136 l 1
EndSplineSet
Validated: 1
EndChar

StartChar: bar
Encoding: 124 124 59
Width: 174
VWidth: 0
Flags: W
HStem: 0 21G<45 129.629> 680 20G<202.371 287>
VStem: 45 242
LayerCount: 2
Fore
SplineSet
287 700 m 25
 125 0 l 25
 45 0 l 25
 207 700 l 25
 287 700 l 25
EndSplineSet
Validated: 1
EndChar

StartChar: slash
Encoding: 47 47 60
Width: 442
VWidth: 0
Flags: W
HStem: 0 21G<30 141.714> 680 20G<462.286 574>
LayerCount: 2
Fore
SplineSet
574 700 m 1
 129 0 l 1
 30 0 l 1
 475 700 l 1
 574 700 l 1
EndSplineSet
Validated: 1
EndChar

StartChar: backslash
Encoding: 92 92 61
Width: 442
VWidth: 0
Flags: W
HStem: 0 21G<309.543 412> 680 20G<192 294.457>
VStem: 192 220
LayerCount: 2
Fore
SplineSet
192 700 m 1
 291 700 l 1
 412 0 l 1
 313 0 l 1
 192 700 l 1
EndSplineSet
Validated: 1
EndChar

StartChar: question
Encoding: 63 63 62
Width: 461
VWidth: 0
Flags: W
HStem: 0 80<160 247> 180 105<203 279> 620 50<274.913 395.408>
VStem: 420 120<405.208 586.428>
LayerCount: 2
Fore
SplineSet
160 80 m 1
 265 80 l 1
 247 0 l 1
 142 0 l 1
 160 80 l 1
540 499 m 0
 540 353 423 257 300 238 c 1
 279 180 l 1
 194 180 l 1
 203 285 l 1
 256 285 l 2
 402 285 420 484 420 527 c 0
 420 585 395 620 328 620 c 0
 277 620 276 597 244 560 c 1
 155 583 l 1
 206 634 273 670 355 670 c 0
 465 670 540 605 540 499 c 0
EndSplineSet
Validated: 1
EndChar

StartChar: percent
Encoding: 37 37 65
Width: 622
VWidth: 0
Flags: W
HStem: 76 53<448.608 510.002> 231 53<461.527 522.792> 356 53<242.708 304.182> 511 53<255.818 317.392>
VStem: 143 98<409.552 497.69> 319 98<422.31 510.448> 349 98<129.552 217.69> 524 99<140.919 230.448>
LayerCount: 2
Fore
SplineSet
497 231 m 0xfb
 456 231 447 175 447 158 c 0
 447 141 454 129 474 129 c 0
 516 129 524 185 524 202 c 0
 524 219 517 231 497 231 c 0xfb
349 155 m 0
 349 233 420 284 510 284 c 0
 561 284 623 265 623 205 c 0
 623 127 551 76 462 76 c 0
 410 76 349 95 349 155 c 0
292 511 m 0
 250 511 241 455 241 438 c 0
 241 421 248 409 268 409 c 0
 310 409 319 465 319 482 c 0xfd
 319 499 312 511 292 511 c 0
143 435 m 0
 143 513 215 564 304 564 c 0
 356 564 417 545 417 485 c 0
 417 407 345 356 256 356 c 0
 205 356 143 375 143 435 c 0
100 129 m 1
 559 511 l 1
 666 511 l 1
 207 129 l 1
 100 129 l 1
EndSplineSet
Validated: 1
EndChar

StartChar: numbersign
Encoding: 35 35 66
Width: 549
VWidth: 0
Flags: W
HStem: 200 50<108 157 293 323 460 520> 410 50<181 243 378 409 545 594>
LayerCount: 2
Fore
SplineSet
273 200 m 1
 216 60 l 1
 100 60 l 1
 157 200 l 1
 96 200 l 1
 108 250 l 1
 177 250 l 1
 243 410 l 1
 170 410 l 1
 181 460 l 1
 262 460 l 1
 320 600 l 1
 436 600 l 1
 378 460 l 1
 429 460 l 1
 486 600 l 1
 602 600 l 1
 545 460 l 1
 605 460 l 1
 594 410 l 1
 525 410 l 1
 460 250 l 1
 532 250 l 1
 520 200 l 1
 439 200 l 1
 383 60 l 1
 267 60 l 1
 323 200 l 1
 273 200 l 1
293 250 m 1
 344 250 l 1
 409 410 l 1
 359 410 l 1
 293 250 l 1
EndSplineSet
Validated: 1
EndChar

StartChar: zero
Encoding: 48 48 67
Width: 460
VWidth: 0
Flags: W
HStem: -10 50<195.962 292.714> 490 50<298.538 385.056>
VStem: 66 114<73.6047 263.188> 400 116<255.481 448.806>
LayerCount: 2
Fore
SplineSet
349 490 m 0
 231 490 180 195 180 126 c 0
 180 76 196 40 245 40 c 0
 359 40 400 345 400 402 c 0
 400 453 387 490 349 490 c 0
516 345 m 0
 516 173 380 -10 219 -10 c 0
 116 -10 66 75 66 180 c 0
 66 383 242 540 346 540 c 0
 452 540 516 459 516 345 c 0
EndSplineSet
Validated: 1
EndChar

StartChar: one
Encoding: 49 49 68
Width: 460
VWidth: 0
Flags: W
HStem: 0 21G<171 300.636>
VStem: 171 249
LayerCount: 2
Fore
SplineSet
420 535 m 1
 296 0 l 1
 171 0 l 1
 280 472 l 1
 250 469 l 1
 262 519 l 1
 420 535 l 1
EndSplineSet
Validated: 1
EndChar

StartChar: two
Encoding: 50 50 69
Width: 460
VWidth: 0
Flags: W
HStem: 0 50<196 399> 480 50<290.6 401.648>
VStem: 367 119<341.644 479.443>
LayerCount: 2
Fore
SplineSet
59 0 m 1
 118 256 367 209 367 441 c 0
 367 469 358 480 339 480 c 0
 299 480 281 453 250 404 c 1
 158 428 l 1
 198 484 263 530 365 530 c 0
 438 530 486 481 486 411 c 0
 486 221 231 202 196 50 c 1
 411 50 l 25
 399 0 l 25
 59 0 l 1
EndSplineSet
Validated: 1
EndChar

StartChar: three
Encoding: 51 51 70
Width: 460
VWidth: 0
Flags: W
HStem: -126 50<143.943 245.047> 206 50<234 294.603> 480 50<271.451 363.143>
VStem: 34 93<-59.5417 -20.1935> 319 121<23.6104 181.875> 370 121<323.88 471.303>
LayerCount: 2
Fore
SplineSet
196 -76 m 4xf8
 264 -76 319 38 319 125 c 4xf8
 319 172 298 206 223 206 c 5
 234 256 l 5
 353 256 370 370 370 427 c 4
 370 465 355 480 325 480 c 4
 272 480 267 453 236 404 c 5
 154 428 l 5
 194 484 249 530 351 530 c 4
 427 530 491 477 491 403 c 4xf4
 491 350 459 272 361 231 c 5
 415 204 440 159 440 104 c 4
 440 -39 283 -126 200 -126 c 4
 98 -126 48 -78 34 -22 c 5
 127 2 l 5
 135 -47 143 -76 196 -76 c 4xf8
EndSplineSet
Validated: 1
EndChar

StartChar: four
Encoding: 52 52 71
Width: 460
VWidth: 0
Flags: W
HStem: 0 50<121 256 393 435>
LayerCount: 2
Fore
SplineSet
33 33 m 1
 379 530 l 1
 503 530 l 1
 393 50 l 1
 447 50 l 1
 435 0 l 1
 381 0 l 1
 354 -116 l 1
 229 -116 l 1
 256 0 l 1
 25 0 l 1
 33 33 l 1
268 50 m 1
 340 365 l 1
 121 50 l 1
 268 50 l 1
EndSplineSet
Validated: 1
EndChar

StartChar: five
Encoding: 53 53 72
Width: 460
VWidth: 0
Flags: W
HStem: -126 50<157.18 247.733> 480 50<362 505>
VStem: 319 121<46.3386 232.593>
LayerCount: 2
Fore
SplineSet
440 157 m 0
 440 1 322 -126 210 -126 c 0
 108 -126 58 -78 44 -22 c 1
 142 2 l 1
 150 -47 153 -76 206 -76 c 0
 285 -76 319 124 319 171 c 0
 319 231 285 271 152 271 c 1
 256 530 l 1
 516 530 l 1
 505 480 l 1
 362 480 l 1
 294 310 l 1
 402 287 440 232 440 157 c 0
EndSplineSet
Validated: 1
EndChar

StartChar: six
Encoding: 54 54 73
Width: 460
VWidth: 0
Flags: W
HStem: -10 50<197.861 287.045> 286 50<254.708 339.852>
VStem: 74 117<64.7585 216.28> 349 124<125.854 278.311>
LayerCount: 2
Fore
SplineSet
235 40 m 0
 315 40 349 166 349 220 c 0
 349 256 337 286 301 286 c 0
 277 286 254 283 231 278 c 1
 206 209 191 134 191 98 c 0
 191 59 204 40 235 40 c 0
473 212 m 0
 473 105 373 -10 239 -10 c 0
 150 -10 74 49 74 143 c 0
 74 449 500 676 500 676 c 2
 527 646 l 1
 527 646 355 553 254 333 c 1
 268 335 283 336 298 336 c 0
 389 336 473 302 473 212 c 0
EndSplineSet
Validated: 1
EndChar

StartChar: seven
Encoding: 55 55 74
Width: 460
VWidth: 0
Flags: W
HStem: 480 50<205 387>
LayerCount: 2
Fore
SplineSet
205 530 m 1
 514 530 l 1
 503 480 l 1
 205 -116 l 1
 89 -116 l 1
 387 480 l 1
 179 480 l 1
 205 530 l 1
EndSplineSet
Validated: 1
EndChar

StartChar: nine
Encoding: 57 57 75
Width: 460
VWidth: 0
Flags: W
HStem: 194 50<249.784 329.207> 490 50<291.257 369.636>
VStem: 108 126<256.031 394.13> 385 121<289.728 461.528>
LayerCount: 2
Fore
SplineSet
332 490 m 0
 272 490 234 360 234 321 c 0
 234 281 253 244 281 244 c 0
 305 244 329 247 352 252 c 1
 367 294 385 353 385 404 c 0
 385 459 365 490 332 490 c 0
108 309 m 0
 108 411 205 540 359 540 c 0
 432 540 506 474 506 377 c 0
 506 70 82 -146 82 -146 c 2
 55 -116 l 1
 55 -116 232 -27 330 197 c 1
 316 195 300 194 285 194 c 0
 193 194 108 220 108 309 c 0
EndSplineSet
Validated: 1
EndChar

StartChar: eight
Encoding: 56 56 76
Width: 460
VWidth: 0
Flags: W
HStem: -10 50<192.595 294.408> 660 50<339.932 417.078>
VStem: 57 124<62.3468 222.586> 162 133<449.303 577.831> 356 132<135.559 283.068> 426 126<490.398 645.586>
LayerCount: 2
Fore
SplineSet
359 410 m 1xd4
 415 463 426 572 426 597 c 0
 426 636 414 660 384 660 c 0
 311 660 295 527 295 509 c 0
 295 463 324 436 359 410 c 1xd4
57 140 m 0xe8
 57 231 135 313 228 367 c 1
 191 395 162 428 162 487 c 0
 162 632 307 710 404 710 c 0
 487 710 552 653 552 570 c 0xd4
 552 530 540 458 412 372 c 1
 453 342 488 304 488 235 c 0
 488 89 362 -10 221 -10 c 0
 122 -10 57 57 57 140 c 0xe8
274 335 m 1
 194 275 181 125 181 106 c 0
 181 66 195 40 239 40 c 0
 348 40 356 215 356 217 c 0xe8
 356 276 317 307 274 335 c 1
EndSplineSet
Validated: 1
EndChar

StartChar: ampersand
Encoding: 38 38 77
Width: 618
VWidth: 0
Flags: W
HStem: -10 50<232.594 390.033> 0 21G<444.667 563> 620 50<413.711 505.537>
VStem: 75 122<84.8623 263.038> 270 114<426.107 576.792> 574 100<341.99 406.61>
LayerCount: 2
Fore
SplineSet
270 493 m 0xbc
 270 547 300 670 482 670 c 0
 565 670 614 622 620 590 c 1
 514 573 l 1
 507 604 504 620 455 620 c 0
 395 620 384 519 384 498 c 0
 384 441 411 373 419 354 c 2
 493 172 l 1
 526 237 550 324 574 428 c 1
 674 405 l 1
 650 304 598 188 520 104 c 1
 563 0 l 1
 453 0 l 1x7c
 438 36 l 1
 392 7 338 -10 279 -10 c 0
 165 -10 75 58 75 169 c 0
 75 274 154 385 280 432 c 1
 274 451 270 472 270 493 c 0xbc
298 378 m 1
 229 330 197 218 197 152 c 0
 197 82 232 40 305 40 c 0xbc
 352 40 390 53 421 78 c 1
 298 378 l 1
EndSplineSet
Validated: 1
EndChar

StartChar: parenleft
Encoding: 40 40 78
Width: 313
VWidth: 0
Flags: W
HStem: 0 21G<176.521 263> 680 20G<345 425>
VStem: 114 120<80.3149 351.586>
LayerCount: 2
Fore
SplineSet
345 700 m 10
 425 700 l 18
 425 700 234 489 234 170 c 0
 234 58 263 0 263 0 c 9
 183 0 l 17
 183 0 114 63 114 213 c 0
 114 537 345 699 345 700 c 10
EndSplineSet
Validated: 1
EndChar

StartChar: parenright
Encoding: 41 41 79
Width: 313
VWidth: 0
Flags: W
HStem: 0 21G<50 130> 680 20G<212 298.479>
VStem: 241 120<348.414 619.685>
LayerCount: 2
Fore
SplineSet
130 0 m 10
 50 0 l 18
 50 0 241 211 241 530 c 0
 241 642 212 700 212 700 c 9
 292 700 l 17
 292 700 361 637 361 487 c 0
 361 163 130 1 130 0 c 10
EndSplineSet
Validated: 1
EndChar

StartChar: asterisk
Encoding: 42 42 80
Width: 450
VWidth: 0
Flags: W
HStem: 651 20G<333.957 423>
LayerCount: 2
Fore
SplineSet
316 533 m 1
 337 671 l 1
 423 671 l 1
 380 533 l 1
 521 586 l 1
 528 504 l 1
 386 472 l 1
 451 366 l 1
 371 315 l 1
 325 433 l 1
 225 315 l 1
 167 366 l 1
 282 472 l 1
 154 504 l 1
 199 586 l 1
 316 533 l 1
EndSplineSet
Validated: 1
EndChar

StartChar: plus
Encoding: 43 43 81
Width: 418
VWidth: 0
Flags: W
HStem: 170 50<91 201 307 417>
LayerCount: 2
Fore
SplineSet
295 170 m 1
 262 26 l 1
 168 26 l 1
 201 170 l 1
 79 170 l 1
 91 220 l 1
 213 220 l 1
 246 364 l 1
 340 364 l 1
 307 220 l 1
 429 220 l 1
 417 170 l 1
 295 170 l 1
EndSplineSet
Validated: 1
EndChar

StartChar: hyphen
Encoding: 45 45 82
Width: 317
VWidth: 0
Flags: W
HStem: 170 50<91 316>
VStem: 79 249
LayerCount: 2
Fore
SplineSet
91 220 m 1
 328 220 l 1
 316 170 l 1
 79 170 l 1
 91 220 l 1
EndSplineSet
Validated: 1
EndChar

StartChar: less
Encoding: 60 60 83
Width: 448
VWidth: 0
Flags: W
HStem: 420 20G<421.89 464.286>
LayerCount: 2
Fore
SplineSet
109 231 m 1
 455 440 l 1
 481 384 l 1
 226 231 l 1
 410 79 l 1
 358 23 l 1
 109 231 l 1
EndSplineSet
Validated: 1
EndChar

StartChar: greater
Encoding: 62 62 84
Width: 448
VWidth: 0
Flags: W
HStem: 420 20G<178.429 220.942>
LayerCount: 2
Fore
SplineSet
446 232 m 1
 100 23 l 1
 74 79 l 1
 329 232 l 1
 145 384 l 1
 197 440 l 1
 446 232 l 1
EndSplineSet
Validated: 1
EndChar

StartChar: equal
Encoding: 61 61 85
Width: 346
VWidth: 0
Flags: W
HStem: 170 50<91 345> 280 50<116 371>
VStem: 79 303
LayerCount: 2
Fore
SplineSet
116 330 m 1
 382 330 l 1
 371 280 l 1
 105 280 l 1
 116 330 l 1
91 220 m 1
 357 220 l 1
 345 170 l 1
 79 170 l 1
 91 220 l 1
EndSplineSet
Validated: 1
EndChar

StartChar: at
Encoding: 64 64 86
Width: 727
VWidth: 0
Flags: W
HStem: -10 50<318.319 529.712> 128 50<499 578.461> 136 32<372.231 446.681> 420 32<424.402 483.144> 550 50<408.21 571.032>
VStem: 91 125<139.971 342.935> 291 69<174.562 340.795> 446 69<178.666 309.339> 484 69<292.359 419.82> 631 125<308.628 487.52>
LayerCount: 2
Fore
SplineSet
553 386 m 0xbec0
 553 354 515 246 515 203 c 0
 515 183 522 178 533 178 c 0
 606 178 631 306 631 406 c 0
 631 499 566 550 505 550 c 0
 332 550 216 380 216 231 c 0
 216 96 324 40 406 40 c 0
 483 40 591 72 641 129 c 1
 694 102 l 1
 629 38 546 -10 380 -10 c 0
 234 -10 91 67 91 228 c 0
 91 443 305 600 502 600 c 0
 657 600 756 529 756 410 c 0
 756 288 652 128 507 128 c 0xdf40
 491 128 471 133 458 151 c 1
 439 141 416 136 387 136 c 0
 322 136 291 182 291 247 c 0
 291 373 392 452 464 452 c 0
 510 452 553 434 553 386 c 0xbec0
467 420 m 0
 392 420 360 298 360 235 c 0
 360 196 372 168 404 168 c 0
 424 168 436 171 447 179 c 1
 446 186 446 193 446 201 c 0xbf40
 446 257 484 353 484 394 c 0xbec0
 484 409 480 420 467 420 c 0
EndSplineSet
Validated: 1
EndChar

StartChar: bracketleft
Encoding: 91 91 87
Width: 256
VWidth: 0
Flags: W
HStem: 0 40<154 211> 620 40<288 354>
VStem: 45 318
LayerCount: 2
Fore
SplineSet
211 0 m 1
 45 0 l 1
 197 660 l 1
 363 660 l 1
 354 620 l 1
 288 620 l 1
 154 40 l 1
 220 40 l 1
 211 0 l 1
EndSplineSet
Validated: 1
EndChar

StartChar: bracketright
Encoding: 93 93 88
Width: 256
VWidth: 0
Flags: W
HStem: 0 40<54 120> 620 40<197 254>
VStem: 45 318
LayerCount: 2
Fore
SplineSet
197 660 m 1
 363 660 l 1
 211 0 l 1
 45 0 l 1
 54 40 l 1
 120 40 l 1
 254 620 l 1
 188 620 l 1
 197 660 l 1
EndSplineSet
Validated: 1
EndChar

StartChar: underscore
Encoding: 95 95 89
Width: 338
VWidth: 0
Flags: W
HStem: -90 50<-9 317>
LayerCount: 2
Fore
SplineSet
-9 -40 m 1
 329 -40 l 1
 317 -90 l 1
 -21 -90 l 1
 -9 -40 l 1
EndSplineSet
Validated: 1
EndChar

StartChar: braceleft
Encoding: 123 123 90
Width: 279
VWidth: 0
Flags: W
HStem: 0 21G<150.5 239> 680 20G<254.5 401>
VStem: 122 92<23.1227 176.157> 145 108<160.406 337.23>
LayerCount: 2
Fore
SplineSet
253 273 m 0xd0
 253 210 214 127 214 64 c 0
 214 38 221 16 239 0 c 1
 169 0 l 1
 132 24 122 60 122 101 c 0xe0
 122 161 145 230 145 284 c 0
 145 311 139 334 121 350 c 1
 231 419 178 623 331 700 c 1
 401 700 l 1
 282 625 357 422 216 350 c 1
 244 332 253 304 253 273 c 0xd0
EndSplineSet
Validated: 1
EndChar

StartChar: braceright
Encoding: 125 125 91
Width: 279
VWidth: 0
Flags: W
HStem: 0 21G<40 186.5> 680 20G<202 290>
VStem: 187 109<364.195 539.594> 226 93<523.843 676.166>
LayerCount: 2
Fore
SplineSet
187 427 m 0xe0
 187 490 226 573 226 636 c 0
 226 662 220 684 202 700 c 1
 272 700 l 1
 308 676 319 640 319 599 c 0xd0
 319 539 296 470 296 416 c 0
 296 389 302 366 320 350 c 1
 210 281 263 77 110 0 c 1
 40 0 l 1
 159 75 84 278 225 350 c 1
 197 368 187 396 187 427 c 0xe0
EndSplineSet
Validated: 1
EndChar

StartChar: gravecomb
Encoding: 768 768 92
Width: 0
VWidth: 0
Flags: W
HStem: 610 197
VStem: -182 156
AnchorPoint: "top" -88 580 mark 0
LayerCount: 2
Fore
SplineSet
-95 807 m 25
 -26 636 l 25
 -63 610 l 25
 -182 747 l 25
 -95 807 l 25
EndSplineSet
Validated: 1
EndChar

StartChar: acutecomb
Encoding: 769 769 93
Width: 0
VWidth: 0
Flags: W
HStem: 610 197
VStem: -189 206
AnchorPoint: "top" -153 580 mark 0
LayerCount: 2
Fore
SplineSet
-42 807 m 25
 17 747 l 25
 -164 610 l 25
 -189 636 l 25
 -42 807 l 25
EndSplineSet
Validated: 1
EndChar

StartChar: uni0302
Encoding: 770 770 94
Width: 0
VWidth: 0
Flags: W
HStem: 614 146
VStem: -269 269
AnchorPoint: "top" -153 580 mark 0
LayerCount: 2
Fore
SplineSet
-0 658 m 1
 -55 614 l 1
 -124 700 l 1
 -234 614 l 1
 -269 658 l 1
 -111 760 l 1
 -0 658 l 1
EndSplineSet
Validated: 1
EndChar

StartChar: tildecomb
Encoding: 771 771 95
Width: 0
VWidth: 0
Flags: W
HStem: 620 69<-122.23 -35.5798> 652 69<-219.081 -132.533>
VStem: -277 299
AnchorPoint: "top" -153 580 mark 0
LayerCount: 2
Fore
SplineSet
-19 721 m 1x60
 22 721 l 1x60
 5 671 -41 620 -99 620 c 0xa0
 -133 620 -154 652 -176 652 c 0x60
 -206 652 -228 642 -236 620 c 1
 -277 620 l 1xa0
 -259 670 -214 721 -156 721 c 0x60
 -122 721 -100 689 -78 689 c 0xa0
 -48 689 -27 699 -19 721 c 1x60
EndSplineSet
Validated: 1
EndChar

StartChar: uni0304
Encoding: 772 772 96
Width: 0
VWidth: 0
Flags: W
HStem: 620 56<-251 -34>
VStem: -264 243
AnchorPoint: "top" -153 580 mark 0
LayerCount: 2
Fore
SplineSet
-251 676 m 1
 -21 676 l 1
 -34 620 l 1
 -264 620 l 1
 -251 676 l 1
EndSplineSet
Validated: 1
EndChar

StartChar: uni0306
Encoding: 774 774 97
Width: 0
VWidth: 0
Flags: W
HStem: 620 67<-181.971 -70.5738>
VStem: -236 43<700.85 713>
AnchorPoint: "top" -153 580 mark 0
LayerCount: 2
Fore
SplineSet
-128 687 m 0
 -91 687 -51 711 -43 733 c 1
 -9 713 l 1
 -27 663 -86 620 -144 620 c 0
 -198 620 -236 657 -236 703 c 0
 -236 706 -235 710 -235 713 c 1
 -193 733 l 1
 -193 731 l 2
 -193 710 -164 687 -128 687 c 0
EndSplineSet
Validated: 1
EndChar

StartChar: uni0307
Encoding: 775 775 98
Width: 0
VWidth: 0
Flags: W
HStem: 620 83<-168 -104>
VStem: -187 102
AnchorPoint: "top" -153 580 mark 0
LayerCount: 2
Fore
SplineSet
-168 703 m 1
 -85 703 l 1
 -104 620 l 1
 -187 620 l 1
 -168 703 l 1
EndSplineSet
Validated: 1
EndChar

StartChar: uni030A
Encoding: 778 778 100
Width: 0
VWidth: 0
Flags: W
HStem: 570 35<-176.089 -109.838> 687 35<-165.974 -99.4513>
VStem: -216 36<608.123 673.654> -96 36<618.346 683.877>
AnchorPoint: "top" -153 580 mark 0
LayerCount: 2
Fore
SplineSet
-128 687 m 0
 -152 687 -180 666 -180 637 c 0
 -180 619 -167 605 -147 605 c 0
 -124 605 -96 626 -96 655 c 0
 -96 673 -109 687 -128 687 c 0
-216 629 m 0
 -216 681 -165 722 -120 722 c 0
 -84 722 -60 697 -60 663 c 0
 -60 611 -111 570 -155 570 c 0
 -191 570 -216 595 -216 629 c 0
EndSplineSet
Validated: 1
EndChar

StartChar: uni030C
Encoding: 780 780 102
Width: 0
VWidth: 0
Flags: W
HStem: 556 189
VStem: -238 234
AnchorPoint: "top" -153 580 mark 0
LayerCount: 2
Fore
SplineSet
-159 556 m 1
 -238 719 l 1
 -201 745 l 1
 -135 657 l 1
 -29 745 l 1
 -4 719 l 1
 -159 556 l 1
EndSplineSet
Validated: 1
EndChar

StartChar: uni0311
Encoding: 785 785 104
Width: 0
VWidth: 0
Flags: W
HStem: 656 67<-193.426 -82.0294>
VStem: -71 43<630.141 643.288>
AnchorPoint: "top" -153 580 mark 0
LayerCount: 2
Fore
SplineSet
-136 656 m 0
 -173 656 -213 632 -221 610 c 1
 -255 630 l 1
 -237 680 -178 723 -120 723 c 0
 -66 723 -28 685 -28 639 c 0
 -28 636 -28 633 -29 630 c 1
 -71 610 l 1
 -71 612 l 2
 -71 633 -100 656 -136 656 c 0
EndSplineSet
Validated: 1
EndChar

StartChar: uni0312
Encoding: 786 786 105
Width: 0
VWidth: 0
Flags: W
HStem: 620 179<-117.048 -102.086>
VStem: -191 88<620 655.484>
AnchorPoint: "top" -153 580 mark 0
LayerCount: 2
Fore
SplineSet
-59 799 m 1
 -98 756 -102 720 -102 706 c 0
 -102 691 -99 675 -99 656 c 0
 -99 645 -100 633 -103 620 c 1
 -191 620 l 1
 -161 750 -133 772 -112 799 c 1
 -59 799 l 1
EndSplineSet
Validated: 1
EndChar

StartChar: uni0313
Encoding: 787 787 106
Width: 0
VWidth: 0
Flags: W
HStem: 620 179<-130.914 -115.952>
VStem: -130 88<763.516 799>
AnchorPoint: "top" -153 580 mark 0
LayerCount: 2
Fore
SplineSet
-174 620 m 1
 -134 663 -131 699 -131 713 c 0
 -131 728 -134 744 -134 763 c 0
 -134 774 -133 786 -130 799 c 1
 -42 799 l 1
 -72 669 -100 647 -121 620 c 1
 -174 620 l 1
EndSplineSet
Validated: 1
EndChar

StartChar: uni0314
Encoding: 788 788 107
Width: 0
VWidth: 0
Flags: W
HStem: 620 179<-171.476 -128>
VStem: -183 55<620.749 734.015>
AnchorPoint: "top" -153 580 mark 0
LayerCount: 2
Fore
SplineSet
-79 799 m 1
 -92 739 -128 720 -128 665 c 0
 -128 650 -124 636 -117 620 c 1
 -170 620 l 1
 -175 636 -183 650 -183 685 c 0
 -183 709 -179 745 -167 799 c 1
 -79 799 l 1
EndSplineSet
Validated: 1
EndChar

StartChar: uni0326
Encoding: 806 806 108
Width: 0
VWidth: 0
Flags: W
HStem: -196 24<-404 -329.471> -80 28<-340 -308.499>
VStem: -299 78<-152.633 -86.0278>
AnchorPoint: "cedilla" -288 0 mark 0
LayerCount: 2
Fore
SplineSet
-404 -172 m 17
 -355 -172 -299 -164 -299 -114 c 0
 -299 -94 -313 -85 -346 -80 c 1
 -340 -52 l 17
 -269 -52 -221 -78 -221 -113 c 0
 -221 -146 -268 -196 -409 -196 c 1
 -404 -172 l 17
EndSplineSet
Validated: 1
EndChar

StartChar: uni0327
Encoding: 807 807 109
Width: 0
VWidth: 0
Flags: W
HStem: -196 24<-404 -332.022> -20 20G<-330 -254>
VStem: -299 79<-152.587 -86.91>
AnchorPoint: "cedilla" -288 0 mark 0
LayerCount: 2
Fore
SplineSet
-404 -172 m 1
 -311 -172 -299 -138 -299 -115 c 0
 -299 -94 -316 -83 -354 -80 c 1
 -322 0 l 1
 -254 0 l 1
 -274 -55 l 1
 -243 -62 -220 -79 -220 -108 c 0
 -220 -170 -316 -196 -409 -196 c 1
 -404 -172 l 1
EndSplineSet
Validated: 1
EndChar

StartChar: uni0328
Encoding: 808 808 110
Width: 0
VWidth: 0
Flags: W
HStem: -156 18<-284.748 -246>
VStem: -378 74<-130.272 -50.9787>
AnchorPoint: "ogonek" -236 0 mark 0
LayerCount: 2
Fore
SplineSet
-233 12 m 9
 -236 0 l 1
 -254 -8 -304 -44 -304 -94 c 0
 -304 -116 -292 -138 -242 -138 c 9
 -246 -156 l 1
 -348 -156 -378 -126 -378 -99 c 0
 -378 -77 -363 -23 -233 12 c 9
EndSplineSet
Validated: 1
EndChar

StartChar: uni0237
Encoding: 567 567 111
Width: 214
VWidth: 0
Flags: W
HStem: -170 50<-97.7988 6.52832> 420 20G<137.364 267>
AnchorPoint: "top" 215 490 basechar 0
LayerCount: 2
Fore
SplineSet
-74 -95 m 1
 -65 -115 -46 -120 -27 -120 c 0
 6 -120 21 -82 40 0 c 2
 142 440 l 1
 267 440 l 1
 157 -33 l 2
 135 -132 17 -170 -53 -170 c 0
 -91 -170 -125 -156 -144 -125 c 1
 -74 -95 l 1
EndSplineSet
Validated: 1
EndChar

StartChar: dotlessi
Encoding: 305 305 112
Width: 280
VWidth: 0
Flags: W
HStem: -10 50<148.789 250.536> 420 20G<142.298 271>
VStem: 65 124<40.3643 177.695> 254 34<46.9489 64>
AnchorPoint: "top" 223 490 basechar 0
LayerCount: 2
Fore
SplineSet
200 135 m 6
 194 110 189 87 189 70 c 4
 189 52 195 40 216 40 c 4
 233 40 249 54 254 64 c 13
 288 64 l 21
 279 27 234 -10 191 -10 c 4
 108 -10 65 29 65 80 c 4
 65 88 66 96 68 104 c 14
 147 440 l 5
 271 440 l 5
 200 135 l 6
EndSplineSet
Validated: 1
EndChar

StartChar: Thorn
Encoding: 222 222 163
Width: 474
VWidth: 0
Flags: W
HStem: 0 21G<45 179.625> 160 50<223 333.305> 490 50<300 393.255> 680 20G<202.371 337>
VStem: 423 130<304.216 460.779>
LayerCount: 2
Fore
SplineSet
553 391 m 0
 553 292 459 160 287 160 c 2
 212 160 l 1
 175 0 l 1
 45 0 l 1
 207 700 l 1
 337 700 l 1
 300 540 l 1
 375 540 l 2
 509 540 553 463 553 391 c 0
268 210 m 2
 361 210 423 309 423 391 c 0
 423 441 400 490 333 490 c 2
 288 490 l 1
 223 210 l 1
 268 210 l 2
EndSplineSet
Validated: 1
EndChar

StartChar: thorn
Encoding: 254 254 164
Width: 491
VWidth: 0
Flags: W
HStem: -8 50<216.362 310.701> 402 50<281.087 386.499> 620 50<111.147 216>
VStem: 74 34<596 614.89> 170 127<478.656 618.973> 397 118<189.573 371.255>
LayerCount: 2
Fore
SplineSet
515 281 m 0
 515 129 375 -8 233 -8 c 0
 207 -8 185 -4 166 4 c 1
 119 -200 l 1
 -6 -200 l 1
 161 525 l 2
 166 547 170 568 170 584 c 0
 170 606 163 620 145 620 c 0
 129 620 116 613 108 596 c 1
 74 596 l 1
 82 633 128 670 171 670 c 0
 261 670 297 633 297 584 c 0
 297 575 296 566 293 556 c 2
 267 442 l 1
 293 449 320 452 349 452 c 0
 454 452 515 378 515 281 c 0
260 42 m 0
 370 42 397 287 397 325 c 0
 397 369 386 402 353 402 c 0
 262 402 243 340 222 246 c 0
 212 205 203 159 203 122 c 0
 203 76 217 42 260 42 c 0
EndSplineSet
Validated: 1
EndChar

StartChar: multiply
Encoding: 215 215 165
Width: 418
VWidth: 0
Flags: W
HStem: 112 274
VStem: 106 321
LayerCount: 2
Fore
SplineSet
301 249 m 1
 380 147 l 1
 337 112 l 1
 258 214 l 1
 133 112 l 1
 106 147 l 1
 231 249 l 1
 153 351 l 1
 196 386 l 1
 275 284 l 1
 400 386 l 1
 427 351 l 1
 301 249 l 1
EndSplineSet
Validated: 1
EndChar

StartChar: Oslash
Encoding: 216 216 166
Width: 669
VWidth: 0
UnlinkRmOvrlpSave: 1
Flags: W
HStem: -10 50<279.557 412.33> 0 21G<141 243> 660 50<401.743 546.113> 680 20G<581 685>
VStem: 97 126<143.329 365.089> 603 125<341.964 559.143>
LayerCount: 2
Fore
SplineSet
473 660 m 0x2c
 313 660 223 365 223 213 c 0
 223 186 226 162 231 142 c 1
 547 639 l 1
 527 653 502 660 473 660 c 0x2c
339 40 m 0x8c
 521 40 603 354 603 493 c 0
 603 518 600 541 595 560 c 1
 279 61 l 1
 297 47 317 40 339 40 c 0x8c
581 693 m 1
 586 700 l 1
 685 700 l 1
 653 651 l 1
 699 611 728 549 728 463 c 0
 728 273 599 -10 322 -10 c 0x9c
 295 -10 268 -6 243 4 c 1
 240 0 l 1
 141 0 l 1
 171 47 l 1
 127 88 97 151 97 238 c 0
 97 462 262 710 479 710 c 0x6c
 515 710 550 705 581 693 c 1
EndSplineSet
EndChar

StartChar: oslash
Encoding: 248 248 167
Width: 495
VWidth: 0
Flags: W
HStem: -10 50<220.266 311.023> 400 50<285.469 376.311>
VStem: 72 119<100.659 246.526> 401 118<185.806 334.902>
LayerCount: 2
Fore
SplineSet
519 290 m 0
 519 185 451 -10 234 -10 c 0
 216 -10 200 -8 185 -5 c 1
 156 -50 l 1
 97 -50 l 1
 137 13 l 1
 94 39 72 85 72 146 c 0
 72 322 217 450 340 450 c 0
 365 450 388 447 409 441 c 1
 440 490 l 1
 499 490 l 1
 455 421 l 1
 496 395 519 351 519 290 c 0
192 100 m 1
 377 391 l 1
 369 397 357 400 343 400 c 0
 221 400 191 166 191 118 c 0
 191 112 192 106 192 100 c 1
220 50 m 1
 230 43 243 40 260 40 c 0
 380 40 401 299 401 323 c 0
 401 327 401 331 400 335 c 1
 220 50 l 1
EndSplineSet
Validated: 1
EndChar

StartChar: AE
Encoding: 198 198 168
Width: 726
VWidth: 0
Flags: W
HStem: 0 50<438 716> 200 50<279 342> 390 50<528 700> 650 50<576 850>
AnchorPoint: "top" 536 700 basechar 0
LayerCount: 2
Fore
SplineSet
15 0 m 1
 432 700 l 1
 862 700 l 1
 850 650 l 1
 576 650 l 1
 528 440 l 1
 712 440 l 1
 700 390 l 1
 516 390 l 1
 438 50 l 1
 728 50 l 1
 716 0 l 1
 296 0 l 1
 342 200 l 1
 249 200 l 1
 130 0 l 1
 15 0 l 1
279 250 m 1
 354 250 l 1
 401 456 l 1
 279 250 l 1
EndSplineSet
Validated: 1
EndChar

StartChar: ae
Encoding: 230 230 169
Width: 722
VWidth: 0
Flags: W
HStem: -10 50<197.376 292.308 465.081 595.412> 220 50<470 636.722> 254 50<238.063 339> 400 50<240.328 345.917 531.667 632.426>
VStem: 62 125<49.4805 193.272> 641 114<270.62 372.379>
AnchorPoint: "top" 484 490 basechar 0
LayerCount: 2
Fore
SplineSet
62 103 m 0xdc
 62 201 131 304 287 304 c 0xbc
 308 304 329 303 347 301 c 1
 350 319 351 333 351 346 c 0
 351 385 338 400 308 400 c 0
 273 400 242 386 209 353 c 1
 137 405 l 1
 188 429 250 450 305 450 c 0
 390 450 438 439 460 405 c 1
 502 434 549 450 591 450 c 0
 705 450 755 369 755 279 c 0
 755 260 752 240 748 220 c 1
 457 220 l 1
 449 185 444 154 444 128 c 0
 444 72 467 40 531 40 c 0
 582 40 605 63 620 100 c 1
 710 77 l 1
 658 26 587 -10 505 -10 c 0
 453 -10 409 5 378 31 c 1
 263 -6 262 -10 215 -10 c 0
 125 -10 62 20 62 103 c 0xdc
470 270 m 1xdc
 633 270 l 1
 638 296 641 319 641 339 c 0
 641 376 630 400 594 400 c 0
 531 400 495 351 470 270 c 1xdc
291 254 m 0xbc
 208 254 187 143 187 103 c 0
 187 63 204 40 241 40 c 0
 261 40 277 43 292 48 c 1
 339 251 l 1
 323 253 308 254 291 254 c 0xbc
EndSplineSet
Validated: 1
EndChar

StartChar: eth
Encoding: 240 240 170
Width: 492
VWidth: 0
Flags: W
HStem: -10 50<226.912 315.137> 400 50<296.118 384.313>
VStem: 84 123<70.0919 266.277> 394 126<187.167 393.017>
LayerCount: 2
Fore
SplineSet
84 161 m 0
 84 272 171 450 346 450 c 0
 367 450 387 447 406 442 c 1
 402 484 390 519 371 550 c 1
 314 510 l 1
 297 537 l 1
 352 576 l 1
 337 594 320 611 299 628 c 1
 360 674 l 1
 378 657 395 638 412 618 c 1
 471 660 l 1
 488 632 l 1
 432 592 l 1
 486 517 520 430 520 328 c 0
 520 122 404 -10 240 -10 c 0
 144 -10 84 64 84 161 c 0
349 400 m 0
 253 400 207 228 207 145 c 0
 207 87 225 40 266 40 c 0
 372 40 394 256 394 323 c 0
 394 378 378 400 349 400 c 0
EndSplineSet
Validated: 1
EndChar

StartChar: Eth
Encoding: 208 208 173
Width: 594
VWidth: 0
UnlinkRmOvrlpSave: 1
Flags: W
HStem: 0 50<187 336.707> 390 50<111 135 277 336> 650 50<325 471.845>
VStem: 520 129<350.484 598.965>
LayerCount: 2
Fore
SplineSet
649 498 m 0
 649 377 577 0 287 0 c 2
 45 0 l 1
 135 390 l 1
 99 390 l 1
 111 440 l 1
 147 440 l 1
 207 700 l 1
 449 700 l 2
 574 700 649 640 649 498 c 0
265 390 m 1
 187 50 l 1
 269 50 l 2
 443 50 520 380 520 500 c 0
 520 611 470 650 407 650 c 2
 325 650 l 1
 277 440 l 1
 348 440 l 1
 336 390 l 1
 265 390 l 1
EndSplineSet
EndChar

StartChar: germandbls
Encoding: 223 223 174
Width: 501
VWidth: 0
Flags: W
HStem: -135 50<-38.2938 19.6467> 390 50<272 393> 620 50<334.069 429.144>
VStem: -75 36<-82.8995 -61> 351 117<15.3159 143.972>
LayerCount: 2
Fore
SplineSet
207 -74 m 1
 207 -74 351 -28 351 71 c 0
 351 151 258 234 258 234 c 1
 393 390 l 1
 260 390 l 1
 165 -21 l 18
 151 -84 96 -135 -10 -135 c 0
 -48 -135 -75 -106 -75 -74 c 0
 -75 -70 -74 -65 -73 -61 c 9
 -39 -61 l 17
 -39 -78 -29 -85 -13 -85 c 0
 19 -85 35 -42 47 10 c 2
 142 422 l 2
 189 622 223 670 400 670 c 0
 455 670 482 649 522 625 c 1
 460 573 l 1
 422 605 408 620 373 620 c 0
 337 620 302 572 272 440 c 1
 541 440 l 1
 373 245 l 1
 412 217 468 165 468 87 c 0
 468 -67 228 -110 223 -114 c 1
 207 -74 l 1
EndSplineSet
Validated: 1
EndChar

StartChar: Lslash
Encoding: 321 321 224
Width: 514
VWidth: 0
UnlinkRmOvrlpSave: 1
Flags: W
HStem: 0 50<182 460> 680 20G<197.395 332>
LayerCount: 2
Fore
SplineSet
182 50 m 1
 472 50 l 1
 460 0 l 1
 40 0 l 1
 120 345 l 1
 85 327 l 1
 63 372 l 1
 135 409 l 1
 202 700 l 1
 332 700 l 1
 282 484 l 1
 320 503 l 1
 342 458 l 1
 267 420 l 1
 182 50 l 1
EndSplineSet
EndChar

StartChar: lslash
Encoding: 322 322 225
Width: 281
VWidth: 0
UnlinkRmOvrlpSave: 1
Flags: W
HStem: -10 50<147 251.65>
VStem: 66 126<41.0266 183.859> 255 34<45.2679 64>
LayerCount: 2
Fore
SplineSet
197 660 m 1
 322 660 l 1
 281 483 l 1
 320 503 l 1
 342 458 l 1
 267 420 l 1
 201 135 l 2
 196 113 192 92 192 76 c 0
 192 54 199 40 217 40 c 0
 233 40 247 47 255 64 c 1
 289 64 l 1
 280 27 235 -10 192 -10 c 0
 102 -10 66 27 66 76 c 0
 66 85 67 94 69 104 c 2
 125 347 l 1
 85 327 l 1
 63 372 l 1
 140 411 l 1
 197 660 l 1
EndSplineSet
EndChar

StartChar: dcroat
Encoding: 273 273 226
Width: 558
VWidth: 0
UnlinkRmOvrlpSave: 1
Flags: W
HStem: -10 50<205.405 308.016 466.755 528.536> 400 50<285.24 377.974> 530 50<380 444 581 605>
VStem: 74 116<63.2422 244.044> 532 34<46.9489 64>
LayerCount: 2
Fore
SplineSet
256 40 m 0
 375 40 388 315 388 328 c 0
 388 370 376 400 339 400 c 0
 206 400 190 118 190 118 c 0
 190 73 206 40 256 40 c 0
478 135 m 2
 472 110 466 87 466 70 c 0
 466 52 473 40 494 40 c 0
 511 40 527 54 532 64 c 1
 566 64 l 1
 557 27 512 -10 469 -10 c 0
 423 -10 390 2 369 21 c 1
 328 -1 281 -10 230 -10 c 0
 121 -10 74 65 74 155 c 0
 74 287 176 450 336 450 c 0
 369 450 397 443 421 431 c 1
 444 530 l 1
 368 530 l 1
 380 580 l 1
 455 580 l 1
 474 660 l 1
 599 660 l 1
 581 580 l 1
 617 580 l 1
 605 530 l 1
 569 530 l 1
 478 135 l 2
EndSplineSet
EndChar

StartChar: Hbar
Encoding: 294 294 246
Width: 581
VWidth: 0
UnlinkRmOvrlpSave: 1
Flags: W
HStem: 0 21G<40 174.629 402 536.629> 350 50<262 483> 566 50<142 171 312 533 675 703> 680 20G<197.476 332 559.238 694>
LayerCount: 2
Fore
SplineSet
171 566 m 1
 131 566 l 1
 142 616 l 1
 183 616 l 1
 202 700 l 1
 332 700 l 1
 312 616 l 1
 544 616 l 1
 564 700 l 1
 694 700 l 1
 675 616 l 1
 714 616 l 1
 703 566 l 1
 663 566 l 1
 532 0 l 1
 402 0 l 1
 483 350 l 1
 251 350 l 1
 170 0 l 1
 40 0 l 1
 171 566 l 1
533 566 m 1
 301 566 l 1
 262 400 l 1
 494 400 l 1
 533 566 l 1
EndSplineSet
EndChar

StartChar: hbar
Encoding: 295 295 247
Width: 475
VWidth: 0
UnlinkRmOvrlpSave: 1
Flags: W
HStem: 0 21G<40 169.648 306 435.583> 400 50<267.771 366.788> 530 50<140 162 297 365> 620 50<111.147 216>
VStem: 74 34<596 614.89> 375 121<202.781 392.471>
LayerCount: 2
Fore
SplineSet
128 530 m 5
 140 580 l 5
 170 580 l 1
 170 581 170 583 170 584 c 0
 170 606 163 620 145 620 c 0
 129 620 116 613 108 596 c 1
 74 596 l 1
 82 633 128 670 171 670 c 0
 261 670 297 633 297 584 c 0
 297 583 297 581 297 580 c 1
 377 580 l 5
 365 530 l 5
 287 530 l 1
 267 443 l 1
 287 447 306 450 326 450 c 0
 439 450 496 405 496 313 c 0
 496 291 493 267 486 240 c 2
 431 0 l 1
 306 0 l 1
 359 228 l 2
 370 277 375 313 375 338 c 0
 375 386 357 400 329 400 c 0
 303 400 278 394 254 383 c 1
 165 0 l 1
 40 0 l 1
 162 530 l 1
 128 530 l 5
EndSplineSet
EndChar

StartChar: kgreenlandic
Encoding: 312 312 305
Width: 448
VWidth: 0
Flags: W
HStem: 0 21G<40 169.641 296.84 414> 420 20G<137.364 267 363.612 498>
LayerCount: 2
Fore
SplineSet
236 306 m 1
 386 440 l 1
 498 440 l 1
 279 245 l 1
 414 0 l 1
 308 0 l 1
 207 181 l 1
 165 0 l 1
 40 0 l 1
 142 440 l 1
 267 440 l 1
 236 306 l 1
EndSplineSet
Validated: 1
EndChar

StartChar: Tbar
Encoding: 358 358 306
Width: 585
VWidth: 0
UnlinkRmOvrlpSave: 1
Flags: W
HStem: 0 21G<238 372.636> 440 50<277 340 481 542> 650 50<172 388 518 745>
LayerCount: 2
Fore
SplineSet
265 440 m 1
 277 490 l 1
 351 490 l 1
 388 650 l 1
 160 650 l 1
 172 700 l 1
 759 700 l 1
 745 650 l 1
 518 650 l 1
 481 490 l 1
 554 490 l 1
 542 440 l 1
 470 440 l 1
 368 0 l 1
 238 0 l 1
 340 440 l 1
 265 440 l 1
EndSplineSet
EndChar

StartChar: tbar
Encoding: 359 359 307
Width: 327
VWidth: 0
UnlinkRmOvrlpSave: 1
Flags: W
HStem: -10 50<193 297.65> 244 50<94 147 284 359> 390 50<142 181 318 385>
VStem: 112 126<41.0266 185.516> 301 34<45.2679 64>
LayerCount: 2
Fore
SplineSet
82 244 m 1
 94 294 l 1
 159 294 l 1
 181 390 l 1
 115 390 l 1
 142 440 l 1
 193 440 l 1
 226 585 l 1
 355 600 l 1
 318 440 l 1
 397 440 l 1
 385 390 l 1
 306 390 l 1
 284 294 l 1
 371 294 l 1
 359 244 l 1
 272 244 l 1
 247 135 l 2
 242 113 238 92 238 76 c 0
 238 54 245 40 263 40 c 0
 279 40 293 47 301 64 c 1
 335 64 l 1
 326 27 281 -10 238 -10 c 0
 148 -10 112 27 112 76 c 0
 112 85 113 94 115 104 c 2
 147 244 l 1
 82 244 l 1
EndSplineSet
EndChar

StartChar: Eng
Encoding: 330 330 308
Width: 681
VWidth: 0
Flags: W
HStem: -10 50<349.459 455.037> 0 21G<72 206.621> 620 50<404.494 571.057>
VStem: 600 129<395.828 581.417>
LayerCount: 2
Fore
SplineSet
683 288 m 2x70
 637 88 543 -10 387 -10 c 0
 332 -10 298 0 266 35 c 1
 328 87 l 1
 348 54 378 40 413 40 c 0xb0
 469 40 524 158 554 290 c 2
 590 448 l 2
 597 477 600 502 600 522 c 0
 600 600 555 620 500 620 c 0
 428 620 370 583 330 554 c 1
 202 0 l 1
 72 0 l 1
 224 660 l 1
 354 660 l 1
 347 626 l 1
 382 642 424 670 497 670 c 0
 621 670 729 616 729 505 c 0
 729 491 727 476 723 460 c 2
 683 288 l 2x70
EndSplineSet
Validated: 1
EndChar

StartChar: eng
Encoding: 331 331 309
Width: 473
VWidth: 0
Flags: W
HStem: -170 50<168.201 273.163> 0 21G<40 169.643> 400 50<60.147 145.5 250.634 367.674>
VStem: 23 34<376 394.89> 119 127<257.297 380.99> 376 120<208.383 392.404>
LayerCount: 2
Fore
SplineSet
423 -33 m 2
 401 -132 283 -170 213 -170 c 0
 175 -170 141 -156 122 -125 c 1
 192 -95 l 1
 201 -115 220 -120 239 -120 c 0
 275 -120 287 -82 306 0 c 2
 359 228 l 2
 370 279 376 316 376 342 c 0
 376 387 359 400 329 400 c 0
 293 400 266 388 245 375 c 1
 246 372 246 368 246 364 c 0
 246 355 245 346 243 336 c 2
 165 0 l 1
 40 0 l 1
 110 305 l 2
 116 327 119 348 119 364 c 0
 119 386 113 400 94 400 c 0
 78 400 65 393 57 376 c 1
 23 376 l 1
 31 413 77 450 120 450 c 0
 171 450 204 438 224 419 c 1
 244 430 279 450 326 450 c 0
 439 450 496 405 496 313 c 0
 496 291 493 267 486 240 c 2
 423 -33 l 2
EndSplineSet
Validated: 1
EndChar

StartChar: asciicircum
Encoding: 94 94 310
Width: 448
VWidth: 0
Flags: W
LayerCount: 2
Fore
SplineSet
316 400 m 1
 456 102 l 1
 391 64 l 1
 289 282 l 1
 87 64 l 1
 40 102 l 1
 316 400 l 1
EndSplineSet
Validated: 1
EndChar

StartChar: asciitilde
Encoding: 126 126 311
Width: 406
VWidth: 0
Flags: W
HStem: 195 77<278.786 366.231> 227 77<154.901 242.214>
LayerCount: 2
Fore
SplineSet
395 304 m 1x40
 436 304 l 1x40
 419 254 361 195 303 195 c 0x80
 223 195 231 227 195 227 c 0x40
 165 227 134 217 126 195 c 1
 85 195 l 1x80
 103 245 160 304 218 304 c 0x40
 298 304 290 272 326 272 c 0x80
 356 272 387 282 395 304 c 1x40
EndSplineSet
Validated: 1
EndChar

StartChar: exclamdown
Encoding: 161 161 312
Width: 219
VWidth: 0
Flags: W
HStem: 504 80<190 276>
VStem: 18 277
LayerCount: 2
Fore
SplineSet
276 504 m 1
 171 504 l 1
 190 584 l 1
 295 584 l 1
 276 504 l 1
18 -116 m 17
 153 404 l 9
 248 404 l 25
 143 -116 l 25
 18 -116 l 17
EndSplineSet
Validated: 1
EndChar

StartChar: questiondown
Encoding: 191 191 313
Width: 461
VWidth: 0
Flags: W
HStem: -86 50<190.592 310.971> 299 105<307 383> 504 80<339 425>
VStem: 46 120<-2.42779 178.729>
LayerCount: 2
Fore
SplineSet
425 504 m 1
 320 504 l 1
 339 584 l 1
 444 584 l 1
 425 504 l 1
46 85 m 0
 46 231 163 326 286 346 c 1
 307 404 l 1
 392 404 l 1
 383 299 l 1
 330 299 l 2
 184 299 166 100 166 57 c 0
 166 -1 191 -36 258 -36 c 0
 309 -36 310 -13 342 24 c 1
 431 1 l 1
 379 -50 313 -86 231 -86 c 0
 121 -86 46 -21 46 85 c 0
EndSplineSet
Validated: 1
EndChar

StartChar: cent
Encoding: 162 162 314
Width: 461
VWidth: 0
Flags: W
HStem: 10 50<233.471 259> 380 50<316.282 344.844>
VStem: 69 121<96.5501 258.641> 389 103<307.757 359.511>
LayerCount: 2
Fore
SplineSet
69 164 m 0
 69 276 149 391 275 422 c 1
 291 490 l 1
 330 490 l 1
 316 429 l 1
 322 430 329 430 335 430 c 0
 342 430 349 430 356 429 c 1
 370 490 l 1
 409 490 l 1
 393 422 l 1
 448 404 480 362 492 310 c 1
 389 277 l 1
 387 313 389 343 379 361 c 1
 311 63 l 1
 337 70 344 91 369 120 c 1
 443 97 l 1
 401 55 358 23 299 13 c 1
 284 -50 l 1
 245 -50 l 1
 259 10 l 1
 258 10 l 2
 245 10 233 11 220 12 c 1
 205 -50 l 1
 166 -50 l 1
 182 19 l 1
 113 39 69 87 69 164 c 0
259 349 m 1
 212 304 190 185 190 142 c 0
 190 123 193 107 200 95 c 1
 259 349 l 1
233 68 m 1
 243 64 256 61 271 60 c 1
 345 380 l 1
 343 380 341 380 339 380 c 0
 326 380 314 379 304 376 c 1
 233 68 l 1
EndSplineSet
Validated: 1
EndChar

StartChar: brokenbar
Encoding: 166 166 315
Width: 184
VWidth: 0
Flags: W
HStem: 0 21G<45 139.625> 680 20G<202.375 297>
VStem: 45 252
LayerCount: 2
Fore
SplineSet
297 700 m 25
 223 380 l 25
 133 380 l 25
 207 700 l 25
 297 700 l 25
209 320 m 25
 135 0 l 25
 45 0 l 25
 119 320 l 25
 209 320 l 25
EndSplineSet
Validated: 1
EndChar

StartChar: OE
Encoding: 338 338 316
Width: 904
VWidth: 0
Flags: W
HStem: -10 50<279.005 416.002> 0 50<616 894> 390 50<706 878> 650 50<754 1028> 660 50<401.456 547.374>
VStem: 97 126<122.719 365.575>
LayerCount: 2
Fore
SplineSet
894 0 m 1x74
 474 0 l 1x74
 480 26 l 1
 429 2 375 -10 322 -10 c 0
 210 -10 97 67 97 239 c 0
 97 460 260 710 479 710 c 0xac
 535 710 587 697 629 670 c 1
 636 700 l 1
 1040 700 l 1
 1028 650 l 1
 754 650 l 1
 706 440 l 1
 890 440 l 1
 878 390 l 1
 694 390 l 1
 616 50 l 1
 906 50 l 1
 894 0 l 1x74
473 660 m 0xac
 313 660 223 366 223 215 c 0
 223 92 278 40 339 40 c 0
 400 40 461 79 511 159 c 1
 599 542 l 1
 586 624 539 660 473 660 c 0xac
EndSplineSet
Validated: 1
EndChar

StartChar: oe
Encoding: 339 339 317
Width: 776
VWidth: 0
Flags: W
HStem: -10 50<208.412 315.404 518.876 649.412> 220 50<524 690.722> 400 50<286.186 388.051 586.267 686.426>
VStem: 72 119<57.2972 248.036> 695 114<270.62 372.379>
LayerCount: 2
Fore
SplineSet
524 270 m 1
 687 270 l 1
 692 296 695 319 695 339 c 0
 695 376 684 400 648 400 c 0
 585 400 549 351 524 270 c 1
72 147 m 0
 72 321 217 450 340 450 c 0
 407 450 460 430 491 388 c 1
 539 428 595 450 645 450 c 0
 759 450 809 369 809 279 c 0
 809 260 806 240 802 220 c 1
 511 220 l 1
 503 185 498 154 498 128 c 0
 498 72 521 40 585 40 c 0
 636 40 659 63 674 100 c 1
 764 77 l 1
 712 26 641 -10 559 -10 c 0
 495 -10 444 12 413 51 c 1
 363 10 301 -10 234 -10 c 0
 128 -10 72 49 72 147 c 0
386 220 m 0
 395 260 401 295 401 324 c 0
 401 371 385 400 343 400 c 0
 213 400 191 142 191 120 c 0
 191 69 210 40 260 40 c 0
 330 40 361 114 386 220 c 0
EndSplineSet
Validated: 1
EndChar

StartChar: Euro
Encoding: 8364 8364 318
Width: 588
VWidth: 0
Flags: W
HStem: -10 50<311.434 432.624> 250 50<119 151 279 414> 400 50<154 178 317 448> 650 50<423.564 558.022>
VStem: 151 119<120.487 250> 155 124<300 395.516>
LayerCount: 2
Fore
SplineSet
572 102 m 1xf8
 517 38 431 -10 344 -10 c 0
 257 -10 151 66 151 237 c 2
 151 250 l 1xf8
 93 250 l 1
 119 300 l 1
 155 300 l 1
 162 340 164 351 178 400 c 1
 127 400 l 1
 154 450 l 1
 197 450 l 1
 270 627 403 700 492 700 c 0
 601 700 663 665 686 608 c 1
 585 575 l 1
 569 622 560 650 492 650 c 0
 416 650 361 589 317 450 c 1
 460 450 l 1
 448 400 l 1
 302 400 l 1
 297 380 283 320 279 300 c 1xf4
 425 300 l 1
 414 250 l 1
 273 250 l 1
 271 231 270 213 270 197 c 0
 270 87 312 40 367 40 c 0
 428 40 446 72 489 129 c 1
 572 102 l 1xf8
EndSplineSet
Validated: 1
EndChar

StartChar: yen
Encoding: 165 165 319
Width: 525
VWidth: 0
Flags: W
HStem: 0 21G<198 332.634> 164 50<193 236 377 418> 268 50<217 260 401 442> 680 20G<184 315.597 543.185 648>
AnchorPoint: "top" 424 700 basechar 0
LayerCount: 2
Fore
SplineSet
378 457 m 1
 558 700 l 1
 648 700 l 1
 418 391 l 1
 401 318 l 1
 454 318 l 1
 442 268 l 1
 390 268 l 1
 377 214 l 1
 430 214 l 1
 418 164 l 1
 366 164 l 1
 328 0 l 1
 198 0 l 1
 236 164 l 1
 181 164 l 1
 193 214 l 1
 247 214 l 1
 260 268 l 1
 205 268 l 1
 217 318 l 1
 271 318 l 1
 280 355 l 1
 184 700 l 1
 310 700 l 1
 378 457 l 1
EndSplineSet
Validated: 1
EndChar

StartChar: sterling
Encoding: 163 163 320
Width: 441
VWidth: 0
Flags: W
HStem: 0 50<37 62.7146 169 401> 390 50<272 386> 620 50<330.478 417.538>
LayerCount: 2
Fore
SplineSet
169 50 m 1
 413 50 l 1
 401 0 l 1
 25 0 l 1
 37 50 l 1
 56 50 67 72 77 116 c 2
 140 390 l 1
 115 390 l 1
 142 440 l 1
 152 440 l 1
 195 625 218 670 390 670 c 0
 445 670 482 649 522 625 c 1
 435 573 l 1
 421 604 398 620 363 620 c 0
 323 620 295 543 272 440 c 1
 398 440 l 1
 386 390 l 1
 260 390 l 1
 197 116 l 2
 189 84 179 56 169 50 c 1
EndSplineSet
Validated: 1
EndChar

StartChar: section
Encoding: 167 167 321
Width: 395
VWidth: 0
Flags: W
HStem: -9 50<147.84 233.81> 619 50<313.504 399.207>
VStem: 58 73<56.158 106.959> 134 111<265.867 378.305> 168 111<473.696 573.876> 269 110<86.1238 186.304> 303 110<281.003 393.646> 417 72<553.028 600.633>
LayerCount: 2
Fore
SplineSet
379 158 m 0xe5
 379 67 282 -9 181 -9 c 0
 133 -9 71 9 58 106 c 1
 131 116 l 1
 135 83 143 41 194 41 c 0
 241 41 269 115 269 146 c 0
 269 221 134 191 134 297 c 0xf5
 134 312 138 384 205 436 c 1
 184 450 168 469 168 502 c 0
 168 593 266 669 366 669 c 0
 414 669 476 651 489 554 c 1
 417 544 l 1
 412 577 404 619 353 619 c 0
 306 619 279 545 279 514 c 0
 279 439 413 469 413 363 c 0xeb
 413 348 410 276 343 224 c 1
 363 210 379 191 379 158 c 0xe5
268 264 m 1
 292 288 303 329 303 350 c 0
 303 372 293 386 279 396 c 1xeb
 255 372 245 331 245 310 c 0
 245 288 254 274 268 264 c 1
EndSplineSet
Validated: 1
EndChar

StartChar: copyright
Encoding: 169 169 322
Width: 538
VWidth: 0
Flags: W
HStem: -10 40<218.383 336.32> 94 30<277.172 338.937> 358 30<322.705 378.694> 462 40<309.624 427.617>
VStem: 61 102<88.4318 290.396> 190 82<132.573 285.138> 483 102<205.862 403.568>
LayerCount: 2
Fore
SplineSet
373 462 m 0
 275 462 163 321 163 181 c 0
 163 90 211 30 273 30 c 0
 371 30 483 171 483 311 c 0
 483 402 435 462 373 462 c 0
70 246 m 0
 116 448 288 502 382 502 c 0
 464 502 585 461 585 318 c 0
 585 297 582 273 576 246 c 0
 529 44 358 -10 264 -10 c 0
 182 -10 61 31 61 174 c 0
 61 195 64 219 70 246 c 0
190 201 m 0
 190 293 261 388 351 388 c 0
 414 388 439 372 454 344 c 1
 385 327 l 1
 378 343 382 358 350 358 c 0
 285 358 272 165 272 165 c 0
 272 136 282 124 304 124 c 0
 339 124 343 148 355 161 c 1
 410 146 l 1
 394 130 355 94 291 94 c 0
 244 94 190 127 190 201 c 0
EndSplineSet
Validated: 1
EndChar

StartChar: registered
Encoding: 174 174 323
Width: 538
VWidth: 0
Flags: W
HStem: -10 40<218.383 337.049> 361 30<330 357.503> 462 40<308.796 427.617>
VStem: 61 102<88.4318 288.015> 325 65<101 210.186> 362 68<273.829 359.471> 483 102<203.985 403.568>
LayerCount: 2
Fore
SplineSet
373 462 m 0xf2
 275 462 163 321 163 181 c 0
 163 90 211 30 273 30 c 0
 371 30 483 171 483 311 c 0
 483 402 435 462 373 462 c 0xf2
382 502 m 0
 464 502 585 461 585 318 c 0
 585 139 440 -10 264 -10 c 0
 182 -10 61 31 61 174 c 0
 61 353 205 502 382 502 c 0
430 327 m 0xf6
 430 291 402 252 362 237 c 1xf6
 370 224 390 177 390 131 c 0
 390 121 389 111 386 101 c 1
 321 101 l 1
 324 112 325 123 325 133 c 0xfa
 325 172 310 205 297 218 c 1
 270 101 l 1
 201 101 l 1
 268 391 l 1
 355 391 l 2
 413 391 430 357 430 327 c 0xf6
307 259 m 1
 342 259 362 297 362 325 c 0
 362 344 354 361 330 361 c 1
 307 259 l 1
EndSplineSet
Validated: 1
EndChar

StartChar: ordfeminine
Encoding: 170 170 324
Width: 331
VWidth: 0
Flags: W
HStem: 170 30<81 339> 252 30<159.585 247.579 282 343.703> 458 30<220.819 281.33>
VStem: 112 67<282.636 409.42> 248 73<285.619 341.029> 346 22<283.582 294>
LayerCount: 2
Fore
SplineSet
81 200 m 1
 346 200 l 1
 339 170 l 1
 74 170 l 1
 81 200 l 1
112 335 m 0
 112 410 181 488 244 488 c 0
 321 488 335 476 356 466 c 1
 324 328 l 2
 322 319 321 311 321 305 c 0
 321 290 325 282 329 282 c 0
 333 282 343 283 346 294 c 1
 368 294 l 1
 361 264 308 252 289 252 c 0
 275 252 265 259 257 268 c 1
 233 258 208 252 183 252 c 0
 138 252 112 288 112 335 c 0
245 458 m 0
 210 458 179 367 179 315 c 0
 179 290 188 282 198 282 c 0
 215 282 231 286 248 293 c 1
 247 299 248 306 249 312 c 2
 282 453 l 1
 272 456 262 458 245 458 c 0
EndSplineSet
Validated: 1
EndChar

StartChar: ordmasculine
Encoding: 186 186 325
Width: 303
VWidth: 0
Flags: W
HStem: 170 30<81 307> 252 30<196.764 244.365> 458 30<230.379 278.111>
VStem: 122 69<283.376 413.091> 283 68<326.734 457.624>
LayerCount: 2
Fore
SplineSet
81 200 m 1
 314 200 l 1
 307 170 l 1
 74 170 l 1
 81 200 l 1
220 282 m 0
 258 282 283 369 283 416 c 0
 283 442 275 458 261 458 c 0
 209 458 191 354 191 324 c 0
 191 298 200 282 220 282 c 0
351 406 m 0
 351 352 315 252 205 252 c 0
 151 252 122 283 122 333 c 0
 122 425 200 488 260 488 c 0
 315 488 351 460 351 406 c 0
EndSplineSet
Validated: 1
EndChar

StartChar: guilsinglright
Encoding: 8250 8250 326
Width: 308
VWidth: 0
Flags: W
VStem: 64 245
LayerCount: 2
Fore
SplineSet
235 220 m 1
 138 380 l 1
 185 422 l 1
 309 220 l 1
 92 19 l 1
 64 61 l 1
 235 220 l 1
EndSplineSet
Validated: 1
EndChar

StartChar: guilsinglleft
Encoding: 8249 8249 327
Width: 308
VWidth: 0
Flags: W
VStem: 101 245
LayerCount: 2
Fore
SplineSet
175 221 m 1
 272 61 l 1
 224 19 l 1
 101 221 l 1
 317 422 l 1
 346 380 l 1
 175 221 l 1
EndSplineSet
Validated: 1
EndChar

StartChar: quoteleft
Encoding: 8216 8216 330
Width: 194
VWidth: 0
Flags: W
HStem: 481 179<229.952 248.914>
VStem: 156 92<481 516.484>
LayerCount: 2
Fore
SplineSet
292 660 m 1
 253 617 249 581 249 567 c 0
 249 552 252 536 252 517 c 0
 252 506 251 494 248 481 c 1
 156 481 l 1
 186 611 214 633 235 660 c 1
 292 660 l 1
EndSplineSet
Validated: 1
EndChar

StartChar: quoteright
Encoding: 8217 8217 331
Width: 194
VWidth: 0
Flags: W
HStem: 481 179<199.086 218.048>
VStem: 200 92<624.516 660>
LayerCount: 2
Fore
SplineSet
156 481 m 1
 196 524 199 560 199 574 c 0
 199 589 196 605 196 624 c 0
 196 635 197 647 200 660 c 1
 292 660 l 1
 262 530 234 508 213 481 c 1
 156 481 l 1
EndSplineSet
Validated: 1
EndChar

StartChar: bullet
Encoding: 8226 8226 337
Width: 351
VWidth: 0
Flags: W
HStem: 140 236<182.704 285.651>
VStem: 97 271<216.807 298.531>
LayerCount: 2
Fore
SplineSet
368 285 m 0
 368 207 292 140 201 140 c 0
 144 140 97 175 97 232 c 0
 97 322 203 376 256 376 c 0
 315 376 368 345 368 285 c 0
EndSplineSet
Validated: 1
EndChar

StartChar: endash
Encoding: 8211 8211 338
Width: 392
VWidth: 0
Flags: W
HStem: 170 50<91 391>
VStem: 79 324
LayerCount: 2
Fore
SplineSet
91 220 m 1
 403 220 l 1
 391 170 l 1
 79 170 l 1
 91 220 l 1
EndSplineSet
Validated: 1
EndChar

StartChar: emdash
Encoding: 8212 8212 339
Width: 542
VWidth: 0
Flags: W
HStem: 170 50<91 541>
LayerCount: 2
Fore
SplineSet
91 220 m 1
 553 220 l 1
 541 170 l 1
 79 170 l 1
 91 220 l 1
EndSplineSet
Validated: 1
EndChar

StartChar: currency
Encoding: 164 164 341
Width: 354
VWidth: 0
Flags: W
HStem: 121 47<191.244 249.597> 274 47<206.403 264.756>
VStem: 105 86<168.133 261.048> 265 86<180.952 273.867>
LayerCount: 2
Fore
SplineSet
191 193 m 0
 191 178 197 168 216 168 c 0
 261 168 265 243 265 249 c 0
 265 264 259 274 240 274 c 0
 195 274 191 199 191 193 c 0
351 244 m 0
 351 210 334 179 311 159 c 1
 341 119 l 1
 298 84 l 1
 262 131 l 1
 244 124 223 121 205 121 c 0
 187 121 168 124 152 131 c 1
 94 84 l 1
 67 119 l 1
 117 159 l 1
 109 169 105 182 105 198 c 0
 105 232 123 263 145 283 c 1
 115 323 l 1
 158 358 l 1
 194 311 l 1
 212 318 233 321 251 321 c 0
 269 321 288 318 304 311 c 1
 362 358 l 1
 389 323 l 1
 339 283 l 1
 347 273 351 260 351 244 c 0
EndSplineSet
Validated: 1
EndChar

StartChar: periodcentered
Encoding: 183 183 342
Width: 133
VWidth: 0
Flags: W
HStem: 202 83<91 155>
VStem: 72 102
LayerCount: 2
Fore
SplineSet
91 285 m 1
 174 285 l 1
 155 202 l 1
 72 202 l 1
 91 285 l 1
EndSplineSet
Validated: 1
EndChar

StartChar: logicalnot
Encoding: 172 172 343
Width: 340
VWidth: 0
Flags: W
HStem: 95 125<254 322> 170 50<91 254>
VStem: 79 272
LayerCount: 2
Fore
SplineSet
91 220 m 1x60
 351 220 l 1x60
 322 95 l 1
 237 95 l 1xa0
 254 170 l 1
 79 170 l 1
 91 220 l 1x60
EndSplineSet
Validated: 1
EndChar

StartChar: plusminus
Encoding: 177 177 344
Width: 418
VWidth: 0
Flags: W
HStem: 26 50<58 384> 221 50<103 213 319 429>
LayerCount: 2
Fore
SplineSet
58 76 m 1
 396 76 l 1
 384 26 l 1
 46 26 l 1
 58 76 l 1
307 221 m 1
 285 127 l 1
 191 127 l 1
 213 221 l 1
 91 221 l 1
 103 271 l 1
 225 271 l 1
 246 365 l 1
 340 365 l 1
 319 271 l 1
 441 271 l 1
 429 221 l 1
 307 221 l 1
EndSplineSet
Validated: 1
EndChar

StartChar: uni00B5
Encoding: 181 181 345
Width: 475
VWidth: 0
Flags: W
HStem: -10 50<207.38 312.514> 0 21G<306 435.636> 420 20G<137.369 267 403.34 533>
LayerCount: 2
Fore
SplineSet
319 58 m 1xa0
 408 440 l 1
 533 440 l 1
 431 0 l 1
 306 0 l 1x60
 308 7 l 1
 283 -4 257 -10 232 -10 c 0
 206 -10 183 -7 165 -2 c 1
 132 -143 l 1
 7 -143 l 1
 142 440 l 1
 267 440 l 1
 218 228 l 2
 205 173 198 133 198 104 c 0
 198 58 216 40 258 40 c 0
 282 40 302 47 319 58 c 1xa0
EndSplineSet
Validated: 1
EndChar

StartChar: divide
Encoding: 247 247 346
Width: 347
VWidth: 0
Flags: W
HStem: 47 83<154 228> 170 50<91 346> 260 83<203 277>
VStem: 79 279
CounterMasks: 1 e0
LayerCount: 2
Fore
SplineSet
154 130 m 1
 247 130 l 1
 228 47 l 1
 135 47 l 1
 154 130 l 1
203 343 m 1
 296 343 l 1
 277 260 l 1
 184 260 l 1
 203 343 l 1
91 220 m 1
 358 220 l 1
 346 170 l 1
 79 170 l 1
 91 220 l 1
EndSplineSet
Validated: 1
EndChar

StartChar: paragraph
Encoding: 182 182 347
Width: 486
VWidth: 0
Flags: W
HStem: 0 21G<223 317.615 347 441.629> 650 50<463 497>
VStem: 153 130<399.223 556.611>
LayerCount: 2
Fore
SplineSet
153 470 m 0
 153 568 245 700 419 700 c 2
 599 700 l 1
 437 0 l 1
 347 0 l 1
 497 650 l 1
 463 650 l 1
 313 0 l 1
 223 0 l 1
 297 322 l 1
 190 334 153 404 153 470 c 0
368 630 m 1
 315 597 283 527 283 469 c 0
 283 438 291 408 313 390 c 1
 368 630 l 1
EndSplineSet
Validated: 1
EndChar

StartChar: uni00B9
Encoding: 185 185 348
Width: 179
VWidth: 0
Flags: W
HStem: 626 32<192 213>
VStem: 153 140
LayerCount: 2
Fore
SplineSet
293 667 m 1
 224 368 l 1
 153 368 l 1
 213 629 l 1
 185 626 l 1
 192 658 l 1
 293 667 l 1
EndSplineSet
Validated: 1
EndChar

StartChar: uni00B2
Encoding: 178 178 349
Width: 273
VWidth: 0
Flags: W
HStem: 367 32<204 318> 631 32<242.198 318.5>
VStem: 297 69<541.693 630.838>
LayerCount: 2
Fore
SplineSet
126 367 m 1
 159 513 297 487 297 605 c 0
 297 623 290 631 282 631 c 0
 248 631 237 611 224 588 c 1
 179 603 l 1
 200 632 235 663 298 663 c 0
 339 663 366 636 366 596 c 0
 366 490 226 478 204 399 c 1
 325 399 l 1
 318 367 l 1
 126 367 l 1
EndSplineSet
Validated: 1
EndChar

StartChar: uni00B3
Encoding: 179 179 350
Width: 285
VWidth: 0
Flags: W
HStem: 362 33<196.864 261.794> 505 32<240 276.569> 630 33<249.377 303.16>
VStem: 138 51<398.765 425.059> 282 69<409.716 500.905> 304 67<549.226 629.379>
LayerCount: 2
Fore
SplineSet
231 395 m 0xf8
 272 395 282 454 282 469 c 0xf8
 282 488 273 505 233 505 c 1
 240 537 l 1
 272 537 304 549 304 606 c 0
 304 623 296 630 285 630 c 0
 253 630 247 612 232 588 c 1
 188 603 l 1
 212 636 243 663 301 663 c 0
 344 663 371 631 371 597 c 0xf4
 371 547 326 525 318 521 c 1
 342 507 351 488 351 468 c 0
 351 413 297 362 232 362 c 0
 205 362 152 368 138 423 c 1
 189 438 l 1
 192 418 195 395 231 395 c 0xf8
EndSplineSet
Validated: 1
EndChar

StartChar: threequarters
Encoding: 190 190 351
Width: 528
VWidth: 0
Flags: W
HStem: 0 21G<357 432.688> 64 32<298 372 450 473> 362 33<196.864 261.92> 505 32<240 276.854> 630 33<249.377 303.16>
VStem: 138 51<398.765 425.059> 283 68<409.832 501.011> 304 67<549.226 629.379>
LayerCount: 2
Fore
SplineSet
231 395 m 0xfe
 272 395 283 455 283 470 c 0xfe
 283 489 273 505 233 505 c 1
 240 537 l 1
 272 537 304 549 304 606 c 0
 304 623 296 630 285 630 c 0
 253 630 247 612 232 588 c 1
 188 603 l 1
 212 636 243 663 301 663 c 0
 344 663 371 631 371 597 c 0xfd
 371 547 326 525 318 521 c 1
 342 507 351 488 351 468 c 0
 351 413 297 362 232 362 c 0
 205 362 152 368 138 423 c 1
 189 438 l 1
 192 418 195 395 231 395 c 0xfe
70 129 m 1
 529 511 l 1
 606 511 l 1
 147 129 l 1
 70 129 l 1
250 85 m 1
 426 296 l 1
 496 296 l 1
 450 96 l 1
 480 96 l 1
 473 64 l 1
 443 64 l 1
 428 0 l 1
 357 0 l 1
 372 64 l 1
 245 64 l 1
 250 85 l 1
410 231 m 1
 298 96 l 1
 379 96 l 1
 410 231 l 1
EndSplineSet
Validated: 1
EndChar

StartChar: onequarter
Encoding: 188 188 352
Width: 528
VWidth: 0
Flags: W
HStem: 0 21G<357 432.688> 64 32<298 372 450 473> 626 32<257 278>
LayerCount: 2
Fore
SplineSet
358 667 m 1
 289 368 l 1
 218 368 l 1
 278 629 l 1
 250 626 l 1
 257 658 l 1
 358 667 l 1
70 129 m 1
 529 511 l 1
 606 511 l 1
 147 129 l 1
 70 129 l 1
250 85 m 1
 426 296 l 1
 496 296 l 1
 450 96 l 1
 480 96 l 1
 473 64 l 1
 443 64 l 1
 428 0 l 1
 357 0 l 1
 372 64 l 1
 245 64 l 1
 250 85 l 1
410 231 m 1
 298 96 l 1
 379 96 l 1
 410 231 l 1
EndSplineSet
Validated: 1
EndChar

StartChar: onehalf
Encoding: 189 189 353
Width: 530
VWidth: 0
Flags: W
HStem: 0 32<376 490> 264 32<414.198 490.5> 626 32<257 278>
VStem: 469 69<173.127 263.838>
LayerCount: 2
Fore
SplineSet
298 0 m 1
 332 146 469 120 469 238 c 0
 469 256 462 264 454 264 c 0
 420 264 409 244 396 221 c 1
 351 236 l 1
 372 265 407 296 470 296 c 0
 511 296 538 269 538 229 c 0
 538 123 398 111 376 32 c 1
 497 32 l 1
 490 0 l 1
 298 0 l 1
358 667 m 1
 289 368 l 1
 218 368 l 1
 278 629 l 1
 250 626 l 1
 257 658 l 1
 358 667 l 1
70 129 m 1
 529 511 l 1
 606 511 l 1
 147 129 l 1
 70 129 l 1
EndSplineSet
Validated: 1
EndChar

StartChar: afii00208
Encoding: 8213 8213 354
Width: 676
VWidth: 0
Flags: W
HStem: 170 50<91 675>
LayerCount: 2
Fore
SplineSet
91 220 m 1
 687 220 l 1
 675 170 l 1
 79 170 l 1
 91 220 l 1
EndSplineSet
Validated: 1
EndChar

StartChar: longs
Encoding: 383 383 359
Width: 357
VWidth: 0
Flags: W
HStem: 0 21G<45 174.64> 620 50<333.853 429.144>
LayerCount: 2
Fore
SplineSet
45 0 m 1
 142 422 l 18
 189 622 223 670 400 670 c 0
 455 670 482 649 522 625 c 1
 460 573 l 1
 422 605 408 620 373 620 c 0
 339 620 303 576 273 444 c 2
 170 0 l 1
 45 0 l 1
EndSplineSet
Validated: 1
EndChar

StartChar: uniFB00
Encoding: 64256 64256 361
Width: 626
VWidth: 0
Flags: W
HStem: -135 50<0.706245 58.6348 325.706 383.635> 390 50<142 174 311 499 636 695> 620 50<356.007 431.861 681.007 756.861>
VStem: -36 36<-82.8995 -61> 289 36<-82.8995 -61>
LayerCount: 2
Fore
SplineSet
299 390 m 1
 204 -21 l 2
 189 -84 135 -135 29 -135 c 0
 -9 -135 -36 -106 -36 -74 c 0
 -36 -70 -35 -65 -34 -61 c 1
 -0 -61 l 1
 0 -78 10 -85 26 -85 c 0
 58 -85 74 -42 86 10 c 2
 174 390 l 1
 115 390 l 1
 142 440 l 1
 186 440 l 1
 208 535 l 2
 226 615 306 670 386 670 c 0
 415 670 437 666 454 659 c 1
 421 605 l 1
 415 615 406 620 389 620 c 0
 361 620 347 597 327 509 c 2
 311 440 l 1
 511 440 l 1
 533 535 l 2
 551 615 631 670 711 670 c 0
 740 670 762 666 779 659 c 1
 746 605 l 1
 740 615 731 620 714 620 c 0
 686 620 672 597 652 509 c 2
 636 440 l 1
 707 440 l 1
 695 390 l 1
 624 390 l 1
 529 -21 l 2
 514 -84 460 -135 354 -135 c 0
 316 -135 289 -106 289 -74 c 0
 289 -70 290 -65 291 -61 c 1
 325 -61 l 1
 325 -78 335 -85 351 -85 c 0
 383 -85 399 -42 411 10 c 2
 499 390 l 1
 299 390 l 1
EndSplineSet
Validated: 1
LCarets2: 1 0 
Ligature2: "'liga' Standard Ligatures in Latin lookup 0-1" f f
EndChar

StartChar: fi
Encoding: 64257 64257 362
Width: 601
VWidth: 0
Flags: W
HStem: -135 50<0.706245 58.6348> -10 50<470.789 572.536> 390 50<142 174 311 457> 520 80<515 601> 620 50<356.007 431.861>
VStem: -36 36<-82.8995 -61> 387 124<40.3643 178.93> 576 34<46.9489 64>
LayerCount: 2
Fore
SplineSet
515 600 m 1
 620 600 l 1
 601 520 l 1
 496 520 l 1
 515 600 l 1
522 135 m 2
 516 110 511 87 511 70 c 0
 511 52 517 40 538 40 c 0
 555 40 571 54 576 64 c 1
 610 64 l 1
 601 27 556 -10 513 -10 c 0
 430 -10 387 29 387 80 c 0
 387 88 388 96 390 104 c 2
 457 390 l 1
 299 390 l 1
 204 -21 l 2
 189 -84 135 -135 29 -135 c 0
 -9 -135 -36 -106 -36 -74 c 0
 -36 -70 -35 -65 -34 -61 c 1
 -0 -61 l 1
 0 -78 10 -85 26 -85 c 0
 58 -85 74 -42 86 10 c 2
 174 390 l 1
 115 390 l 1
 142 440 l 1
 186 440 l 1
 208 535 l 2
 226 615 306 670 386 670 c 0
 415 670 437 666 454 659 c 1
 421 605 l 1
 415 615 406 620 389 620 c 0
 361 620 347 597 327 509 c 2
 311 440 l 1
 593 440 l 1
 522 135 l 2
EndSplineSet
Validated: 1
LCarets2: 1 0 
Ligature2: "'liga' Standard Ligatures in Latin lookup 0-1" f i
EndChar

StartChar: fl
Encoding: 64258 64258 363
Width: 605
VWidth: 0
Flags: W
HStem: -135 50<0.706245 58.6348> -10 50<471 575.65> 390 50<142 174 311 370> 620 50<372.954 507.657>
VStem: -36 36<-82.8995 -61> 390 126<41.0266 183.172> 579 34<45.2679 64>
LayerCount: 2
Fore
SplineSet
299 390 m 1
 204 -21 l 2
 189 -84 135 -135 29 -135 c 0
 -9 -135 -36 -106 -36 -74 c 0
 -36 -70 -35 -65 -34 -61 c 1
 -0 -61 l 1
 0 -78 10 -85 26 -85 c 0
 58 -85 74 -42 86 10 c 2
 174 390 l 1
 115 390 l 1
 142 440 l 1
 186 440 l 1
 208 535 l 2
 226 615 288 670 437 670 c 0
 477 670 503 666 521 660 c 1
 646 660 l 1
 525 135 l 2
 520 113 516 92 516 76 c 0
 516 54 523 40 541 40 c 0
 557 40 571 47 579 64 c 1
 613 64 l 1
 604 27 559 -10 516 -10 c 0
 426 -10 390 27 390 76 c 0
 390 85 391 94 393 104 c 2
 508 604 l 1
 494 612 473 620 440 620 c 0
 386 620 347 597 327 509 c 2
 311 440 l 1
 382 440 l 1
 370 390 l 1
 299 390 l 1
EndSplineSet
Validated: 1
LCarets2: 1 0 
Ligature2: "'liga' Standard Ligatures in Latin lookup 0-1" f l
EndChar

StartChar: uniFB03
Encoding: 64259 64259 364
Width: 926
VWidth: 0
Flags: W
HStem: -135 50<0.706245 58.6348 325.706 383.635> -10 50<795.789 897.536> 390 50<142 174 311 499 636 782> 520 80<840 926> 620 50<356.007 431.861 681.007 756.861>
VStem: -36 36<-82.8995 -61> 289 36<-82.8995 -61> 712 124<40.3643 178.93> 901 34<46.9489 64>
LayerCount: 2
Fore
SplineSet
299 390 m 1
 204 -21 l 2
 189 -84 135 -135 29 -135 c 0
 -9 -135 -36 -106 -36 -74 c 0
 -36 -70 -35 -65 -34 -61 c 1
 -0 -61 l 1
 0 -78 10 -85 26 -85 c 0
 58 -85 74 -42 86 10 c 2
 174 390 l 1
 115 390 l 1
 142 440 l 1
 186 440 l 1
 208 535 l 2
 226 615 306 670 386 670 c 0
 415 670 437 666 454 659 c 1
 421 605 l 1
 415 615 406 620 389 620 c 0
 361 620 347 597 327 509 c 2
 311 440 l 1
 511 440 l 1
 533 535 l 2
 551 615 631 670 711 670 c 0
 740 670 762 666 779 659 c 1
 746 605 l 1
 740 615 731 620 714 620 c 0
 686 620 672 597 652 509 c 2
 636 440 l 1
 918 440 l 1
 847 135 l 2
 841 110 836 87 836 70 c 0
 836 52 842 40 863 40 c 0
 880 40 896 54 901 64 c 1
 935 64 l 1
 926 27 881 -10 838 -10 c 0
 755 -10 712 29 712 80 c 0
 712 88 713 96 715 104 c 2
 782 390 l 1
 624 390 l 1
 529 -21 l 2
 514 -84 460 -135 354 -135 c 0
 316 -135 289 -106 289 -74 c 0
 289 -70 290 -65 291 -61 c 1
 325 -61 l 1
 325 -78 335 -85 351 -85 c 0
 383 -85 399 -42 411 10 c 2
 499 390 l 1
 299 390 l 1
840 600 m 1
 945 600 l 1
 926 520 l 1
 821 520 l 1
 840 600 l 1
EndSplineSet
Validated: 1
LCarets2: 2 0 0 
Ligature2: "'liga' Standard Ligatures in Latin lookup 0-1" f f i
EndChar

StartChar: uniFB04
Encoding: 64260 64260 365
Width: 930
VWidth: 0
Flags: W
HStem: -135 50<0.706245 58.6348 325.706 383.635> -10 50<796 900.65> 390 50<142 174 311 499 636 695> 620 50<356.007 431.861 697.954 832.657>
VStem: -36 36<-82.8995 -61> 289 36<-82.8995 -61> 715 126<41.0266 183.172> 904 34<45.2679 64>
LayerCount: 2
Fore
SplineSet
624 390 m 1
 529 -21 l 2
 514 -84 460 -135 354 -135 c 0
 316 -135 289 -106 289 -74 c 0
 289 -70 290 -65 291 -61 c 1
 325 -61 l 1
 325 -78 335 -85 351 -85 c 0
 383 -85 399 -42 411 10 c 2
 499 390 l 1
 299 390 l 1
 204 -21 l 2
 189 -84 135 -135 29 -135 c 0
 -9 -135 -36 -106 -36 -74 c 0
 -36 -70 -35 -65 -34 -61 c 1
 -0 -61 l 1
 0 -78 10 -85 26 -85 c 0
 58 -85 74 -42 86 10 c 2
 174 390 l 1
 115 390 l 1
 142 440 l 1
 186 440 l 1
 208 535 l 2
 226 615 306 670 386 670 c 0
 415 670 437 666 454 659 c 1
 421 605 l 1
 415 615 406 620 389 620 c 0
 361 620 347 597 327 509 c 2
 311 440 l 1
 511 440 l 1
 533 535 l 2
 551 615 613 670 762 670 c 0
 802 670 828 666 846 660 c 1
 971 660 l 1
 850 135 l 2
 845 113 841 92 841 76 c 0
 841 54 848 40 866 40 c 0
 882 40 896 47 904 64 c 1
 938 64 l 1
 929 27 884 -10 841 -10 c 0
 751 -10 715 27 715 76 c 0
 715 85 716 94 718 104 c 2
 833 604 l 1
 819 612 798 620 765 620 c 0
 711 620 672 597 652 509 c 2
 636 440 l 1
 707 440 l 1
 695 390 l 1
 624 390 l 1
EndSplineSet
Validated: 1
LCarets2: 2 276 462 
Ligature2: "'liga' Standard Ligatures in Latin lookup 0-1" f f l
EndChar

StartChar: degree
Encoding: 176 176 370
Width: 282
VWidth: 0
Flags: W
HStem: 493 47<233.642 309.085> 628 47<243.776 318.319>
VStem: 182 49<542.277 615.284> 321 48<552.716 625.723>
LayerCount: 2
Fore
SplineSet
286 628 m 0
 262 628 231 606 231 574 c 0
 231 555 245 540 266 540 c 0
 290 540 321 562 321 594 c 0
 321 613 307 628 286 628 c 0
182 564 m 0
 182 621 239 675 297 675 c 0
 340 675 369 645 369 604 c 0
 369 547 312 493 255 493 c 0
 212 493 182 523 182 564 c 0
EndSplineSet
Validated: 1
EndChar

StartChar: afii10051
Encoding: 1026 1026 382
Width: 708
VWidth: 0
Flags: W
HStem: -170 50<363.113 479.359> 0 21G<238 371.595> 400 50<467.927 591.788> 650 50<172 388 517 745>
VStem: 600 121<204.188 392.448>
AnchorPoint: "top" 466 700 basechar 0
LayerCount: 2
Fore
SplineSet
367 0 m 1
 238 0 l 1
 388 650 l 1
 160 650 l 1
 172 700 l 1
 759 700 l 1
 745 650 l 1
 517 650 l 1
 467 435 l 1
 495 445 523 450 551 450 c 0
 664 450 721 405 721 313 c 0
 721 291 718 267 711 240 c 2
 674 78 l 2
 628 -122 537 -170 412 -170 c 0
 357 -170 305 -149 264 -125 c 1
 326 -73 l 1
 365 -105 403 -120 438 -120 c 0
 476 -120 513 -76 544 56 c 2
 584 228 l 2
 595 276 600 312 600 337 c 0
 600 386 582 400 554 400 c 0
 519 400 485 389 452 370 c 1
 367 0 l 1
EndSplineSet
Validated: 1
EndChar

StartChar: afii10053
Encoding: 1028 1028 384
Width: 647
VWidth: 0
Flags: W
HStem: -10 50<301.104 448.091> 348 50<253 518> 660 50<418.325 558.117>
VStem: 98 129<136.441 345.653>
AnchorPoint: "top" 492 700 basechar 0
LayerCount: 2
Fore
SplineSet
240 348 m 1
 232 309 227 270 227 236 c 0
 227 98 301 40 366 40 c 0
 431 40 491 82 541 139 c 1
 614 102 l 1
 549 38 449 -10 340 -10 c 0
 229 -10 98 70 98 249 c 0
 98 478 280 710 487 710 c 0
 623 710 695 665 727 608 c 1
 620 565 l 1
 598 612 552 660 490 660 c 0
 379 660 294 531 253 398 c 1
 530 398 l 1
 518 348 l 1
 240 348 l 1
EndSplineSet
Validated: 1
EndChar

StartChar: afii10058
Encoding: 1033 1033 389
Width: 900
VWidth: 0
Flags: W
HStem: -10 50<70.3177 187.444> 0 50<578 666.678> 390 50<668 742.083> 650 50<465 586>
VStem: 775 129<176.545 353.553>
AnchorPoint: "top" 535 700 basechar 0
LayerCount: 2
Fore
SplineSet
904 267 m 0xb8
 904 163 806 0 626 0 c 2
 436 0 l 1x78
 586 650 l 1
 465 650 l 1
 344 127 l 2
 319 17 220 -10 124 -10 c 0
 86 -10 42 4 23 35 c 1
 93 65 l 1
 102 45 131 40 150 40 c 0
 189 40 203 78 222 160 c 2
 347 700 l 1
 728 700 l 1
 668 440 l 1
 726 440 l 2
 843 440 904 355 904 267 c 0xb8
608 50 m 2
 697 50 775 173 775 274 c 0
 775 332 752 390 686 390 c 2
 656 390 l 1
 578 50 l 1
 608 50 l 2
EndSplineSet
Validated: 1
EndChar

StartChar: afii10059
Encoding: 1034 1034 390
Width: 871
VWidth: 0
Flags: W
HStem: 0 50<549 637.678> 390 50<272 497 639 713.083> 680 20G<197.371 332 564.385 699>
VStem: 746 129<176.545 353.553>
AnchorPoint: "top" 454 700 basechar 0
LayerCount: 2
Fore
SplineSet
875 267 m 0
 875 163 777 0 597 0 c 2
 407 0 l 1
 497 390 l 1
 260 390 l 1
 170 0 l 1
 40 0 l 1
 202 700 l 1
 332 700 l 1
 272 440 l 1
 509 440 l 1
 569 700 l 1
 699 700 l 1
 639 440 l 1
 697 440 l 2
 814 440 875 355 875 267 c 0
579 50 m 2
 668 50 746 173 746 274 c 0
 746 332 723 390 657 390 c 2
 627 390 l 1
 549 50 l 1
 579 50 l 2
EndSplineSet
Validated: 1
EndChar

StartChar: afii10060
Encoding: 1035 1035 391
Width: 708
VWidth: 0
Flags: W
HStem: 0 21G<238 371.595 531 660.583> 400 50<467.927 591.788> 650 50<172 388 517 745>
VStem: 600 121<202.781 392.448>
AnchorPoint: "top" 466 700 basechar 0
LayerCount: 2
Fore
SplineSet
531 0 m 9
 584 228 l 2
 595 276 600 312 600 337 c 0
 600 386 582 400 554 400 c 0
 519 400 485 389 452 370 c 1
 367 0 l 1
 238 0 l 1
 388 650 l 1
 160 650 l 1
 172 700 l 1
 759 700 l 1
 745 650 l 1
 517 650 l 1
 467 435 l 1
 495 445 523 450 551 450 c 0
 664 450 721 405 721 313 c 0
 721 291 718 267 711 240 c 2
 656 0 l 17
 531 0 l 9
EndSplineSet
Validated: 1
EndChar

StartChar: afii10145
Encoding: 1039 1039 395
Width: 573
VWidth: 0
Flags: W
HStem: 0 50<187 248 314 403> 680 20G<202.371 337 548.385 683>
VStem: 261 77<-156.188 -90.8211>
AnchorPoint: "top" 438 700 basechar 0
LayerCount: 2
Fore
SplineSet
45 0 m 1
 207 700 l 1
 337 700 l 1
 187 50 l 1
 403 50 l 1
 553 700 l 1
 683 700 l 1
 521 0 l 1
 314 0 l 1
 294 -61 l 1
 326 -72 338 -99 338 -116 c 0
 338 -151 289 -180 250 -194 c 1
 223 -182 l 1
 240 -171 261 -148 261 -124 c 0
 261 -103 243 -89 216 -80 c 1
 248 0 l 1
 45 0 l 1
EndSplineSet
Validated: 1048577
EndChar

StartChar: afii10018
Encoding: 1041 1041 397
Width: 514
VWidth: 0
Flags: W
HStem: 0 50<182 280.678> 390 50<272 356.083> 650 50<320 524>
VStem: 389 129<176.545 353.553>
AnchorPoint: "top" 412 700 basechar 0
LayerCount: 2
Fore
SplineSet
518 267 m 0
 518 163 420 0 240 0 c 2
 40 0 l 1
 202 700 l 1
 536 700 l 1
 524 650 l 1
 320 650 l 1
 272 440 l 1
 340 440 l 2
 457 440 518 355 518 267 c 0
222 50 m 2
 311 50 389 173 389 274 c 0
 389 332 366 390 300 390 c 2
 260 390 l 1
 182 50 l 1
 222 50 l 2
EndSplineSet
Validated: 1
EndChar

StartChar: afii10020
Encoding: 1043 1043 399
Width: 439
VWidth: 0
Flags: W
HStem: 0 21G<45 179.615> 650 50<325 599>
AnchorPoint: "top" 417 700 basechar 0
LayerCount: 2
Fore
SplineSet
175 0 m 1
 45 0 l 1
 207 700 l 1
 611 700 l 17
 599 650 l 9
 325 650 l 1
 175 0 l 1
EndSplineSet
Validated: 1
EndChar

StartChar: afii10021
Encoding: 1044 1044 400
Width: 601
VWidth: 0
Flags: W
HStem: -69 119<44 115.098 512 559> -0 50<203 382> 650 50<377 384 475.569 520 650 671>
VStem: 384 96<597.097 650>
AnchorPoint: "top" 527 700 basechar 0
LayerCount: 2
Fore
SplineSet
377 700 m 1xb0
 683 700 l 1
 671 650 l 1
 650 650 l 1
 512 50 l 1xb0
 587 50 l 1x70
 559 -69 l 1
 454 -69 l 1xb0
 470 0 l 1
 359 0 248 -0 137 -0 c 1x70
 121 -69 l 1
 16 -69 l 1
 44 50 l 1
 102 50 l 1
 152 124 280 332 384 650 c 1
 365 650 l 1
 377 700 l 1xb0
520 650 m 1
 480 650 l 1
 386 364 257 138 203 50 c 1
 382 50 l 1x70
 520 650 l 1
EndSplineSet
Validated: 1
EndChar

StartChar: afii10024
Encoding: 1046 1046 402
Width: 745
VWidth: 0
Flags: W
HStem: 0 21G<18 150 306 439.645 593 723> 650 50<190 207.648 822.941 863>
VStem: 593 131<0 101.855>
AnchorPoint: "top" 534 700 basechar 0
LayerCount: 2
Fore
SplineSet
528 403 m 1
 603 483 679 700 875 700 c 1
 863 650 l 1
 781 650 698 427 560 350 c 1
 660 272 724 58 724 7 c 0
 724 4 723 2 723 0 c 1
 593 0 l 2
 593 1 593 3 593 5 c 0
 593 43 563 248 507 310 c 1
 435 0 l 1
 306 0 l 1
 378 310 l 1
 288 244 152 17 148 0 c 1
 18 0 l 1
 26 33 198 267 342 350 c 1
 240 427 261 650 178 650 c 1
 190 700 l 1
 385 700 361 483 399 403 c 1
 468 700 l 1
 597 700 l 1
 528 403 l 1
EndSplineSet
Validated: 1
EndChar

StartChar: afii10025
Encoding: 1047 1047 403
Width: 497
VWidth: 0
Flags: W
HStem: -10 50<173.707 288.213> 390 50<269 344.982> 660 50<307.611 424.998>
VStem: 391 131<173.641 343.796> 439 129<515.749 648.852>
AnchorPoint: "top" 399 700 basechar 0
LayerCount: 2
Fore
SplineSet
522 262 m 0xf0
 522 137 388 -10 217 -10 c 0
 109 -10 64 46 52 119 c 1
 150 144 l 1
 150 139 l 2
 150 72 173 40 238 40 c 0
 304 40 391 164 391 257 c 0xf0
 391 390 299 390 257 390 c 1
 269 440 l 1
 396 440 439 530 439 589 c 0
 439 631 418 660 389 660 c 0
 315 660 287 629 263 583 c 1
 188 605 l 1
 242 676 323 710 392 710 c 0
 513 710 568 649 568 581 c 0xe8
 568 518 521 449 435 415 c 1
 501 381 522 317 522 262 c 0xf0
EndSplineSet
Validated: 1
EndChar

StartChar: afii10026
Encoding: 1048 1048 404
Width: 666
VWidth: 0
Flags: W
HStem: 0 21G<45 179.444 484 618.629> 680 20G<202.371 337 641.111 776>
AnchorPoint: "top" 486 700 basechar 0
LayerCount: 2
Fore
SplineSet
175 0 m 1
 45 0 l 1
 207 700 l 1
 337 700 l 1
 220 196 l 1
 635 655 l 1
 646 700 l 1
 776 700 l 1
 614 0 l 1
 484 0 l 1
 600 503 l 1
 185 45 l 1
 175 0 l 1
EndSplineSet
Validated: 1
EndChar

StartChar: afii10028
Encoding: 1050 1050 406
Width: 605
VWidth: 0
Flags: W
HStem: 0 58<519.821 542> 680 20G<202.371 337 556.574 712>
AnchorPoint: "top" 418 700 basechar 0
LayerCount: 2
Fore
SplineSet
175 0 m 1
 45 0 l 1
 207 700 l 1
 337 700 l 1
 274 428 l 1
 579 700 l 1
 712 700 l 1
 371 397 l 1
 551 347 437 58 555 58 c 1
 542 0 l 1
 295 0 387 312 311 343 c 1
 240 279 l 1
 175 0 l 1
EndSplineSet
Validated: 1
EndChar

StartChar: afii10029
Encoding: 1051 1051 407
Width: 658
VWidth: 0
Flags: W
HStem: -10 50<69.2012 182.808> 0 21G<476 610.629> 650 50<465 626>
AnchorPoint: "top" 558 700 basechar 0
LayerCount: 2
Fore
SplineSet
476 0 m 1x60
 626 650 l 1
 465 650 l 1
 344 127 l 2
 318 14 212 -10 114 -10 c 0
 76 -10 42 4 23 35 c 1
 93 65 l 1
 102 45 121 40 140 40 c 0xa0
 180 40 203 78 222 160 c 2
 347 700 l 1
 768 700 l 1
 606 0 l 1
 476 0 l 1x60
EndSplineSet
Validated: 1
EndChar

StartChar: afii10033
Encoding: 1055 1055 411
Width: 573
VWidth: 0
Flags: W
HStem: 0 21G<45 179.615 391 525.629> 650 50<325 541>
AnchorPoint: "top" 443 700 basechar 0
LayerCount: 2
Fore
SplineSet
45 0 m 9
 207 700 l 1
 683 700 l 1
 521 0 l 1
 391 0 l 1
 541 650 l 1
 325 650 l 1
 175 0 l 17
 45 0 l 9
EndSplineSet
Validated: 1
EndChar

StartChar: afii10037
Encoding: 1059 1059 415
Width: 560
VWidth: 0
Flags: W
HStem: -10 50<142.378 215.643> 680 20G<177 287.63 594.073 726>
AnchorPoint: "top" 451 700 basechar 0
LayerCount: 2
Fore
SplineSet
606 700 m 1
 726 700 l 1
 389 136 l 2
 318 16 246 -10 152 -10 c 0
 112 -10 72 18 46 56 c 1
 127 88 l 1
 150 42 160 40 177 40 c 0
 201 40 226 67 255 113 c 1
 177 700 l 1
 285 700 l 1
 343 259 l 1
 606 700 l 1
EndSplineSet
Validated: 1
EndChar

StartChar: afii10038
Encoding: 1060 1060 416
Width: 669
VWidth: 0
Flags: W
HStem: 0 21G<267 400.583> 96 54<270.784 289> 548 54<535 554.546> 680 20G<424.319 558>
VStem: 105 126<211.117 393.872> 593 127<311.751 489.855>
AnchorPoint: "top" 495 700 basechar 0
LayerCount: 2
Fore
SplineSet
302 150 m 1
 395 552 l 1
 258 513 231 329 231 275 c 0
 231 213 255 169 302 150 c 1
407 606 m 1
 429 700 l 1
 558 700 l 1
 535 602 l 1
 641 578 720 507 720 403 c 0
 720 262 592 127 418 96 c 1
 396 0 l 1
 267 0 l 1
 289 96 l 1
 191 116 105 189 105 299 c 0
 105 453 258 582 407 606 c 1
522 548 m 1
 431 151 l 1
 548 193 593 338 593 425 c 0
 593 485 570 528 522 548 c 1
EndSplineSet
Validated: 1
EndChar

StartChar: afii10040
Encoding: 1062 1062 418
Width: 630
VWidth: 0
Flags: W
HStem: 0 50<187 403> 680 20G<202.371 337 548.385 683>
VStem: 539 77<-156.188 -90.8211>
AnchorPoint: "top" 438 700 basechar 0
LayerCount: 2
Fore
SplineSet
45 0 m 1
 207 700 l 1
 337 700 l 1
 187 50 l 1
 403 50 l 1
 553 700 l 1
 683 700 l 1
 533 50 l 1
 608 50 l 9
 572 -61 l 1
 604 -72 616 -99 616 -116 c 0
 616 -151 567 -180 528 -194 c 1
 501 -182 l 1
 518 -171 539 -148 539 -124 c 0
 539 -103 521 -89 494 -80 c 1
 526 0 l 1
 45 0 l 1
EndSplineSet
Validated: 1048577
EndChar

StartChar: afii10041
Encoding: 1063 1063 419
Width: 538
VWidth: 0
Flags: W
HStem: 0 21G<356 490.629> 255 50<288.569 409.276> 680 20G<197.294 332 513.345 648>
VStem: 148 125<322.836 541.303>
AnchorPoint: "top" 418 700 basechar 0
LayerCount: 2
Fore
SplineSet
437 352 m 1
 518 700 l 1
 648 700 l 1
 486 0 l 1
 356 0 l 1
 421 280 l 1
 395 264 355 255 318 255 c 0
 209 255 148 304 148 419 c 0
 148 450 153 488 162 530 c 2
 202 700 l 1
 332 700 l 1
 295 542 l 2
 280 476 273 428 273 393 c 0
 273 316 306 305 344 305 c 0
 380 305 413 323 437 352 c 1
EndSplineSet
Validated: 1
EndChar

StartChar: afii10042
Encoding: 1064 1064 420
Width: 803
VWidth: 0
Flags: W
HStem: 0 50<187 345 475 633> 680 20G<202.371 337 490.385 625 778.385 913>
AnchorPoint: "top" 564 700 basechar 0
LayerCount: 2
Fore
SplineSet
913 700 m 1
 751 0 l 1
 45 0 l 1
 207 700 l 1
 337 700 l 1
 187 50 l 1
 345 50 l 1
 495 700 l 1
 625 700 l 1
 475 50 l 1
 633 50 l 1
 783 700 l 1
 913 700 l 1
EndSplineSet
Validated: 1
EndChar

StartChar: afii10043
Encoding: 1065 1065 421
Width: 860
VWidth: 0
Flags: W
HStem: 0 50<187 345 475 633> 680 20G<202.371 337 490.385 625 778.385 913>
VStem: 769 77<-156.188 -90.8211>
AnchorPoint: "top" 564 700 basechar 0
LayerCount: 2
Fore
SplineSet
756 0 m 1
 45 0 l 1
 207 700 l 1
 337 700 l 1
 187 50 l 1
 345 50 l 1
 495 700 l 1
 625 700 l 1
 475 50 l 1
 633 50 l 1
 783 700 l 1
 913 700 l 1
 763 50 l 1
 838 50 l 9
 802 -61 l 1
 834 -72 846 -99 846 -116 c 0
 846 -151 797 -180 758 -194 c 1
 731 -182 l 1
 748 -171 769 -148 769 -124 c 0
 769 -103 751 -89 724 -80 c 1
 756 0 l 1
EndSplineSet
Validated: 1048577
EndChar

StartChar: afii10044
Encoding: 1066 1066 422
Width: 638
VWidth: 0
Flags: W
HStem: 0 50<306 404.678> 390 50<396 480.083> 650 50<172 314>
VStem: 513 129<176.545 353.553>
AnchorPoint: "top" 391 700 basechar 0
LayerCount: 2
Fore
SplineSet
642 267 m 0
 642 163 544 0 364 0 c 2
 164 0 l 1
 314 650 l 1
 160 650 l 1
 172 700 l 1
 456 700 l 1
 396 440 l 1
 464 440 l 2
 581 440 642 355 642 267 c 0
346 50 m 2
 435 50 513 173 513 274 c 0
 513 332 490 390 424 390 c 2
 384 390 l 1
 306 50 l 1
 346 50 l 2
EndSplineSet
Validated: 1
EndChar

StartChar: afii10046
Encoding: 1068 1068 424
Width: 514
VWidth: 0
Flags: W
HStem: 0 50<182 280.678> 390 50<272 356.083> 680 20G<197.371 332>
VStem: 389 129<176.545 353.553>
AnchorPoint: "top" 364 700 basechar 0
LayerCount: 2
Fore
SplineSet
222 50 m 2
 311 50 389 173 389 274 c 0
 389 332 366 390 300 390 c 2
 260 390 l 1
 182 50 l 1
 222 50 l 2
518 267 m 0
 518 163 420 0 240 0 c 2
 40 0 l 1
 202 700 l 1
 332 700 l 1
 272 440 l 1
 340 440 l 2
 457 440 518 355 518 267 c 0
EndSplineSet
Validated: 1
EndChar

StartChar: afii10047
Encoding: 1069 1069 425
Width: 626
VWidth: 0
Flags: W
HStem: -10 50<199.464 358.762> 348 50<350 541> 660 50<352.135 512.534>
VStem: 560 126<402.971 583.294>
AnchorPoint: "top" 452 700 basechar 0
LayerCount: 2
Fore
SplineSet
54 102 m 1
 143 139 l 1
 167 82 197 40 287 40 c 0
 392 40 498 181 541 348 c 1
 338 348 l 1
 350 398 l 1
 551 398 l 1
 557 431 560 465 560 498 c 0
 560 607 517 660 449 660 c 0
 354 660 304 612 260 565 c 1
 173 608 l 1
 233 665 310 710 446 710 c 0
 583 710 686 635 686 470 c 0
 686 246 533 -10 261 -10 c 0
 152 -10 89 38 54 102 c 1
EndSplineSet
Validated: 1
EndChar

StartChar: afii10048
Encoding: 1070 1070 426
Width: 834
VWidth: 0
Flags: W
HStem: -10 50<467.24 594.748> 0 21G<45 179.598> 348 50<267 315> 660 50<592.684 728.938> 680 20G<202.371 337>
VStem: 301 124<110.526 342.257> 772 122<358.745 590.387>
AnchorPoint: "top" 446 700 basechar 0
LayerCount: 2
Fore
SplineSet
658 660 m 0xb6
 490 660 425 298 425 194 c 0
 425 86 467 40 524 40 c 0
 708 40 772 411 772 515 c 0
 772 616 732 660 658 660 c 0xb6
894 474 m 0
 894 310 795 -10 507 -10 c 0xb6
 398 -10 301 64 301 228 c 0
 301 263 305 303 315 348 c 1
 255 348 l 1
 175 0 l 1
 45 0 l 1
 207 700 l 1
 337 700 l 1x6e
 267 398 l 1
 329 398 l 1
 394 614 539 710 664 710 c 0
 797 710 894 637 894 474 c 0
EndSplineSet
Validated: 1
EndChar

StartChar: afii10049
Encoding: 1071 1071 427
Width: 547
VWidth: 0
Flags: W
HStem: 0 58<33 83.17> 320 50<368.278 439> 650 50<405.233 515>
VStem: 186 130<399.069 555.97>
AnchorPoint: "top" 468 700 basechar 0
LayerCount: 2
Fore
SplineSet
470 650 m 2
 378 650 316 551 316 469 c 0
 316 419 339 370 405 370 c 2
 450 370 l 1
 515 650 l 1
 470 650 l 2
186 470 m 0
 186 568 278 700 452 700 c 2
 657 700 l 1
 495 0 l 1
 365 0 l 1
 439 320 l 1
 384 320 l 1
 299 236 236 -0 20 0 c 1
 33 58 l 1
 120 58 179 230 284 332 c 1
 212 357 186 415 186 470 c 0
EndSplineSet
Validated: 1
EndChar

StartChar: afii10066
Encoding: 1073 1073 429
Width: 492
VWidth: 0
Flags: W
HStem: -10 50<221.325 301.588> 400 50<278.877 377.266> 587 50<337.3 445.613>
VStem: 89 117<60.0001 267.687> 392 125<183.079 383.07> 523 30<667.368 672.223>
AnchorPoint: "top" 421 700 basechar 0
LayerCount: 2
Fore
SplineSet
89 161 m 0
 89 346 226 637 390 637 c 2
 415 637 l 2
 453 637 505 656 523 682 c 1
 537 677 553 669 553 669 c 1
 553 669 523 575 447 575 c 0
 417 575 413 587 379 587 c 0
 337 587 306 546 272 439 c 1
 297 446 321 450 344 450 c 0
 469 450 517 384 517 294 c 0
 517 133 390 -10 238 -10 c 0
 181 -10 89 15 89 161 c 0
264 40 m 0
 315 40 392 178 392 302 c 0
 392 356 378 400 347 400 c 0
 302 400 252 377 236 307 c 0
 229 274 206 192 206 129 c 0
 206 66 228 40 264 40 c 0
EndSplineSet
Validated: 1
EndChar

StartChar: afii10067
Encoding: 1074 1074 430
Width: 492
VWidth: 0
Flags: W
HStem: -10 50<217.425 306.692> 215 50<225 329.439> 400 50<272.312 351.627>
VStem: 72 130<52.6722 213.644> 352 123<89.1897 200.417 287.428 397.245>
AnchorPoint: "top" 329 490 basechar 0
LayerCount: 2
Fore
SplineSet
475 152 m 0
 475 81 395 -10 227 -10 c 0
 139 -10 72 36 72 120 c 0
 72 132 74 145 77 159 c 2
 106 288 l 2
 119 344 195 450 310 450 c 0
 448 450 480 398 480 351 c 0
 480 265 404 251 389 248 c 1
 449 238 475 194 475 152 c 0
258 40 m 0
 303 40 352 97 352 155 c 0
 352 202 316 215 270 215 c 2
 214 215 l 1
 208 191 202 156 202 124 c 0
 202 80 214 40 258 40 c 0
225 265 m 1
 269 265 l 2
 347 265 357 332 357 355 c 0
 357 383 339 400 317 400 c 0
 267 400 244 346 225 265 c 1
EndSplineSet
Validated: 1
EndChar

StartChar: afii10068
Encoding: 1075 1075 431
Width: 408
VWidth: 0
Flags: W
HStem: -10 50<200.562 295.801> 400 50<187.955 283.335>
VStem: 64 132<44.429 128.759> 288 131<324.127 395.925>
AnchorPoint: "top" 303 490 basechar 0
LayerCount: 2
Fore
SplineSet
288 362 m 0
 288 379 275 400 247 400 c 0
 212 400 152 362 135 331 c 9
 103 339 l 17
 137 408 201 450 272 450 c 0
 387 450 419 412 419 372 c 0
 419 275 196 163 196 79 c 0
 196 58 209 40 237 40 c 0
 272 40 332 77 348 108 c 9
 380 100 l 17
 346 32 283 -10 212 -10 c 0
 99 -10 64 19 64 66 c 0
 64 190 288 301 288 362 c 0
EndSplineSet
Validated: 1
EndChar

StartChar: afii10069
Encoding: 1076 1076 432
Width: 492
VWidth: 0
Flags: W
HStem: -10 50<226.912 315.137> 400 50<296.118 384.313>
VStem: 84 123<70.0919 266.277> 394 126<187.167 390.358>
LayerCount: 2
Fore
SplineSet
520 328 m 0
 520 122 404 -10 240 -10 c 0
 144 -10 84 64 84 161 c 0
 84 272 171 450 346 450 c 0
 367 450 387 447 406 442 c 1
 399 520 364 575 299 628 c 1
 360 674 l 1
 449 590 520 473 520 328 c 0
349 400 m 0
 253 400 207 228 207 145 c 0
 207 87 225 40 266 40 c 0
 372 40 394 256 394 323 c 0
 394 378 378 400 349 400 c 0
EndSplineSet
Validated: 1
EndChar

StartChar: afii10072
Encoding: 1078 1078 434
Width: 629
VWidth: 0
Flags: W
HStem: -10 50<20.1698 73.7354> 0 21G<252 381.641 485 595> 390 50<136 164.091 635.915 685>
VStem: -16 36<41.7456 64> 486 110<0 89.6956>
AnchorPoint: "top" 428 490 basechar 0
LayerCount: 2
Fore
SplineSet
294 181 m 1x78
 165 78 182 -10 49 -10 c 0
 12 -10 -16 14 -16 48 c 0
 -16 53 -15 59 -14 64 c 9
 20 64 l 17
 20 63 20 61 20 60 c 0
 20 49 32 40 46 40 c 0xb8
 54 40 62 45 70 55 c 0
 106 103 166 170 231 221 c 1
 173 281 197 390 124 390 c 1
 136 440 l 1
 297 440 274 307 311 255 c 1
 354 440 l 1
 479 440 l 1
 436 255 l 1
 497 307 536 440 697 440 c 1
 685 390 l 1
 612 390 586 281 500 221 c 1
 559 150 596 45 596 8 c 0
 596 5 595 2 595 0 c 1
 485 0 l 1
 486 4 486 8 486 13 c 0
 486 55 455 135 419 181 c 1
 377 0 l 1
 252 0 l 1
 294 181 l 1x78
EndSplineSet
Validated: 1
EndChar

StartChar: afii10073
Encoding: 1079 1079 435
Width: 438
VWidth: 0
Flags: W
HStem: -10 50<159.23 268.755> 220 50<206 291.926> 400 50<234.316 327.635>
VStem: 304 125<80.4487 207.371> 329 124<302.755 399.376>
AnchorPoint: "top" 323 490 basechar 0
LayerCount: 2
Fore
SplineSet
429 156 m 0xf0
 429 90 382 -10 197 -10 c 0
 111 -10 63 44 50 87 c 1
 131 108 l 1
 139 73 168 40 220 40 c 0
 294 40 304 139 304 160 c 0xf0
 304 201 280 220 230 220 c 2
 195 220 l 1
 206 270 l 1
 234 270 l 2
 315 270 329 339 329 369 c 0
 329 389 322 400 303 400 c 0
 244 400 222 374 208 340 c 1
 132 359 l 1
 158 404 213 450 303 450 c 0
 410 450 453 415 453 364 c 0xe8
 453 296 386 261 363 250 c 1
 410 229 429 195 429 156 c 0xf0
EndSplineSet
Validated: 1
EndChar

StartChar: afii10077
Encoding: 1083 1083 439
Width: 601
VWidth: 0
Flags: W
HStem: -10 50<69.2012 181.424 526.5 632.048> 390 50<424.534 495.627>
VStem: 444 131<40.6581 179.453> 499 126<236.328 386.259> 634 34<45.7963 64>
AnchorPoint: "top" 479 490 basechar 0
LayerCount: 2
Fore
SplineSet
580 135 m 6xd8
 577 120 575 104 575 90 c 4
 575 62 581 40 596 40 c 4
 612 40 631 51 634 64 c 13
 668 64 l 21
 659 24 616 -10 571 -10 c 4
 482 -10 444 23 444 74 c 4xe8
 444 84 446 93 448 104 c 6
 491 289 l 2
 496 314 499 333 499 347 c 0
 499 384 481 390 452 390 c 0
 424 390 383 315 339 127 c 0
 316 28 242 -10 114 -10 c 0
 76 -10 42 4 23 35 c 1
 93 65 l 1
 102 45 121 40 140 40 c 0
 180 40 203 78 222 160 c 0
 277 397 427 440 471 440 c 0
 532 440 625 421 625 342 c 0
 625 333 624 324 621 314 c 2
 580 135 l 6xd8
EndSplineSet
Validated: 1
EndChar

StartChar: afii10078
Encoding: 1084 1084 440
Width: 643
VWidth: 0
Flags: W
HStem: -10 50<-9.54139 43.7347> 0 21G<300.34 344.868 466 595.636> 420 20G<142.344 277.625 553.069 693>
VStem: -46 36<41.4029 64>
AnchorPoint: "top" 434 490 basechar 0
LayerCount: 2
Fore
SplineSet
194 104 m 2x70
 174 17 106 -10 19 -10 c 0
 -20 -10 -46 16 -46 49 c 0
 -46 54 -45 59 -44 64 c 9
 -10 64 l 17
 -10 63 -10 61 -10 60 c 0
 -10 49 0 40 16 40 c 0xb0
 40 40 68 98 76 135 c 2
 147 440 l 1
 272 440 l 1
 353 152 l 1
 568 440 l 1
 693 440 l 1
 591 0 l 1
 466 0 l 1
 527 265 l 1
 330 0 l 1
 306 0 l 1
 231 265 l 1
 194 104 l 2x70
EndSplineSet
Validated: 1
EndChar

StartChar: afii10079
Encoding: 1085 1085 441
Width: 493
VWidth: 0
Flags: W
HStem: -10 50<424.5 524.827> 0 21G<45 174.651> 215 50<231 366> 420 20G<142.364 272 413.314 543>
VStem: 336 131<40.9077 179.102> 526 34<45.5627 64>
AnchorPoint: "top" 359 490 basechar 0
LayerCount: 2
Fore
SplineSet
472 135 m 2x7c
 469 121 467 105 467 90 c 0
 467 63 473 40 488 40 c 0
 505 40 523 51 526 64 c 9
 560 64 l 17
 550 23 508 -10 463 -10 c 0xbc
 386 -10 336 8 336 70 c 0
 336 80 337 91 340 104 c 2
 366 215 l 1
 220 215 l 1
 170 0 l 1
 45 0 l 1
 147 440 l 1
 272 440 l 1
 231 265 l 1
 377 265 l 1
 418 440 l 1
 543 440 l 1
 472 135 l 2x7c
EndSplineSet
Validated: 1
EndChar

StartChar: afii10081
Encoding: 1087 1087 443
Width: 493
VWidth: 0
Flags: W
HStem: 0 21G<45 174.615 316 445.636> 390 50<260 406>
AnchorPoint: "top" 359 490 basechar 0
LayerCount: 2
Fore
SplineSet
543 440 m 1
 441 0 l 1
 316 0 l 1
 406 390 l 1
 260 390 l 1
 170 0 l 1
 45 0 l 1
 147 440 l 1
 543 440 l 1
EndSplineSet
Validated: 1
EndChar

StartChar: afii10085
Encoding: 1091 1091 447
Width: 475
VWidth: 0
Flags: W
HStem: -170 50<148.718 262.308> -10 50<202.46 305.118> 420 20G<137.333 267 403.361 533>
VStem: 75 120<48.5399 222.594>
AnchorPoint: "top" 351 490 basechar 0
LayerCount: 2
Fore
SplineSet
449 78 m 2
 403 -122 364 -170 187 -170 c 0
 132 -170 80 -149 39 -125 c 1
 126 -73 l 1
 150 -108 178 -120 213 -120 c 0
 258 -120 285 -91 306 0 c 1
 279 -7 255 -10 232 -10 c 0
 123 -10 75 31 75 117 c 0
 75 141 79 169 86 200 c 2
 142 440 l 1
 267 440 l 1
 214 212 l 2
 202 160 195 123 195 97 c 0
 195 53 214 40 258 40 c 0
 280 40 299 44 318 52 c 1
 408 440 l 1
 533 440 l 1
 449 78 l 2
EndSplineSet
Validated: 1
EndChar

StartChar: afii10086
Encoding: 1092 1092 448
Width: 743
VWidth: 0
Flags: W
HStem: -210 50<209.626 266.504> -8 50<214.209 307.848 468.146 566.408> 402 50<283.653 370.514 542.241 647.694> 612 50<581.996 639.846>
VStem: 77 123<55.2616 259.647> 174 35<-157.963 -136> 640 35<588 609.963> 652 119<204.368 396.799>
AnchorPoint: "top" 533 700 basechar 0
LayerCount: 2
Fore
SplineSet
532 42 m 0xf1
 595 42 652 245 652 343 c 0
 652 378 645 402 625 402 c 0
 573 402 539 385 516 357 c 1
 454 88 l 1
 464 60 486 42 532 42 c 0xf1
320 402 m 0
 255 402 200 228 200 132 c 0xf8
 200 81 213 42 247 42 c 0
 283 42 310 60 330 88 c 1
 389 342 l 1
 380 378 358 402 320 402 c 0
77 147 m 0
 77 256 146 452 316 452 c 0
 353 452 385 447 411 436 c 1
 437 548 l 2
 452 614 506 662 610 662 c 0
 643 662 675 641 675 605 c 0
 675 599 674 594 673 588 c 1
 639 588 l 1
 639 589 640 591 640 592 c 0xfa
 640 602 630 612 613 612 c 0
 590 612 568 581 553 517 c 2
 535 437 l 1
 560 448 585 452 621 452 c 0
 720 452 771 405 771 309 c 0
 771 144 656 -8 505 -8 c 0
 473 -8 453 -1 437 11 c 1
 412 -96 l 2
 397 -162 343 -210 239 -210 c 0
 205 -210 174 -189 174 -153 c 0
 174 -147 174 -142 176 -136 c 1
 210 -136 l 1
 210 -138 209 -140 209 -141 c 0xf5
 209 -151 218 -160 235 -160 c 0
 258 -160 280 -129 295 -65 c 2
 313 13 l 1
 285 0 254 -8 220 -8 c 0
 122 -8 77 58 77 147 c 0
EndSplineSet
Validated: 1
EndChar

StartChar: afii10088
Encoding: 1094 1094 450
Width: 542
VWidth: 0
Flags: W
HStem: -10 50<212.173 326.167> 420 20G<137.333 267 403.357 533>
VStem: 75 125<51.385 244.531> 326 127<49.1721 177.5> 430 77<-156.188 -90.8211> 516 34<45.2679 64>
AnchorPoint: "top" 349 490 basechar 0
LayerCount: 2
Fore
SplineSet
408 440 m 1xf4
 533 440 l 1
 462 135 l 2
 457 113 453 92 453 76 c 0xf4
 453 54 460 40 478 40 c 0
 494 40 508 47 516 64 c 1
 550 64 l 1
 543 35 514 6 481 -5 c 1
 463 -61 l 1
 495 -72 507 -99 507 -116 c 0
 507 -151 458 -180 419 -194 c 1
 392 -182 l 1
 409 -171 430 -148 430 -124 c 0xec
 430 -103 412 -89 385 -80 c 1
 414 -7 l 1
 384 -2 363 7 349 21 c 1
 326 11 279 -10 232 -10 c 0
 123 -10 75 31 75 117 c 0
 75 141 79 169 86 200 c 2
 142 440 l 1
 267 440 l 1
 214 212 l 2
 205 171 200 140 200 115 c 0
 200 56 225 40 258 40 c 0
 292 40 312 51 327 62 c 1
 327 66 326 71 326 75 c 0
 326 84 328 94 330 104 c 2
 408 440 l 1xf4
EndSplineSet
Validated: 1
EndChar

StartChar: afii10089
Encoding: 1095 1095 451
Width: 473
VWidth: 0
Flags: W
HStem: -10 50<383.5 489.048> 153 50<238.678 319.43> 420 20G<138.5 272 378.368 508>
VStem: 119 116<205.115 373.439> 301 131<41.3001 128.316> 491 34<45.7963 64>
AnchorPoint: "top" 341 490 basechar 0
LayerCount: 2
Fore
SplineSet
437 135 m 2
 434 120 432 104 432 90 c 0
 432 62 438 40 453 40 c 0
 469 40 488 51 491 64 c 9
 525 64 l 17
 516 24 473 -10 428 -10 c 0
 339 -10 301 23 301 74 c 0
 301 84 303 93 305 104 c 2
 320 170 l 1
 309 161 291 153 254 153 c 0
 155 153 119 187 119 268 c 0
 119 311 130 368 147 440 c 1
 272 440 l 1
 247 334 235 275 235 242 c 0
 235 206 250 203 281 203 c 0
 326 203 336 237 339 250 c 2
 383 440 l 1
 508 440 l 1
 437 135 l 2
EndSplineSet
Validated: 1
EndChar

StartChar: afii10090
Encoding: 1096 1096 452
Width: 830
VWidth: 0
Flags: W
HStem: -10 50<209.595 325.83 481.015 616.498 717.5 800.853> 420 20G<138.396 268 410.385 540 691.357 821>
VStem: 75 123<51.154 229.57> 615 127<51.932 182.703> 804 34<45.1097 64>
AnchorPoint: "top" 486 490 basechar 0
LayerCount: 2
Fore
SplineSet
696 440 m 1
 821 440 l 1
 751 135 l 2
 745 113 742 92 742 76 c 0
 742 54 748 40 767 40 c 0
 783 40 796 47 804 64 c 1
 838 64 l 1
 830 27 784 -10 741 -10 c 0
 694 -10 662 0 642 16 c 1
 619 5 584 -10 536 -10 c 0
 473 -10 422 4 396 32 c 1
 357 8 314 -10 273 -10 c 0
 154 -10 75 21 75 119 c 0
 75 136 77 154 82 175 c 2
 143 440 l 1
 268 440 l 1
 212 196 l 2
 203 157 198 128 198 105 c 0
 198 52 224 40 270 40 c 0
 290 40 308 43 325 50 c 1
 415 440 l 1
 540 440 l 1
 484 196 l 2
 475 158 470 128 470 106 c 0
 470 52 497 40 547 40 c 0
 572 40 598 48 617 56 c 1
 616 63 615 69 615 76 c 0
 615 85 616 94 618 104 c 2
 696 440 l 1
EndSplineSet
Validated: 1
EndChar

StartChar: afii10091
Encoding: 1097 1097 453
Width: 830
VWidth: 0
Flags: W
HStem: -10 50<209.595 325.83 481.015 616.498> 420 20G<138.396 268 410.385 540 691.357 821>
VStem: 75 123<51.154 229.57> 615 127<51.932 182.703> 723 77<-156.188 -90.8211> 804 34<45.1959 64>
AnchorPoint: "top" 486 490 basechar 0
LayerCount: 2
Fore
SplineSet
696 440 m 1xf4
 821 440 l 1
 751 135 l 2
 745 113 742 92 742 76 c 0xf4
 742 54 748 40 767 40 c 0
 783 40 796 47 804 64 c 1
 838 64 l 1
 832 37 806 10 775 -3 c 5
 756 -61 l 5
 788 -72 800 -99 800 -116 c 4
 800 -151 751 -180 712 -194 c 5
 685 -182 l 5
 702 -171 723 -148 723 -124 c 4xec
 723 -103 705 -89 678 -80 c 5
 707 -8 l 5
 678 -4 657 4 642 16 c 1
 619 5 584 -10 536 -10 c 0
 473 -10 422 4 396 32 c 1
 357 8 314 -10 273 -10 c 0
 154 -10 75 21 75 119 c 0
 75 136 77 154 82 175 c 2
 143 440 l 1
 268 440 l 1
 212 196 l 2
 203 157 198 128 198 105 c 0
 198 52 224 40 270 40 c 0
 290 40 308 43 325 50 c 1
 415 440 l 1
 540 440 l 1
 484 196 l 2
 475 158 470 128 470 106 c 0
 470 52 497 40 547 40 c 0
 572 40 598 48 617 56 c 1
 616 63 615 69 615 76 c 0
 615 85 616 94 618 104 c 2
 696 440 l 1xf4
EndSplineSet
Validated: 1
EndChar

StartChar: afii10092
Encoding: 1098 1098 454
Width: 564
VWidth: 0
Flags: W
HStem: -10 50<313.234 391.301> 235 50<345.567 422.747> 390 50<125 246>
VStem: 188 119<45.0844 207.688> 429 125<98.257 232.19>
AnchorPoint: "top" 312 490 basechar 0
LayerCount: 2
Fore
SplineSet
554 186 m 0
 554 108 504 -10 321 -10 c 0
 284 -10 188 4 188 114 c 0
 188 130 190 149 195 170 c 2
 246 390 l 1
 113 390 l 1
 125 440 l 1
 383 440 l 1
 345 277 l 1
 363 282 382 285 396 285 c 0
 509 285 554 252 554 186 c 0
332 221 m 1
 312 135 l 2
 308 119 307 105 307 93 c 0
 307 57 323 40 352 40 c 0
 414 40 429 157 429 183 c 0
 429 213 419 235 396 235 c 0
 372 235 350 230 332 221 c 1
EndSplineSet
Validated: 1
EndChar

StartChar: afii10094
Encoding: 1100 1100 456
Width: 448
VWidth: 0
Flags: W
HStem: -10 50<197.234 275.301> 235 50<229.567 306.747> 420 20G<137.333 267>
VStem: 72 119<45.0844 207.766> 313 125<97.451 232.19>
AnchorPoint: "top" 307 490 basechar 0
LayerCount: 2
Fore
SplineSet
216 221 m 1
 196 135 l 2
 192 119 191 105 191 93 c 0
 191 57 207 40 236 40 c 0
 298 40 313 161 313 183 c 0
 313 213 303 235 280 235 c 0
 256 235 234 230 216 221 c 1
438 186 m 0
 438 108 388 -10 205 -10 c 0
 168 -10 72 4 72 114 c 0
 72 130 74 149 79 170 c 2
 142 440 l 1
 267 440 l 1
 229 277 l 1
 247 282 266 285 280 285 c 0
 393 285 438 252 438 186 c 0
EndSplineSet
Validated: 1
EndChar

StartChar: afii10095
Encoding: 1101 1101 457
Width: 461
VWidth: 0
Flags: W
HStem: -10 50<158.519 280.036> 210 50<235 364> 400 50<244.098 356.035>
VStem: 377 123<219.972 372.731>
AnchorPoint: "top" 338 490 basechar 0
LayerCount: 2
Fore
SplineSet
500 285 m 0
 500 187 439 -10 198 -10 c 0
 116 -10 76 26 48 77 c 1
 135 110 l 1
 150 73 151 40 224 40 c 0
 283 40 338 106 364 210 c 1
 223 210 l 1
 235 260 l 1
 374 260 l 1
 376 274 377 287 377 299 c 0
 377 363 353 400 321 400 c 0
 241 400 227 368 197 308 c 1
 121 346 l 1
 169 414 226 450 318 450 c 0
 433 450 500 387 500 285 c 0
EndSplineSet
Validated: 1
EndChar

StartChar: afii10096
Encoding: 1102 1102 458
Width: 662
VWidth: 0
Flags: W
HStem: -10 50<396.89 484.477> 0 21G<45 174.571> 210 50<230 275> 400 50<474.943 560.365> 420 20G<142.364 272>
VStem: 267 119<50.0586 207.519> 570 117<198.978 383.864>
AnchorPoint: "top" 384 490 basechar 0
LayerCount: 2
Fore
SplineSet
687 296 m 0x36
 687 212 640 -10 416 -10 c 0xb6
 314 -10 267 45 267 137 c 0
 267 159 270 184 275 210 c 1
 218 210 l 1
 170 0 l 1
 45 0 l 1
 147 440 l 1
 272 440 l 1x6e
 230 260 l 1
 290 260 l 1
 332 377 432 450 522 450 c 0
 624 450 687 399 687 296 c 0x36
570 335 m 0
 570 376 558 400 525 400 c 0
 402 400 386 109 386 109 c 0
 386 65 401 40 442 40 c 0
 537 40 570 293 570 335 c 0
EndSplineSet
Validated: 1
EndChar

StartChar: afii10097
Encoding: 1103 1103 459
Width: 461
VWidth: 0
Flags: W
HStem: -10 50<384.5 492.048> 0 50<40 90.8912> 175 50<270.063 324> 390 50<293.577 374>
VStem: 117 127<250.646 348.967> 303 129<41.0312 173.508> 494 34<45.7963 64>
AnchorPoint: "top" 368 490 basechar 0
LayerCount: 2
Fore
SplineSet
374 390 m 1x3e
 295 390 244 345 244 298 c 0
 244 261 277 225 336 225 c 1
 374 390 l 1x3e
117 278 m 0
 117 376 220 440 329 440 c 2
 511 440 l 1
 440 135 l 2
 434 110 432 91 432 76 c 0
 432 49 441 40 456 40 c 0
 472 40 491 51 494 64 c 1
 528 64 l 1
 519 24 476 -10 431 -10 c 0xbe
 338 -10 303 15 303 66 c 0
 303 78 305 90 308 104 c 2
 324 175 l 1
 308 175 l 2
 209 175 246 0 28 0 c 1
 40 50 l 1x7e
 109 50 121 135 189 186 c 1
 145 201 117 230 117 278 c 0
EndSplineSet
Validated: 1
EndChar

StartChar: afii10099
Encoding: 1106 1106 462
Width: 475
VWidth: 0
Flags: W
HStem: -170 50<148.718 262.058> 0 21G<40 169.595> 400 50<267.48 367.674> 530 50<134 162 299 328>
VStem: 376 120<208.484 392.404>
LayerCount: 2
Fore
SplineSet
449 78 m 2
 403 -122 364 -170 187 -170 c 0
 132 -170 80 -149 39 -125 c 1
 126 -73 l 1
 150 -108 178 -120 213 -120 c 0
 257 -120 285 -90 305 -4 c 2
 359 228 l 2
 370 279 376 316 376 342 c 0
 376 387 359 400 329 400 c 0
 303 400 278 394 253 383 c 1
 165 0 l 1
 40 0 l 1
 162 530 l 1
 122 530 l 1
 134 580 l 1
 174 580 l 1
 192 660 l 1
 317 660 l 1
 299 580 l 1
 340 580 l 1
 328 530 l 1
 287 530 l 1
 267 443 l 1
 286 447 306 450 326 450 c 0
 439 450 496 405 496 313 c 0
 496 291 493 267 486 240 c 2
 449 78 l 2
EndSplineSet
Validated: 1
EndChar

StartChar: afii10101
Encoding: 1108 1108 464
Width: 461
VWidth: 0
Flags: W
HStem: -10 50<218.789 344.87> 210 50<217 355> 400 50<286.546 402.764>
VStem: 73 121<69.5799 209.155> 426 82<343.841 376.072>
AnchorPoint: "top" 359 490 basechar 0
LayerCount: 2
Fore
SplineSet
73 158 m 0
 73 319 216 450 340 450 c 0
 432 450 492 415 508 347 c 1
 426 310 l 1
 423 370 398 400 343 400 c 0
 288 400 244 347 217 260 c 1
 367 260 l 1
 355 210 l 1
 203 210 l 1
 198 182 194 157 194 135 c 0
 194 75 219 40 280 40 c 0
 331 40 358 69 389 106 c 1
 459 77 l 1
 407 26 336 -10 254 -10 c 0
 144 -10 73 54 73 158 c 0
EndSplineSet
Validated: 1
EndChar

StartChar: afii10106
Encoding: 1113 1113 469
Width: 832
VWidth: 0
Flags: W
HStem: -10 50<69.2012 181.424 581.234 659.301> 235 50<613.567 690.747> 390 50<424.534 495.627>
VStem: 456 119<45.0844 207.375> 499 126<277.711 386.259> 697 125<97.451 232.19>
AnchorPoint: "top" 479 490 basechar 0
LayerCount: 2
Fore
SplineSet
600 221 m 1xf4
 580 135 l 2
 576 119 575 105 575 93 c 0
 575 57 591 40 620 40 c 0
 682 40 697 161 697 183 c 0
 697 213 687 235 664 235 c 0
 640 235 618 230 600 221 c 1xf4
491 289 m 2
 496 314 499 333 499 347 c 0
 499 384 481 390 452 390 c 0
 424 390 383 315 339 127 c 0
 316 28 242 -10 114 -10 c 0
 76 -10 42 4 23 35 c 1
 93 65 l 1
 102 45 121 40 140 40 c 0
 180 40 203 78 222 160 c 0
 277 397 427 440 471 440 c 0
 532 440 625 421 625 342 c 0xec
 625 333 624 324 621 314 c 2
 613 277 l 1
 631 282 650 285 664 285 c 0
 777 285 822 252 822 186 c 0
 822 108 772 -10 589 -10 c 0
 552 -10 456 4 456 114 c 0
 456 130 458 149 463 170 c 2
 491 289 l 2
EndSplineSet
Validated: 1
EndChar

StartChar: afii10107
Encoding: 1114 1114 470
Width: 724
VWidth: 0
Flags: W
HStem: -10 50<473.234 551.301> 0 21G<45 174.651> 215 50<231 366> 235 50<505.567 582.747> 420 20G<142.364 272 413.314 543>
VStem: 348 119<45.0844 207.766> 589 125<97.451 232.19>
AnchorPoint: "top" 359 490 basechar 0
LayerCount: 2
Fore
SplineSet
714 186 m 0x1e
 714 108 664 -10 481 -10 c 0x9e
 444 -10 348 4 348 114 c 0
 348 130 350 149 355 170 c 2
 366 215 l 1
 220 215 l 1
 170 0 l 1
 45 0 l 1
 147 440 l 1
 272 440 l 1
 231 265 l 1
 377 265 l 1x6e
 418 440 l 1
 543 440 l 1
 505 277 l 1
 523 282 542 285 556 285 c 0
 669 285 714 252 714 186 c 0x1e
492 221 m 1
 472 135 l 2
 468 119 467 105 467 93 c 0
 467 57 483 40 512 40 c 0
 574 40 589 161 589 183 c 0
 589 213 579 235 556 235 c 0
 532 235 510 230 492 221 c 1
EndSplineSet
Validated: 1
EndChar

StartChar: afii10108
Encoding: 1115 1115 471
Width: 475
VWidth: 0
Flags: W
HStem: 0 21G<40 169.595 306 435.583> 400 50<267.48 367.674> 530 50<134 162 299 328>
VStem: 376 120<208.312 392.404>
LayerCount: 2
Fore
SplineSet
253 383 m 1
 165 0 l 1
 40 0 l 1
 162 530 l 1
 122 530 l 1
 134 580 l 1
 174 580 l 1
 192 660 l 1
 317 660 l 1
 299 580 l 1
 340 580 l 1
 328 530 l 1
 287 530 l 1
 267 443 l 1
 286 447 306 450 326 450 c 0
 439 450 496 405 496 313 c 0
 496 291 493 267 486 240 c 2
 431 0 l 1
 306 0 l 1
 359 228 l 2
 370 279 376 316 376 342 c 0
 376 387 359 400 329 400 c 0
 303 400 278 394 253 383 c 1
EndSplineSet
Validated: 1
EndChar

StartChar: afii10193
Encoding: 1119 1119 475
Width: 542
VWidth: 0
Flags: W
HStem: -10 50<218 326.042 428.103 512.65> 420 20G<137.333 267 403.357 533>
VStem: 75 125<50.8454 244.531> 168 77<-156.188 -90.8211> 326 127<49.1721 177.5> 516 34<45.2679 64>
AnchorPoint: "top" 349 490 basechar 0
LayerCount: 2
Fore
SplineSet
408 440 m 1xec
 533 440 l 1
 462 135 l 2
 457 113 453 92 453 76 c 0
 453 54 460 40 478 40 c 0
 494 40 508 47 516 64 c 1
 550 64 l 1
 541 27 496 -10 453 -10 c 0
 402 -10 368 2 349 21 c 1
 326 11 279 -10 232 -10 c 0
 227 -10 223 -10 218 -10 c 1
 201 -61 l 1
 233 -72 245 -99 245 -116 c 0
 245 -151 196 -180 157 -194 c 1
 130 -182 l 1
 147 -171 168 -148 168 -124 c 0xdc
 168 -103 150 -89 123 -80 c 1
 155 -0 l 1
 100 17 75 55 75 117 c 0
 75 141 79 169 86 200 c 2
 142 440 l 1
 267 440 l 1
 214 212 l 2
 205 171 200 140 200 115 c 0
 200 56 225 40 258 40 c 0
 292 40 312 51 327 62 c 1
 327 66 326 71 326 75 c 0
 326 84 328 94 330 104 c 2
 408 440 l 1xec
EndSplineSet
Validated: 1
EndChar

StartChar: afii61352
Encoding: 8470 8470 476
Width: 1019
VWidth: 0
Flags: W
HStem: -10 50<59.7314 171.567> 0 21G<599.165 698.63> 170 30<787 1013> 252 30<897.982 953.347> 458 30<936.833 988.964> 660 50<859.125 971.263> 680 20G<332.37 430.819>
VStem: 828 66<283.343 410.544> 992 65<325.8 457.56>
LayerCount: 2
Fore
SplineSet
787 200 m 1x3980
 1020 200 l 1
 1013 170 l 1
 780 170 l 1
 787 200 l 1x3980
926 282 m 0
 979 282 992 414 992 426 c 0
 992 446 986 458 967 458 c 0
 909 458 894 332 894 315 c 0
 894 294 902 282 926 282 c 0
1057 406 m 0
 1057 352 1021 252 911 252 c 0
 857 252 828 283 828 333 c 0
 828 425 906 488 966 488 c 0
 1022 488 1057 460 1057 406 c 0
694 0 m 1x7d80
 607 0 l 1x7d80
 417 485 l 1
 335 128 l 2
 312 28 179 -10 109 -10 c 0
 71 -10 32 4 13 35 c 1
 83 65 l 1
 92 45 111 40 130 40 c 0
 170 40 193 78 212 160 c 2
 337 700 l 1
 423 700 l 1xbb80
 613 214 l 1
 696 572 l 2
 719 672 852 710 922 710 c 0
 960 710 999 696 1018 665 c 1
 948 635 l 1
 939 655 919 660 900 660 c 0
 860 660 838 622 819 540 c 2
 694 0 l 1x7d80
EndSplineSet
Validated: 1
EndChar

StartChar: afii10050
Encoding: 1168 1168 477
Width: 439
VWidth: 0
Flags: W
HStem: 0 21G<45 179.615> 650 50<325 545>
AnchorPoint: "top" 417 700 basechar 0
LayerCount: 2
Fore
SplineSet
175 0 m 1
 45 0 l 1
 207 700 l 1
 545 700 l 1
 564 784 l 1
 630 784 l 1
 599 650 l 1
 325 650 l 1
 175 0 l 1
EndSplineSet
Validated: 1
EndChar

StartChar: afii10098
Encoding: 1169 1169 478
Width: 349
VWidth: 0
Flags: W
HStem: 0 21G<45 174.615> 390 50<260 370>
AnchorPoint: "top" 304 490 basechar 0
LayerCount: 2
Fore
SplineSet
170 0 m 1
 45 0 l 1
 147 440 l 1
 370 440 l 1
 390 530 l 1
 456 530 l 1
 424 390 l 1
 260 390 l 1
 170 0 l 1
EndSplineSet
Validated: 1
EndChar

StartChar: hookabovecomb
Encoding: 777 777 479
Width: 0
VWidth: 0
Flags: W
HStem: 702 30<-162.955 -83.5>
VStem: -107 57<652.086 701.78>
AnchorPoint: "top" -153 580 mark 0
LayerCount: 2
Fore
SplineSet
-50 693 m 0
 -50 641 -130 628 -137 599 c 9
 -162 599 l 1
 -155 629 -107 649 -107 687 c 0
 -107 695 -111 702 -126 702 c 0
 -152 702 -172 694 -172 694 c 9
 -167 715 l 1
 -167 715 -136 732 -105 732 c 0
 -62 732 -50 711 -50 693 c 0
EndSplineSet
Validated: 1
EndChar

StartChar: uni031B
Encoding: 795 795 480
Width: 0
VWidth: 0
Flags: W
HStem: 515 21<5 36.1049> 680 20G<73.5 177>
VStem: -0 177
AnchorPoint: "horn" 2 525 mark 0
LayerCount: 2
Fore
SplineSet
5 536 m 1
 39 536 73 568 73 614 c 0
 73 629 71 645 71 664 c 0
 71 675 72 687 75 700 c 1
 177 700 l 1
 147 570 52 515 -0 515 c 1
 5 536 l 1
EndSplineSet
Validated: 1
EndChar

StartChar: dotbelowcomb
Encoding: 803 803 481
Width: 0
VWidth: 0
Flags: W
HStem: -133 83<-342 -278>
VStem: -361 102
AnchorPoint: "bottom" -288 0 mark 0
LayerCount: 2
Fore
SplineSet
-342 -50 m 1
 -259 -50 l 1
 -278 -133 l 1
 -361 -133 l 1
 -342 -50 l 1
EndSplineSet
Validated: 1
EndChar

StartChar: uni0325
Encoding: 805 805 483
Width: 0
VWidth: 0
Flags: W
HStem: -192 35<-352.089 -285.838> -75 35<-340.807 -275.451>
VStem: -392 36<-153.877 -89.7529> -272 36<-143.654 -78.1234>
AnchorPoint: "bottom" -287 0 mark 0
LayerCount: 2
Fore
SplineSet
-304 -75 m 0
 -327 -75 -356 -96 -356 -125 c 0
 -356 -143 -343 -157 -323 -157 c 0
 -300 -157 -272 -136 -272 -107 c 0
 -272 -89 -285 -75 -304 -75 c 0
-392 -133 m 0
 -392 -81 -341 -40 -296 -40 c 0
 -260 -40 -236 -65 -236 -99 c 0
 -236 -151 -287 -192 -331 -192 c 0
 -367 -192 -392 -167 -392 -133 c 0
EndSplineSet
Validated: 1
EndChar

StartChar: uni032C
Encoding: 812 812 484
Width: 0
VWidth: 0
Flags: W
HStem: -219 189
VStem: -416 234
AnchorPoint: "bottom" -286 0 mark 0
LayerCount: 2
Fore
SplineSet
-337 -219 m 1
 -416 -56 l 1
 -379 -30 l 1
 -313 -118 l 1
 -207 -30 l 1
 -182 -56 l 1
 -337 -219 l 1
EndSplineSet
Validated: 1
EndChar

StartChar: uni032D
Encoding: 813 813 485
Width: 0
VWidth: 0
Flags: W
HStem: -219 189
VStem: -448 234
AnchorPoint: "bottom" -286 0 mark 0
LayerCount: 2
Fore
SplineSet
-293 -30 m 1
 -214 -193 l 1
 -251 -219 l 1
 -316 -131 l 1
 -423 -219 l 1
 -448 -193 l 1
 -293 -30 l 1
EndSplineSet
Validated: 1
EndChar

StartChar: uni032E
Encoding: 814 814 486
Width: 0
VWidth: 0
Flags: W
HStem: -133 57<-359.178 -245.084>
VStem: -410 41<-61.7018 -40.1406>
AnchorPoint: "bottom" -287 0 mark 0
LayerCount: 2
Fore
SplineSet
-305 -76 m 0
 -268 -76 -227 -52 -219 -30 c 1
 -183 -40 l 1
 -201 -90 -260 -133 -318 -133 c 0
 -372 -133 -410 -95 -410 -49 c 0
 -410 -46 -410 -43 -409 -40 c 1
 -369 -30 l 1
 -369 -32 l 2
 -369 -54 -341 -76 -305 -76 c 0
EndSplineSet
Validated: 1
EndChar

StartChar: uni032F
Encoding: 815 815 487
Width: 0
VWidth: 0
Flags: W
HStem: -97 57<-368.916 -254.822>
VStem: -245 41<-132.859 -111.298>
AnchorPoint: "bottom" -287 0 mark 0
LayerCount: 2
Fore
SplineSet
-309 -97 m 0
 -346 -97 -387 -121 -395 -143 c 1
 -431 -133 l 1
 -413 -83 -354 -40 -296 -40 c 0
 -242 -40 -204 -78 -204 -124 c 0
 -204 -127 -204 -130 -205 -133 c 1
 -245 -143 l 2
 -245 -142 -245 -142 -245 -141 c 0
 -245 -119 -273 -97 -309 -97 c 0
EndSplineSet
Validated: 1
EndChar

StartChar: uni0330
Encoding: 816 816 488
Width: 0
VWidth: 0
Flags: W
HStem: -139 57<-310.143 -215.068> -107 57<-412.932 -317.857>
VStem: -462 296
AnchorPoint: "bottom" -287 0 mark 0
LayerCount: 2
Fore
SplineSet
-207 -50 m 1x60
 -166 -50 l 1x60
 -183 -100 -226 -139 -284 -139 c 0xa0
 -318 -139 -340 -107 -362 -107 c 0x60
 -392 -107 -413 -117 -421 -139 c 1
 -462 -139 l 1xa0
 -445 -89 -402 -50 -344 -50 c 0x60
 -310 -50 -288 -82 -266 -82 c 0xa0
 -236 -82 -215 -72 -207 -50 c 1x60
EndSplineSet
Validated: 1
EndChar

StartChar: uni0331
Encoding: 817 817 489
Width: 0
VWidth: 0
Flags: W
HStem: -100 40<-421 -200>
VStem: -430 239
AnchorPoint: "bottom" -287 0 mark 0
LayerCount: 2
Fore
SplineSet
-421 -60 m 1
 -191 -60 l 1
 -200 -100 l 1
 -430 -100 l 1
 -421 -60 l 1
EndSplineSet
Validated: 1
EndChar

StartChar: Uhorn
Encoding: 431 431 492
Width: 658
VWidth: 0
UnlinkRmOvrlpSave: 1
Flags: W
HStem: -10 50<243.063 381.24> 520 21<688 719.105> 680 20G<187.373 322 590.373 725 756.5 860>
VStem: 86 124<88.8447 310.562>
AnchorPoint: "bottom" 306 0 basechar 0
AnchorPoint: "top" 468 700 basechar 0
LayerCount: 2
Fore
SplineSet
595 700 m 1
 725 700 l 1
 688 541 l 1
 722 541 756 573 756 619 c 0
 756 634 754 650 754 669 c 0
 754 680 755 692 758 705 c 1
 860 705 l 1
 830 575 735 520 683 520 c 1
 632 298 l 2
 574 48 436 -10 292 -10 c 0
 202 -10 86 31 86 194 c 0
 86 224 90 259 99 298 c 2
 192 700 l 1
 322 700 l 1
 229 298 l 2
 216 242 210 198 210 163 c 0
 210 61 258 40 309 40 c 0
 385 40 453 88 502 298 c 2
 595 700 l 1
EndSplineSet
EndChar

StartChar: uhorn
Encoding: 432 432 493
Width: 542
VWidth: 0
UnlinkRmOvrlpSave: 1
Flags: W
HStem: -10 50<212.173 326.167 427.5 512.65> 300 21<505 536.599> 420 20G<137.333 267 403.357 533>
VStem: 75 125<51.385 244.531> 326 127<49.1721 177.5> 516 34<45.2679 64>
AnchorPoint: "bottom" 230 0 basechar 0
AnchorPoint: "top" 351 490 basechar 0
LayerCount: 2
Fore
SplineSet
408 440 m 1
 533 440 l 1
 505 321 l 1
 539 321 574 353 574 399 c 0
 574 414 572 430 572 449 c 0
 572 460 573 472 576 485 c 1
 678 485 l 1
 648 355 553 300 500 300 c 1
 462 135 l 2
 457 113 453 92 453 76 c 0
 453 54 460 40 478 40 c 0
 494 40 508 47 516 64 c 1
 550 64 l 1
 541 27 496 -10 453 -10 c 0
 402 -10 368 2 349 21 c 1
 326 11 279 -10 232 -10 c 0
 123 -10 75 31 75 117 c 0
 75 141 79 169 86 200 c 2
 142 440 l 1
 267 440 l 1
 214 212 l 2
 205 171 200 140 200 115 c 0
 200 56 225 40 258 40 c 0
 292 40 312 51 327 62 c 1
 327 66 326 71 326 75 c 0
 326 84 328 94 330 104 c 2
 408 440 l 1
EndSplineSet
EndChar

StartChar: uni0181
Encoding: 385 385 588
Width: 683
VWidth: 0
Flags: W
HStem: 0 50<365 479.681> 355 50<447 516.461> 448 21G<224 260.538> 650 50<323.804 372 503 576.65>
VStem: 145 116<491.582 595.112> 564 131<144.315 320.532> 599 132<487.45 630.119>
LayerCount: 2
Fore
SplineSet
447 405 m 1xfa
 517 406 599 471 599 566 c 0
 599 606 584 650 523 650 c 2
 503 650 l 1
 447 405 l 1xfa
731 580 m 0
 731 465 644 406 609 388 c 1
 671 360 695 303 695 243 c 0xfc
 695 128 611 0 423 0 c 2
 223 0 l 1
 372 647 l 1
 270 630 261 549 261 530 c 0
 261 509 271 506 279 500 c 1
 249 448 l 1
 199 455 145 480 145 532 c 0
 145 600 230 700 385 700 c 2
 565 700 l 2
 692 700 731 648 731 580 c 0
405 50 m 2
 506 50 564 147 564 239 c 0
 564 297 541 355 475 355 c 2
 435 355 l 1
 365 50 l 1
 405 50 l 2
EndSplineSet
Validated: 1
EndChar

StartChar: uni018A
Encoding: 394 394 589
Width: 775
VWidth: 0
Flags: W
HStem: 0 50<365 516.013> 448 21G<224 260.538> 650 50<323.804 372 503 649.845>
VStem: 145 116<491.582 595.112> 698 129<349.729 598.965>
LayerCount: 2
Fore
SplineSet
503 650 m 1
 365 50 l 1
 447 50 l 2
 532 50 628 140 679 360 c 0
 692 416 698 462 698 500 c 0
 698 611 648 650 585 650 c 2
 503 650 l 1
827 498 m 0
 827 378 755 0 465 0 c 2
 223 0 l 1
 372 647 l 1
 270 630 261 549 261 530 c 0
 261 509 271 506 279 500 c 1
 249 448 l 1
 199 455 145 480 145 532 c 0
 145 600 230 700 385 700 c 2
 627 700 l 2
 752 700 827 640 827 498 c 0
EndSplineSet
Validated: 1
EndChar

StartChar: uni0253
Encoding: 595 595 590
Width: 527
VWidth: 0
Flags: W
HStem: -10 50<229.095 335.904> 400 50<296.592 411.837> 620 50<341.329 445.905>
VStem: 101 119<48.8166 209.852> 425 120<191.591 383.935>
LayerCount: 2
Fore
SplineSet
545 296 m 0
 545 202 491 -10 266 -10 c 0
 182 -10 101 8 101 113 c 0
 101 132 104 155 110 180 c 2
 191 533 l 6
 214 632 332 670 402 670 c 4
 440 670 473 656 492 625 c 5
 422 595 l 5
 413 615 394 620 375 620 c 4
 339 620 327 582 308 500 c 6
 294 438 l 1
 319 446 346 450 372 450 c 0
 498 450 545 385 545 296 c 0
292 40 m 0
 374 40 425 232 425 323 c 0
 425 367 412 400 375 400 c 0
 336 400 304 387 277 364 c 1
 227 148 l 2
 222 126 220 109 220 95 c 0
 220 49 245 40 292 40 c 0
EndSplineSet
Validated: 1
EndChar

StartChar: uni0257
Encoding: 599 599 591
Width: 573
VWidth: 0
Flags: W
HStem: -10 50<205.405 308.016 466.755 528.536> 400 50<285.24 377.974> 620 50<595.329 699.905>
VStem: 74 116<63.2422 244.044> 532 34<46.9489 64>
LayerCount: 2
Fore
SplineSet
478 135 m 2
 472 110 466 87 466 70 c 0
 466 52 473 40 494 40 c 0
 511 40 527 54 532 64 c 1
 566 64 l 1
 557 27 512 -10 469 -10 c 0
 423 -10 390 2 369 21 c 1
 328 -1 281 -10 230 -10 c 0
 121 -10 74 65 74 155 c 0
 74 287 176 450 336 450 c 0
 369 450 397 443 421 431 c 1
 445 533 l 6
 468 632 586 670 656 670 c 4
 694 670 727 656 746 625 c 5
 676 595 l 5
 667 615 648 620 629 620 c 4
 593 620 581 582 562 500 c 6
 478 135 l 2
256 40 m 0
 375 40 388 315 388 328 c 0
 388 370 376 400 339 400 c 0
 206 400 190 118 190 118 c 0
 190 73 206 40 256 40 c 0
EndSplineSet
Validated: 1
EndChar

StartChar: uni018E
Encoding: 398 398 592
Width: 548
VWidth: 0
Flags: W
HStem: 0 50<61 351> 390 50<257 429> 650 50<227 489>
LayerCount: 2
Fore
SplineSet
49 0 m 1
 61 50 l 9
 351 50 l 1
 429 390 l 1
 245 390 l 17
 257 440 l 9
 441 440 l 1
 489 650 l 1
 215 650 l 17
 227 700 l 1
 631 700 l 1
 469 0 l 1
 49 0 l 1
EndSplineSet
Validated: 1
EndChar

StartChar: uni01DD
Encoding: 477 477 593
Width: 471
VWidth: 0
Flags: W
HStem: -10 50<195.574 296.16> 170 50<191.814 358> 400 50<232.588 362.773>
VStem: 73 114<67.6214 165.835> 384 120<222.433 370.034>
LayerCount: 2
Fore
SplineSet
504 282 m 0
 504 121 361 -10 237 -10 c 0
 123 -10 73 71 73 161 c 0
 73 194 93 220 144 220 c 2
 371 220 l 1
 379 255 384 286 384 312 c 0
 384 368 361 400 297 400 c 0
 246 400 223 377 208 340 c 1
 118 363 l 1
 170 414 241 450 323 450 c 0
 433 450 504 386 504 282 c 0
358 170 m 1
 235 170 l 2
 194 170 187 156 187 101 c 0
 187 64 198 40 234 40 c 0
 297 40 333 89 358 170 c 1
EndSplineSet
Validated: 1
EndChar

StartChar: uni0198
Encoding: 408 408 595
Width: 694
VWidth: 0
Flags: W
HStem: 0 21G<85 219.643 481.854 602> 655 55<683.305 766.28> 680 20G<242.371 377>
VStem: 770 98<553.459 651.555>
LayerCount: 2
Fore
SplineSet
716 528 m 1xd0
 730 536 770 559 770 614 c 0
 770 637 758 655 734 655 c 0xd0
 710 655 696 650 578 545 c 2
 391 379 l 1
 602 0 l 1
 493 0 l 1
 318 314 l 1
 280 280 l 1
 215 0 l 1
 85 0 l 1
 247 700 l 1
 377 700 l 1xb0
 309 408 l 1
 565 635 l 2
 619 683 671 710 736 710 c 0
 821 710 868 678 868 617 c 0
 868 559 834 502 733 472 c 1
 716 528 l 1xd0
EndSplineSet
Validated: 1
EndChar

StartChar: uni0199
Encoding: 409 409 596
Width: 479
VWidth: 0
Flags: W
HStem: 0 21G<72 201.641 328.84 446> 420 20G<395.612 530> 620 50<345.329 449.905>
LayerCount: 2
Fore
SplineSet
268 306 m 1
 418 440 l 1
 530 440 l 1
 311 245 l 1
 446 0 l 1
 340 0 l 1
 239 181 l 1
 197 0 l 1
 72 0 l 1
 195 533 l 2
 218 632 336 670 406 670 c 0
 444 670 477 656 496 625 c 1
 426 595 l 1
 417 615 398 620 379 620 c 0
 343 620 331 582 312 500 c 2
 268 306 l 1
EndSplineSet
Validated: 1
EndChar

StartChar: Engsami
Encoding: 58626 58626 599
Width: 616
VWidth: 0
Flags: W
HStem: -170 50<281.718 389.601> 0 21G<45 179.61> 680 20G<202.371 343.259 591.355 726>
LayerCount: 2
Fore
SplineSet
296 525 m 1
 175 0 l 1
 45 0 l 1
 207 700 l 1
 338 700 l 1
 475 179 l 1
 596 700 l 1
 726 700 l 1
 582 78 l 2
 536 -122 497 -170 320 -170 c 0
 265 -170 213 -149 172 -125 c 1
 259 -73 l 1
 283 -108 311 -120 346 -120 c 0
 390 -120 410 -86 434 0 c 1
 296 525 l 1
EndSplineSet
Validated: 1
EndChar

StartChar: uni0193
Encoding: 403 403 600
Width: 717
VWidth: 0
Flags: W
HStem: -10 50<313.284 486.689> 350 50<493 566> 650 50<421.295 590.145> 657 50<763.048 868.799>
VStem: 118 127<136.527 371.168>
LayerCount: 2
Fore
SplineSet
493 400 m 1xe8
 702 400 l 1
 634 102 l 1
 569 38 469 -10 360 -10 c 0
 249 -10 118 70 118 249 c 0
 118 280 123 313 131 350 c 0
 189 600 374 700 505 700 c 0xe8
 575 700 642 691 685 665 c 1
 727 696 781 707 824 707 c 0
 862 707 896 693 915 662 c 1
 845 632 l 1
 836 652 817 657 798 657 c 0xd8
 762 657 750 619 731 537 c 1
 613 504 l 1
 618 524 620 541 620 556 c 0
 620 624 577 650 508 650 c 0
 392 650 309 560 261 350 c 0
 250 303 245 262 245 227 c 0
 245 96 311 40 386 40 c 0
 427 40 465 49 500 66 c 1
 566 350 l 1
 482 350 l 1
 493 400 l 1xe8
EndSplineSet
Validated: 1
EndChar

StartChar: uni019D
Encoding: 413 413 601
Width: 681
VWidth: 0
Flags: W
HStem: -170 50<-65.7988 39.4831> 0 21G<487 621.609> 620 50<404.494 571.057>
VStem: 600 129<400.75 581.417>
LayerCount: 2
Fore
SplineSet
194 -33 m 2
 171 -132 49 -170 -21 -170 c 0
 -59 -170 -93 -156 -112 -125 c 1
 -42 -95 l 1
 -33 -115 -14 -120 5 -120 c 0
 41 -120 53 -82 72 0 c 2
 224 660 l 1
 354 660 l 1
 347 626 l 1
 382 642 424 670 497 670 c 0
 621 670 729 616 729 505 c 0
 729 491 727 476 723 460 c 2
 617 0 l 17
 487 0 l 9
 590 448 l 2
 597 477 600 502 600 522 c 0
 600 600 555 620 500 620 c 0
 428 620 370 583 330 554 c 1
 194 -33 l 2
EndSplineSet
Validated: 1
EndChar

StartChar: uni01B3
Encoding: 435 435 602
Width: 599
VWidth: 0
Flags: W
HStem: 0 21G<187 321.604> 657 55<594.031 677.665> 680 20G<173 304.597>
VStem: 686 72<591 649.515>
LayerCount: 2
Fore
SplineSet
407 391 m 1xd0
 317 0 l 1
 187 0 l 1
 269 355 l 1
 173 700 l 1
 299 700 l 1xb0
 367 457 l 1
 456 578 l 2
 495 631 562 712 656 712 c 0
 724 712 758 667 758 617 c 0
 758 609 757 600 755 591 c 1
 684 585 l 1
 686 592 686 598 686 604 c 0
 686 635 668 657 640 657 c 0
 601 657 574 617 535 564 c 2
 407 391 l 1xd0
EndSplineSet
Validated: 1
EndChar

StartChar: uni01B4
Encoding: 436 436 603
Width: 587
VWidth: 0
Flags: W
HStem: -170 50<60.3007 135.581> 400 50<516.056 591.603> 420 20G<145 255.612>
LayerCount: 2
Fore
SplineSet
268 -24 m 2xc0
 214 -115 157 -170 80 -170 c 0
 41 -170 -15 -147 -25 -88 c 1
 74 -74 l 1
 77 -109 95 -120 106 -120 c 0
 123 -120 154 -82 190 -22 c 2
 203 0 l 1
 145 440 l 1
 253 440 l 1xa0
 291 149 l 1
 383 304 l 2
 437 395 495 450 572 450 c 0
 611 450 667 427 677 368 c 1
 578 354 l 1
 575 389 556 400 545 400 c 0
 528 400 498 362 462 302 c 2
 268 -24 l 2xc0
EndSplineSet
Validated: 1
EndChar

StartChar: uni0260
Encoding: 608 608 604
Width: 542
VWidth: 0
Flags: W
HStem: -170 50<153.655 266.169> -10 50<227.884 308.392> 400 50<295.047 396.47> 499 50<555.142 660.905>
VStem: 86 122<61.5686 255.922>
LayerCount: 2
Fore
SplineSet
342 400 m 0
 254 400 208 211 208 130 c 0
 208 73 229 40 279 40 c 0
 294 40 309 42 322 46 c 1
 398 377 l 1
 384 392 366 400 342 400 c 0
86 150 m 0
 86 304 208 450 339 450 c 0
 367 450 393 445 414 436 c 1
 449 517 553 549 617 549 c 0
 655 549 688 535 707 504 c 1
 637 474 l 1
 628 494 609 499 590 499 c 0
 555 499 542 463 523 379 c 2
 454 78 l 2
 408 -122 369 -170 192 -170 c 0
 137 -170 84 -149 44 -125 c 1
 131 -73 l 1
 155 -108 183 -120 218 -120 c 0
 262 -120 285 -90 309 -4 c 1
 291 -8 272 -10 253 -10 c 0
 146 -10 86 51 86 150 c 0
EndSplineSet
Validated: 1
EndChar

StartChar: uni0272
Encoding: 626 626 605
Width: 473
VWidth: 0
Flags: W
HStem: -170 50<-97.7988 7.02221> 0 21G<306 435.583> 400 50<60.147 145.5 250.634 367.674>
VStem: 23 34<376 394.89> 119 127<256.312 380.99> 376 120<208.312 392.404>
LayerCount: 2
Fore
SplineSet
157 -33 m 6
 133 -134 17 -170 -53 -170 c 4
 -91 -170 -125 -156 -144 -125 c 5
 -74 -95 l 5
 -65 -115 -46 -120 -27 -120 c 4
 9 -120 21 -82 40 0 c 6
 110 305 l 2
 116 327 119 348 119 364 c 0
 119 386 113 400 94 400 c 0
 78 400 65 393 57 376 c 1
 23 376 l 1
 31 413 77 450 120 450 c 0
 171 450 204 438 224 419 c 1
 244 430 279 450 326 450 c 0
 439 450 496 405 496 313 c 0
 496 291 493 267 486 240 c 2
 431 0 l 1
 306 0 l 9
 359 228 l 2
 370 279 376 316 376 342 c 0
 376 387 359 400 329 400 c 0
 293 400 266 388 245 375 c 1
 246 372 246 368 246 364 c 0
 246 355 245 346 243 336 c 2
 157 -33 l 6
EndSplineSet
Validated: 1
EndChar

StartChar: uni0186
Encoding: 390 390 606
Width: 650
VWidth: 0
Flags: W
HStem: -10 50<215.327 373.756> 660 50<366.286 528.96>
VStem: 581 123<350.015 576.898>
AnchorPoint: "top" 474 700 basechar 0
LayerCount: 2
Fore
SplineSet
74 102 m 1
 174 129 l 1
 198 72 215 40 292 40 c 0
 387 40 510 130 561 350 c 0
 575 409 581 460 581 502 c 0
 581 609 537 660 454 660 c 0
 370 660 340 622 296 575 c 1
 193 608 l 1
 252 665 345 710 481 710 c 0
 591 710 704 633 704 461 c 0
 704 428 700 391 691 350 c 0
 633 100 426 -10 296 -10 c 0
 187 -10 109 38 74 102 c 1
EndSplineSet
Validated: 1
EndChar

StartChar: uni0254
Encoding: 596 596 607
Width: 497
VWidth: 0
Flags: W
HStem: -10 50<173.151 297.812> 400 50<275.976 377.732>
VStem: 395 118<192.154 368.448>
AnchorPoint: "top" 359 490 basechar 0
LayerCount: 2
Fore
SplineSet
513 278 m 0
 513 141 399 -10 227 -10 c 0
 145 -10 90 26 62 77 c 1
 157 100 l 1
 171 63 172 40 223 40 c 0
 318 40 356 110 381 220 c 0
 390 258 395 291 395 318 c 0
 395 370 375 400 326 400 c 0
 271 400 262 357 232 297 c 1
 139 330 l 1
 187 398 261 450 353 450 c 0
 438 450 513 384 513 278 c 0
EndSplineSet
Validated: 1
EndChar

StartChar: uni0190
Encoding: 400 400 608
Width: 526
VWidth: 0
Flags: W
HStem: -10 50<245.085 361.17> 390 50<358.183 430> 660 50<376.015 494.008>
VStem: 85 130<85.6949 259.536> 194 131<471.765 596.903>
AnchorPoint: "top" 432 700 basechar 0
LayerCount: 2
Fore
SplineSet
410 390 m 2xe8
 306 390 215 276 215 167 c 0
 215 108 234 40 287 40 c 0
 354 40 392 74 423 144 c 1
 509 119 l 1
 464 46 394 -10 286 -10 c 0
 136 -10 85 95 85 176 c 0xf0
 85 264 160 371 264 415 c 1
 213 439 194 479 194 520 c 0
 194 629 309 710 443 710 c 0
 512 710 577 676 599 605 c 1
 514 583 l 1
 511 629 496 660 422 660 c 0
 378 660 325 592 325 529 c 0
 325 487 350 440 442 440 c 1
 430 390 l 1
 410 390 l 2xe8
EndSplineSet
Validated: 1
EndChar

StartChar: uni025B
Encoding: 603 603 609
Width: 438
VWidth: 0
Flags: W
HStem: -10 50<185.546 294.342> 220 50<262.901 333> 400 50<273.131 366.145>
VStem: 55 124<45.1756 169.468> 131 124<278.387 383.714>
AnchorPoint: "top" 329 490 basechar 0
LayerCount: 2
Fore
SplineSet
307 400 m 0xe8
 265 400 255 334 255 319 c 0xe8
 255 292 271 270 316 270 c 2
 344 270 l 1
 333 220 l 1
 298 220 l 2
 235 220 199 190 184 125 c 0
 181 110 179 97 179 87 c 0
 179 50 198 40 224 40 c 0
 276 40 321 73 345 108 c 1
 416 87 l 1
 383 44 311 -10 225 -10 c 0
 104 -10 55 31 55 93 c 0
 55 149 90 217 179 250 c 1xf0
 144 271 131 299 131 324 c 0
 131 362 163 450 331 450 c 0
 421 450 454 404 460 359 c 1
 374 340 l 1
 374 342 375 345 375 347 c 0
 375 377 362 400 307 400 c 0xe8
EndSplineSet
Validated: 1
EndChar

StartChar: uni0256
Encoding: 598 598 611
Width: 532
VWidth: 0
Flags: W
HStem: -171 50<447.449 526.842> -10 50<220.232 326.152> 400 50<293.67 391.061>
VStem: 87 118<63.239 246.479> 325 121<-120.358 0.2129>
LayerCount: 2
Fore
SplineSet
87 155 m 0
 87 289 193 450 350 450 c 0
 383 450 412 443 436 431 c 1
 488 660 l 1
 613 660 l 1
 461 -1 l 6
 452 -40 446 -69 446 -89 c 4
 446 -111 453 -121 472 -121 c 4
 491 -121 512 -116 531 -96 c 5
 587 -126 l 5
 554 -157 514 -171 476 -171 c 4
 413 -171 325 -141 325 -62 c 4
 325 -53 326 -44 328 -34 c 6
 336 2 l 1
 307 -6 277 -10 244 -10 c 0
 141 -10 87 60 87 155 c 0
381 196 m 0
 391 240 401 288 401 327 c 0
 401 369 389 400 353 400 c 0
 268 400 240 305 220 220 c 0
 212 185 205 149 205 118 c 0
 205 73 220 40 270 40 c 0
 339 40 359 102 381 196 c 0
EndSplineSet
Validated: 1
EndChar

StartChar: uni0191
Encoding: 401 401 612
Width: 521
VWidth: 0
Flags: W
HStem: -170 50<-52.7988 52.4831> 390 50<317 489> 650 50<365 639>
LayerCount: 2
Fore
SplineSet
207 -33 m 6
 184 -132 62 -170 -8 -170 c 4
 -46 -170 -80 -156 -99 -125 c 5
 -29 -95 l 5
 -20 -115 -1 -120 18 -120 c 4
 54 -120 66 -82 85 0 c 6
 247 700 l 1
 651 700 l 17
 639 650 l 9
 365 650 l 1
 317 440 l 1
 501 440 l 17
 489 390 l 9
 305 390 l 1
 207 -33 l 6
EndSplineSet
Validated: 1
EndChar

StartChar: florin
Encoding: 402 402 613
Width: 288
VWidth: 0
Flags: W
HStem: -170 50<-63.7988 41.0925> 390 50<132 164 301 360> 620 50<346.007 421.861>
LayerCount: 2
Fore
SplineSet
191 -33 m 6
 168 -132 51 -170 -19 -170 c 4
 -57 -170 -91 -156 -110 -125 c 5
 -40 -95 l 5
 -31 -115 -12 -120 7 -120 c 4
 43 -120 55 -82 74 0 c 6
 164 390 l 5
 105 390 l 1
 132 440 l 1
 176 440 l 1
 198 535 l 2
 216 615 296 670 376 670 c 0
 405 670 427 666 444 659 c 1
 411 605 l 1
 405 615 396 620 379 620 c 0
 351 620 337 597 317 509 c 2
 301 440 l 1
 372 440 l 1
 360 390 l 1
 289 390 l 5
 191 -33 l 6
EndSplineSet
Validated: 1
EndChar

StartChar: uni0194
Encoding: 404 404 614
Width: 563
VWidth: 0
Flags: W
HStem: -204 50<200 265.212> 680 20G<174 300.931 579.815 716>
VStem: 126 112<-153.64 -55.4933> 281 116<-136.2 -18.6773>
LayerCount: 2
Fore
SplineSet
247 -154 m 0
 267 -154 281 -91 281 -59 c 0
 281 -47 280 -32 279 -17 c 1
 264 -46 238 -92 238 -139 c 0
 238 -150 241 -154 247 -154 c 0
397 -46 m 0
 397 -173 309 -204 236 -204 c 0
 164 -204 126 -175 126 -122 c 0
 126 -72 153 -17 224 96 c 2
 258 150 l 1
 174 700 l 1
 298 700 l 1
 355 311 l 1
 592 700 l 1
 716 700 l 1
 378 152 l 1
 386 96 l 2
 388 80 397 8 397 -46 c 0
EndSplineSet
Validated: 1
EndChar

StartChar: uni0263
Encoding: 611 611 615
Width: 427
VWidth: 0
Flags: W
HStem: -204 50<133 197.321> 420 20G<111 232.973 391.73 523>
VStem: 63 107<-153.787 -54.9411> 214 112<-133.643 -12.0517>
LayerCount: 2
Fore
SplineSet
179 -154 m 0
 200 -154 214 -87 214 -45 c 0
 214 -34 213 -23 212 -11 c 1
 197 -42 170 -92 170 -139 c 0
 170 -150 173 -154 179 -154 c 0
326 -22 m 0
 326 -120 295 -204 168 -204 c 0
 98 -204 63 -177 63 -125 c 0
 63 -66 122 40 161 96 c 2
 186 132 l 1
 111 440 l 1
 228 440 l 1
 274 255 l 1
 406 440 l 1
 523 440 l 1
 304 133 l 1
 313 96 l 2
 322 63 326 18 326 -22 c 0
EndSplineSet
Validated: 1
EndChar

StartChar: uni01B2
Encoding: 434 434 616
Width: 775
VWidth: 0
Flags: W
HStem: -10 50<309.984 469.475> 680 20G<233.35 368 611 763>
VStem: 132 128<97.4924 325> 661 133<320.078 617.616>
LayerCount: 2
Fore
SplineSet
611 700 m 1
 751 700 l 1
 775 632 794 578 794 495 c 0
 794 443 786 379 766 292 c 0
 723 104 511 -10 383 -10 c 0
 292 -10 132 11 132 198 c 0
 132 228 136 261 145 300 c 2
 238 700 l 1
 368 700 l 1
 275 300 l 2
 264 253 260 215 260 184 c 0
 260 49 345 40 400 40 c 0
 498 40 608 170 636 292 c 0
 654 370 661 430 661 479 c 0
 661 572 636 629 611 700 c 1
EndSplineSet
Validated: 1
EndChar

StartChar: uni028B
Encoding: 651 651 617
Width: 571
VWidth: 0
Flags: W
HStem: -10 50<249.962 362.385> 426 14G<167.333 297 392.153 434.5>
VStem: 108 123<57.1472 248.188> 444 124<167.621 351.82>
LayerCount: 2
Fore
SplineSet
313 40 m 0
 395 40 444 201 444 277 c 0
 444 353 402 377 371 387 c 1
 403 446 l 1
 466 430 568 393 568 272 c 0
 568 155 482 -10 287 -10 c 0
 171 -10 108 37 108 133 c 0
 108 153 110 175 116 200 c 2
 172 440 l 1
 297 440 l 1
 244 212 l 2
 235 175 231 145 231 122 c 0
 231 58 262 40 313 40 c 0
EndSplineSet
Validated: 1
EndChar

StartChar: uni01B7
Encoding: 439 439 620
Width: 573
VWidth: 0
Flags: W
HStem: -10 50<199.282 340.171> 650 50<264 496>
VStem: 65 104<68.5778 159> 452 129<165.738 348.281>
AnchorPoint: "top" 437 700 basechar 0
LayerCount: 2
Fore
SplineSet
272 40 m 0
 350 40 452 131 452 272 c 0
 452 331 429 382 352 382 c 2
 274 382 l 1
 496 650 l 1
 252 650 l 1
 264 700 l 1
 672 700 l 1
 451 432 l 1
 515 432 581 371 581 266 c 0
 581 100 452 -10 276 -10 c 0
 138 -10 65 51 65 139 c 0
 65 146 66 152 67 159 c 1
 170 166 l 1
 169 156 169 147 169 138 c 0
 169 79 196 40 272 40 c 0
EndSplineSet
Validated: 1
EndChar

StartChar: uni0292
Encoding: 658 658 621
Width: 509
VWidth: 0
Flags: W
HStem: -200 50<113.92 264.377> 390 50<171 383>
VStem: 348 124<-53.4781 106.325>
AnchorPoint: "top" 353 490 basechar 0
LayerCount: 2
Fore
SplineSet
185 -150 m 0
 316 -150 348 -18 348 45 c 0
 348 96 323 132 240 132 c 2
 183 132 l 1
 383 390 l 1
 144 390 l 1
 171 440 l 1
 559 440 l 1
 340 182 l 1
 404 182 472 142 472 43 c 0
 472 -126 318 -200 189 -200 c 0
 50 -200 8 -152 -6 -96 c 1
 87 -72 l 1
 95 -121 117 -150 185 -150 c 0
EndSplineSet
Validated: 1
EndChar

StartChar: uni01E5
Encoding: 485 485 625
Width: 533
VWidth: 0
Flags: W
HStem: -170 50<129.113 239.952> -66 50<196 261 405 484> 48 50<213.089 304> 400 50<269.537 382.7 519.152 578.916>
VStem: 81 116<112.812 295.922> 579 35<376 397.899>
LayerCount: 2
Fore
SplineSet
317 104 m 1
 375 336 l 2
 378 348 382 360 388 372 c 1
 375 390 355 400 328 400 c 0
 210 400 197 200 197 170 c 0
 197 124 216 98 274 98 c 0
 289 98 303 100 317 104 c 1
81 190 m 0
 81 344 193 450 325 450 c 0
 369 450 404 438 430 418 c 1
 458 438 498 450 550 450 c 0
 588 450 614 421 614 389 c 0
 614 385 614 380 613 376 c 1
 579 376 l 1
 579 393 568 400 552 400 c 0
 520 400 505 357 492 305 c 2
 449 136 l 1
 435 77 422 26 405 -16 c 1
 496 -16 l 1
 484 -66 l 1
 380 -66 l 1
 339 -135 280 -170 178 -170 c 0
 123 -170 71 -149 30 -125 c 1
 92 -73 l 1
 131 -105 169 -120 204 -120 c 0
 226 -120 245 -98 261 -66 c 1
 184 -66 l 1
 196 -16 l 1
 282 -16 l 1
 290 6 297 30 304 54 c 1
 286 50 267 48 248 48 c 0
 141 48 81 91 81 190 c 0
EndSplineSet
Validated: 1
EndChar

StartChar: uni0187
Encoding: 391 391 626
Width: 717
VWidth: 0
Flags: W
HStem: -10 50<313.284 473.337> 660 50<429.319 592.145> 667 50<765.345 870.905>
VStem: 118 127<136.527 373.532>
LayerCount: 2
Fore
SplineSet
510 660 m 0xd0
 299 660 245 312 245 227 c 0
 245 96 311 40 386 40 c 0
 463 40 496 72 546 129 c 1
 634 102 l 1
 569 38 469 -10 360 -10 c 0
 249 -10 118 70 118 249 c 0
 118 280 123 313 131 350 c 0
 189 600 376 710 507 710 c 0xd0
 577 710 644 701 687 675 c 1
 729 706 784 717 827 717 c 0
 865 717 898 703 917 672 c 1
 847 642 l 1
 838 662 819 667 800 667 c 0xb0
 764 667 752 629 733 547 c 1
 616 514 l 1
 621 534 622 551 622 566 c 0
 622 634 579 660 510 660 c 0xd0
EndSplineSet
Validated: 1
EndChar

StartChar: uni0188
Encoding: 392 392 627
Width: 542
VWidth: 0
Flags: W
HStem: -10 50<228.033 352.953> 400 50<294.814 397.909> 450 50<543.756 649.799>
VStem: 87 120<69.3796 252.891> 405 107<330 392.435>
LayerCount: 2
Fore
SplineSet
87 158 m 0
 87 318 230 450 354 450 c 0
 385 450 413 444 434 433 c 1
 481 480 555 500 605 500 c 0
 643 500 677 486 696 455 c 1
 626 425 l 1
 617 445 598 450 579 450 c 0
 544 450 531 414 512 330 c 1
 405 297 l 1
 403 357 412 400 357 400 c 0
 282 400 245 330 220 220 c 0
 212 185 207 154 207 128 c 0
 207 73 229 40 294 40 c 0
 345 40 356 63 388 100 c 1
 473 77 l 1
 421 26 350 -10 268 -10 c 0
 158 -10 87 54 87 158 c 0
EndSplineSet
Validated: 1
EndChar

StartChar: uni0196
Encoding: 406 406 628
Width: 353
VWidth: 0
Flags: W
HStem: -10 50<231.85 295.339> 680 20G<241.358 371>
VStem: 109 121<40.9048 183.016>
LayerCount: 2
Fore
SplineSet
246 700 m 25
 371 700 l 25
 246 160 l 2
 237 120 230 90 230 70 c 0
 230 50 237 40 255 40 c 0
 274 40 280 45 299 65 c 1
 355 35 l 1
 322 4 277 -10 239 -10 c 0
 177 -10 109 20 109 94 c 0
 109 104 110 115 113 127 c 2
 246 700 l 25
EndSplineSet
Validated: 1
EndChar

StartChar: uni0197
Encoding: 407 407 629
Width: 291
VWidth: 0
Flags: W
HStem: 0 21G<84 213.615> 390 50<125 174 311 360> 680 20G<241.385 371>
VStem: 84 287
LayerCount: 2
Fore
SplineSet
113 390 m 1
 125 440 l 1
 186 440 l 1
 246 700 l 1
 371 700 l 1
 311 440 l 1
 372 440 l 1
 360 390 l 1
 299 390 l 1
 209 0 l 1
 84 0 l 1
 174 390 l 1
 113 390 l 1
EndSplineSet
Validated: 1
EndChar

StartChar: uni019F
Encoding: 415 415 630
Width: 701
VWidth: 0
Flags: W
HStem: -10 50<299.148 433.603> 325 50<267 598> 660 50<425.722 567.52>
VStem: 117 126<122.719 323.375> 623 125<376.785 574.966>
CounterMasks: 1 e0
LayerCount: 2
Fore
SplineSet
342 -10 m 0
 231 -10 117 67 117 239 c 0
 117 272 122 309 131 350 c 0
 189 600 365 710 499 710 c 0
 635 710 748 634 748 463 c 0
 748 429 744 391 734 350 c 0
 676 100 506 -10 342 -10 c 0
598 325 m 1
 255 325 l 1
 247 284 243 247 243 215 c 0
 243 92 298 40 359 40 c 0
 453 40 547 132 598 325 c 1
610 375 m 1
 619 420 623 459 623 493 c 0
 623 610 571 660 493 660 c 0
 407 660 317 568 267 375 c 1
 610 375 l 1
EndSplineSet
Validated: 1
EndChar

StartChar: uni01A4
Encoding: 420 420 631
Width: 670
VWidth: 0
Flags: W
HStem: 0 21G<223 357.625> 320 50<438 548.28> 448 21G<224 260.538> 650 50<323.804 372 503 608.249>
VStem: 145 116<491.582 595.112> 637 130<464.216 620.779>
LayerCount: 2
Fore
SplineSet
483 370 m 2
 575 370 637 469 637 551 c 0
 637 601 615 650 548 650 c 2
 503 650 l 1
 438 370 l 1
 483 370 l 2
767 551 m 0
 767 452 674 320 502 320 c 2
 427 320 l 1
 353 0 l 1
 223 0 l 1
 372 647 l 1
 270 630 261 549 261 530 c 0
 261 509 271 506 279 500 c 1
 249 448 l 1
 199 455 145 480 145 532 c 0
 145 600 230 700 385 700 c 2
 590 700 l 2
 724 700 767 623 767 551 c 0
EndSplineSet
Validated: 1
EndChar

StartChar: uni01A5
Encoding: 421 421 632
Width: 531
VWidth: 0
Flags: W
HStem: -8 50<248.362 338.887> 402 50<316.782 419.077> 562 50<331.907 436.799>
VStem: 430 117<196.921 371.901>
LayerCount: 2
Fore
SplineSet
547 281 m 0
 547 129 407 -8 265 -8 c 0
 239 -8 217 -4 198 4 c 1
 151 -200 l 1
 26 -200 l 1
 182 475 l 2
 205 574 322 612 392 612 c 0
 430 612 464 598 483 567 c 1
 413 537 l 1
 404 557 385 562 366 562 c 0
 330 562 318 524 299 442 c 1
 325 449 351 452 381 452 c 0
 486 452 547 379 547 281 c 0
292 42 m 0
 379 42 430 234 430 327 c 0
 430 370 418 402 385 402 c 0
 302 402 276 342 254 246 c 0
 244 205 235 159 235 122 c 0
 235 76 249 42 292 42 c 0
EndSplineSet
Validated: 1
EndChar

StartChar: uni01A9
Encoding: 425 425 633
Width: 570
VWidth: 0
Flags: W
HStem: 0 50<224 542> 650 50<367 684>
LayerCount: 2
Fore
SplineSet
367 650 m 1
 502 354 l 1
 224 50 l 1
 554 50 l 1
 542 0 l 1
 30 0 l 1
 350 354 l 1
 196 700 l 1
 684 700 l 1
 687 650 l 1
 367 650 l 1
EndSplineSet
Validated: 1
EndChar

StartChar: uni01B1
Encoding: 433 433 634
Width: 765
VWidth: 0
Flags: W
HStem: -10 50<313.922 472.246> 650 50<284 347 714 789>
VStem: 133 121<126.537 341.689> 651 122<284.406 517.732>
LayerCount: 2
Fore
SplineSet
390 40 m 0
 567 40 651 277 651 415 c 0
 651 498 624 565 573 580 c 1
 601 700 l 1
 801 700 l 1
 789 650 l 1
 714 650 l 1
 704 605 l 1
 738 563 773 485 773 395 c 0
 773 370 770 344 764 318 c 0
 710 86 507 -10 379 -10 c 0
 268 -10 133 62 133 231 c 0
 133 403 261 545 337 605 c 1
 347 650 l 1
 272 650 l 1
 284 700 l 1
 484 700 l 1
 456 580 l 1
 354 554 254 369 254 205 c 0
 254 95 306 40 390 40 c 0
EndSplineSet
Validated: 1
EndChar

StartChar: uni0268
Encoding: 616 616 635
Width: 295
VWidth: 0
Flags: W
HStem: -10 50<191.789 293.536> 253 50<92 145 282 332> 420 20G<184.328 314> 520 80<236 322>
VStem: 108 124<40.3643 181.883> 297 34<46.9489 64>
LayerCount: 2
Fore
SplineSet
243 135 m 2
 237 110 232 87 232 70 c 0
 232 52 238 40 259 40 c 0
 276 40 292 54 297 64 c 9
 331 64 l 17
 322 27 277 -10 234 -10 c 0
 151 -10 108 29 108 80 c 0
 108 88 109 96 111 104 c 10
 145 253 l 1
 80 253 l 1
 92 303 l 1
 157 303 l 1
 189 440 l 1
 314 440 l 1
 282 303 l 1
 344 303 l 1
 332 253 l 1
 270 253 l 1
 243 135 l 2
236 600 m 1
 341 600 l 1
 322 520 l 1
 217 520 l 1
 236 600 l 1
EndSplineSet
Validated: 1
EndChar

StartChar: uni0269
Encoding: 617 617 636
Width: 353
VWidth: 0
Flags: W
HStem: -10 50<230.956 293.008> 390 50<146 174>
VStem: 108 122<40.9666 183.203> 312 56<56.4034 115>
LayerCount: 2
Fore
SplineSet
146 440 m 1
 311 440 l 1
 246 160 l 2
 237 120 230 90 230 70 c 0
 230 50 239 40 262 40 c 0
 285 40 300 61 312 115 c 1
 368 115 l 1
 345 15 314 -10 239 -10 c 0
 155 -10 108 17 108 84 c 0
 108 97 109 111 113 127 c 2
 174 390 l 1
 134 390 l 1
 146 440 l 1
EndSplineSet
Validated: 1
EndChar

StartChar: uni0275
Encoding: 629 629 637
Width: 516
VWidth: 0
Flags: W
HStem: -10 50<219.943 330.425> 195 50<226 394> 400 50<296.094 402.226>
VStem: 86 119<57.5184 194.185> 415 119<246.683 377.509>
CounterMasks: 1 e0
LayerCount: 2
Fore
SplineSet
534 290 m 0
 534 185 465 -10 248 -10 c 0
 142 -10 86 50 86 147 c 0
 86 321 231 450 354 450 c 0
 462 450 534 397 534 290 c 0
394 195 m 1
 214 195 l 1
 208 167 205 141 205 120 c 0
 205 69 223 40 274 40 c 0
 338 40 371 103 394 195 c 1
226 245 m 1
 406 245 l 1
 412 275 415 302 415 324 c 0
 415 371 399 400 357 400 c 0
 289 400 251 340 226 245 c 1
EndSplineSet
Validated: 1
EndChar

StartChar: uni0283
Encoding: 643 643 638
Width: 360
VWidth: 0
Flags: W
HStem: -10 50<45.2012 150.093> 620 50<418.007 493.861>
LayerCount: 2
Fore
SplineSet
300 127 m 2
 277 28 160 -10 90 -10 c 0
 52 -10 18 4 -1 35 c 1
 69 65 l 1
 78 45 97 40 116 40 c 0
 152 40 164 78 183 160 c 2
 270 535 l 2
 288 615 368 670 448 670 c 0
 477 670 499 666 516 659 c 1
 483 605 l 1
 477 615 468 620 451 620 c 0
 423 620 409 597 389 509 c 2
 300 127 l 2
EndSplineSet
Validated: 1
EndChar

StartChar: uni028A
Encoding: 650 650 639
Width: 605
VWidth: 0
Flags: W
HStem: -10 50<245.095 386.729> 390 50<193 238 548 605>
VStem: 94 124<66.9909 212.914> 465 125<123.765 291.617>
LayerCount: 2
Fore
SplineSet
590 217 m 0
 590 81 475 -10 301 -10 c 0
 141 -10 94 63 94 130 c 0
 94 187 135 287 227 344 c 1
 238 390 l 1
 181 390 l 1
 193 440 l 1
 375 440 l 1
 348 326 l 1
 348 326 251 287 222 162 c 0
 219 150 218 138 218 127 c 0
 218 73 252 40 312 40 c 0
 404 40 465 117 465 214 c 0
 465 298 408 326 408 326 c 1
 435 440 l 1
 617 440 l 1
 605 390 l 1
 548 390 l 1
 537 344 l 1
 555 329 590 287 590 217 c 0
EndSplineSet
Validated: 1
EndChar

StartChar: ij
Encoding: 307 307 644
Width: 482
VWidth: 0
Flags: W
HStem: -170 50<160.201 265.093> 0 21G<60 189.636> 420 20G<157.364 287 395.364 525> 520 80<209 295 447 533>
LayerCount: 2
Fore
SplineSet
184 -95 m 1
 193 -115 212 -120 231 -120 c 0
 267 -120 279 -82 298 0 c 2
 400 440 l 1
 525 440 l 1
 415 -33 l 2
 392 -132 275 -170 205 -170 c 0
 167 -170 133 -156 114 -125 c 1
 184 -95 l 1
447 600 m 1
 552 600 l 1
 533 520 l 1
 428 520 l 1
 447 600 l 1
209 600 m 1
 314 600 l 1
 295 520 l 1
 190 520 l 1
 209 600 l 1
162 440 m 1
 287 440 l 1
 185 0 l 1
 60 0 l 1
 162 440 l 1
EndSplineSet
Validated: 1
EndChar

StartChar: uni018F
Encoding: 399 399 647
Width: 706
VWidth: 0
Flags: W
HStem: -10 50<288.7 430.538> 300 50<237.966 603> 660 50<422.286 584.96>
VStem: 108 126<129.282 298.929> 637 123<351.386 576.898>
LayerCount: 2
Fore
SplineSet
603 300 m 1
 241 300 l 1
 236 268 234 240 234 215 c 0
 234 93 288 40 349 40 c 0
 436 40 547 116 603 300 c 1
617 350 m 1
 631 409 637 460 637 502 c 0
 637 609 593 660 510 660 c 0
 426 660 396 622 352 575 c 1
 249 608 l 1
 308 665 401 710 537 710 c 0
 647 710 760 633 760 461 c 0
 760 428 756 391 747 350 c 0
 689 100 473 -10 342 -10 c 0
 230 -10 108 69 108 244 c 0
 108 276 112 311 121 350 c 1
 617 350 l 1
EndSplineSet
Validated: 1
EndChar

StartChar: uni019E
Encoding: 414 414 648
Width: 473
VWidth: 0
Flags: W
HStem: 0 21G<40 169.643> 400 50<60.147 145.5 250.634 367.674>
VStem: 23 34<376 394.89> 119 127<257.297 380.99> 376 120<210.219 392.404>
AnchorPoint: "cedilla" 232 0 basechar 0
AnchorPoint: "top" 349 490 basechar 0
LayerCount: 2
Fore
SplineSet
165 0 m 1
 40 0 l 1
 110 305 l 2
 116 327 119 348 119 364 c 0
 119 386 113 400 94 400 c 0
 78 400 65 393 57 376 c 1
 23 376 l 1
 31 413 77 450 120 450 c 0
 171 450 204 438 224 419 c 1
 244 430 279 450 326 450 c 0
 439 450 496 405 496 313 c 0
 496 291 492 267 486 240 c 2
 384 -200 l 1
 259 -200 l 1
 359 228 l 2
 371 279 376 316 376 342 c 0
 376 387 359 400 329 400 c 0
 293 400 266 388 245 375 c 1
 246 372 246 368 246 364 c 0
 246 355 245 346 243 336 c 2
 165 0 l 1
EndSplineSet
Validated: 1048577
EndChar

StartChar: uni0220
Encoding: 544 544 649
Width: 681
VWidth: 0
Flags: W
HStem: 0 21G<72 206.613> 660 50<413.494 580.057> 680 20G<228.4 363>
VStem: 609 129<445.227 621.417>
LayerCount: 2
Fore
SplineSet
72 0 m 9xd0
 233 700 l 1
 363 700 l 1xb0
 356 666 l 1
 391 682 433 710 506 710 c 0
 630 710 738 656 738 545 c 0
 738 531 736 516 732 500 c 2
 571 -199 l 17
 441 -199 l 9
 599 488 l 2
 606 517 609 542 609 562 c 0
 609 640 564 660 509 660 c 0
 437 660 379 623 339 594 c 1
 202 0 l 17
 72 0 l 9xd0
EndSplineSet
Validated: 1
EndChar

StartChar: uni01A2
Encoding: 418 418 650
Width: 902
VWidth: 0
Flags: W
HStem: -10 50<299.148 434.914> 555 50<744.455 808.648> 660 50<421.727 566.675>
VStem: 117 126<122.939 364.118> 623 125<340.387 540.728> 810 121<415.484 554.095>
LayerCount: 2
Fore
SplineSet
773 -200 m 1
 648 -200 l 1
 794 435 l 2
 803 475 810 505 810 525 c 0
 810 545 803 555 785 555 c 0
 766 555 760 550 741 530 c 1
 745 510 748 488 748 464 c 0
 748 430 744 392 734 350 c 0
 676 100 506 -10 342 -10 c 0
 231 -10 117 67 117 239 c 0
 117 272 122 309 131 350 c 0
 189 600 365 710 499 710 c 0
 596 710 682 671 722 586 c 1
 748 599 777 605 802 605 c 0
 864 605 931 575 931 501 c 0
 931 491 930 480 927 468 c 2
 773 -200 l 1
359 40 m 0
 537 40 623 347 623 494 c 0
 623 610 571 660 493 660 c 0
 333 660 243 366 243 215 c 0
 243 93 298 40 359 40 c 0
EndSplineSet
Validated: 1
EndChar

StartChar: uni01A3
Encoding: 419 419 651
Width: 720
VWidth: 0
Flags: W
HStem: -10 50<222.412 330.014> 365 50<530.35 595.116> 400 50<295.171 401.395>
VStem: 86 119<57.6869 245.896> 415 118<191.413 350.874> 597 120<224.93 364.062>
LayerCount: 2
Fore
SplineSet
86 147 m 0xdc
 86 321 231 450 354 450 c 0xbc
 419 450 471 431 502 392 c 1
 530 408 561 415 588 415 c 0
 650 415 717 385 717 311 c 0
 717 301 716 290 713 278 c 2
 603 -200 l 1
 478 -200 l 1
 581 245 l 2
 590 285 597 315 597 335 c 0
 597 355 589 365 571 365 c 0
 552 365 546 360 527 340 c 1
 531 325 533 308 533 290 c 0
 533 183 464 -10 248 -10 c 0
 142 -10 86 50 86 147 c 0xdc
400 220 m 0
 409 260 415 295 415 324 c 0
 415 371 399 400 357 400 c 0
 283 400 245 330 220 220 c 0
 211 181 205 148 205 120 c 0
 205 70 224 40 274 40 c 0
 344 40 376 114 400 220 c 0
EndSplineSet
Validated: 1
EndChar

StartChar: uni01AC
Encoding: 428 428 652
Width: 716
VWidth: 0
Flags: W
HStem: 0 21G<294 428.615> 448 21G<224 260.538> 650 50<317.592 444 574 801>
VStem: 145 116<491.582 593.631>
LayerCount: 2
Fore
SplineSet
145 532 m 0
 145 600 230 700 385 700 c 2
 815 700 l 1
 801 650 l 1
 574 650 l 1
 424 0 l 1
 294 0 l 1
 444 650 l 1
 383 650 l 2
 322 650 261 593 261 530 c 0
 261 509 271 506 279 500 c 1
 249 448 l 1
 199 455 145 480 145 532 c 0
EndSplineSet
Validated: 1
EndChar

StartChar: uni01AE
Encoding: 430 430 653
Width: 625
VWidth: 0
Flags: W
HStem: -170 50<364.315 443.842> 650 50<182 398 528 755>
VStem: 237 126<-118.429 20.3359>
LayerCount: 2
Fore
SplineSet
398 650 m 1
 170 650 l 1
 182 700 l 1
 769 700 l 1
 755 650 l 1
 528 650 l 1
 378 0 l 2
 369 -39 363 -68 363 -88 c 0
 363 -110 370 -120 389 -120 c 0
 408 -120 429 -115 448 -95 c 1
 504 -125 l 1
 471 -156 431 -170 393 -170 c 0
 330 -170 237 -139 237 -60 c 0
 237 -52 238 -42 240 -33 c 2
 398 650 l 1
EndSplineSet
Validated: 1
EndChar

StartChar: uni0288
Encoding: 648 648 654
Width: 321
VWidth: 0
Flags: W
HStem: -170 50<203.449 282.842> 390 50<143 182 319 385>
VStem: 81 121<-119.358 25.4297>
LayerCount: 2
Fore
SplineSet
182 390 m 1
 116 390 l 1
 143 440 l 1
 194 440 l 1
 227 585 l 1
 356 600 l 1
 319 440 l 1
 397 440 l 1
 385 390 l 1
 307 390 l 1
 217 0 l 2
 208 -39 202 -68 202 -88 c 0
 202 -110 209 -120 228 -120 c 0
 247 -120 268 -115 287 -95 c 1
 343 -125 l 1
 310 -156 270 -170 232 -170 c 0
 169 -170 81 -140 81 -61 c 0
 81 -52 82 -43 84 -33 c 2
 182 390 l 1
EndSplineSet
Validated: 1
EndChar

StartChar: uni01AD
Encoding: 429 429 655
Width: 327
VWidth: 0
Flags: W
HStem: -10 50<193 297.65> 390 50<142 181 318 385> 620 50<365.329 469.905>
VStem: 112 126<41.0266 183.625> 301 34<45.2679 64>
LayerCount: 2
Fore
SplineSet
318 440 m 1
 397 440 l 1
 385 390 l 1
 306 390 l 1
 247 135 l 2
 242 113 238 92 238 76 c 0
 238 54 245 40 263 40 c 0
 279 40 293 47 301 64 c 1
 335 64 l 1
 326 27 281 -10 238 -10 c 0
 148 -10 112 27 112 76 c 0
 112 85 113 94 115 104 c 2
 181 390 l 1
 115 390 l 1
 142 440 l 1
 193 440 l 1
 215 533 l 2
 238 632 356 670 426 670 c 0
 464 670 497 656 516 625 c 1
 446 595 l 1
 437 615 418 620 399 620 c 0
 363 620 351 582 332 500 c 2
 318 440 l 1
EndSplineSet
Validated: 1
EndChar

StartChar: uni01B5
Encoding: 437 437 656
Width: 508
VWidth: 0
Flags: W
HStem: 0 50<189 480> 340 50<200 264 423 480> 650 50<212 478>
LayerCount: 2
Fore
SplineSet
478 650 m 1
 185 650 l 1
 212 700 l 1
 638 700 l 1
 423 390 l 1
 492 390 l 1
 480 340 l 1
 388 340 l 1
 189 50 l 1
 492 50 l 1
 480 0 l 1
 30 0 l 1
 264 340 l 1
 188 340 l 1
 200 390 l 1
 299 390 l 1
 478 650 l 1
EndSplineSet
Validated: 1
EndChar

StartChar: uni01B6
Encoding: 438 438 657
Width: 420
VWidth: 0
Flags: W
HStem: 0 50<184 402> 203 50<133 192 348 399> 390 50<138 344>
LayerCount: 2
Fore
SplineSet
344 390 m 1
 111 390 l 1
 138 440 l 1
 501 440 l 1
 348 253 l 1
 410 253 l 5
 399 203 l 5
 308 203 l 1
 184 50 l 1
 414 50 l 1
 402 0 l 1
 26 0 l 1
 192 203 l 1
 122 203 l 5
 133 253 l 5
 232 253 l 1
 344 390 l 1
EndSplineSet
Validated: 1
EndChar

StartChar: uni01C2
Encoding: 450 450 660
Width: 346
VWidth: 0
Flags: W
HStem: 0 21G<133 217.643> 280 50<116 198 289 371> 390 50<142 223 315 396> 680 20G<290.385 375>
VStem: 105 303
LayerCount: 2
Fore
SplineSet
198 280 m 1
 105 280 l 1
 116 330 l 1
 209 330 l 1
 223 390 l 1
 130 390 l 1
 142 440 l 1
 235 440 l 1
 295 700 l 1
 375 700 l 1
 315 440 l 1
 408 440 l 1
 396 390 l 1
 303 390 l 1
 289 330 l 1
 382 330 l 1
 371 280 l 1
 278 280 l 1
 213 0 l 1
 133 0 l 1
 198 280 l 1
EndSplineSet
Validated: 1
EndChar

StartChar: uni0222
Encoding: 546 546 692
Width: 630
VWidth: 0
Flags: W
HStem: -10 50<250.907 413.994> 660 50<381.236 434 516 543.592>
VStem: 83 124<83.6493 227.405> 189 127<469.424 577.37> 504 127<139.21 261.531> 571 125<489.302 625.049>
LayerCount: 2
Fore
SplineSet
433 410 m 1xd0
 496 433 571 472 571 562 c 0xd4
 571 615 541 660 504 660 c 1xc8
 516 710 l 1
 599 710 696 644 696 557 c 0xc4
 696 520 681 425 510 373 c 1
 575 339 631 296 631 220 c 0
 631 78 457 -10 306 -10 c 0
 185 -10 83 63 83 151 c 0xe8
 83 194 101 298 296 365 c 1
 237 395 189 434 189 501 c 0
 189 628 361 710 446 710 c 1
 434 660 l 1
 371 660 316 570 316 519 c 0
 316 468 370 440 433 410 c 1xd0
324 40 m 0
 472 40 504 164 504 204 c 0
 504 269 440 301 369 332 c 1
 257 293 207 221 207 147 c 0xe8
 207 86 252 40 324 40 c 0
EndSplineSet
Validated: 1
EndChar

StartChar: uni0223
Encoding: 547 547 693
Width: 570
VWidth: 0
Flags: W
HStem: -10 50<237.406 362.06> 550 49<321.414 396.469> 600 50<462 496.946>
VStem: 81 126<70.6785 222.194> 178 127<430.18 523.514> 445 127<132.303 265.637> 507 124<469.161 591.277>
LayerCount: 2
Fore
SplineSet
387 396 m 1xe8
 435 418 507 455 507 544 c 0
 507 583 486 600 451 600 c 1
 462 650 l 1
 545 650 631 616 631 537 c 0xea
 631 433 525 386 466 363 c 1
 523 336 572 299 572 225 c 0
 572 101 467 -10 276 -10 c 0
 175 -10 81 37 81 136 c 0xf4
 81 261 192 316 270 348 c 1
 220 371 178 401 178 457 c 0
 178 561 303 599 366 599 c 0
 382 599 398 597 414 592 c 1
 390 544 l 1
 378 548 367 550 357 550 c 0
 311 550 305 479 305 473 c 0
 305 435 341 416 387 396 c 1xe8
294 40 m 0
 390 40 445 145 445 207 c 0
 445 264 399 292 345 316 c 1
 294 293 207 245 207 140 c 0xf4
 207 82 240 40 294 40 c 0
EndSplineSet
Validated: 1
EndChar

StartChar: uni0241
Encoding: 577 577 704
Width: 546
VWidth: 0
Flags: W
HStem: 0 21G<110 239.632> 272 48<298 382.41> 620 50<283.476 458.027>
VStem: 491 123<428.335 587.876>
LayerCount: 2
Fore
SplineSet
614 513 m 0
 614 347 412 272 298 272 c 1
 235 0 l 1
 110 0 l 1
 184 320 l 1
 287 320 l 2
 410 320 491 404 491 523 c 0
 491 591 449 620 373 620 c 0
 291 620 244 575 212 538 c 1
 165 583 l 1
 217 634 318 670 400 670 c 0
 515 670 614 621 614 513 c 0
EndSplineSet
Validated: 1
EndChar

StartChar: uni0242
Encoding: 578 578 705
Width: 486
VWidth: 0
Flags: W
HStem: 0 120<138 234.59> 72 48<252 292.486> 400 50<236.731 359.168>
VStem: 382 124<213.561 378.257>
LayerCount: 2
Fore
SplineSet
506 305 m 0xb0
 506 152 355 72 252 72 c 1x70
 235 0 l 1
 110 0 l 1
 138 120 l 1
 203 120 l 2
 346 120 382 231 382 313 c 0
 382 378 345 400 302 400 c 0
 242 400 207 355 175 318 c 1
 111 353 l 1
 163 404 247 450 329 450 c 0
 416 450 506 409 506 305 c 0xb0
EndSplineSet
Validated: 1
EndChar

StartChar: uni0251
Encoding: 593 593 706
Width: 600
VWidth: 0
Flags: W
HStem: -10 50<248.155 388.841 472 572.354> 400 50<313.457 430.874> 420 20G<468 590>
VStem: 87 120<80.2579 262.248> 389 122<55.6926 183.547> 573 34<46.13 64>
LayerCount: 2
Fore
SplineSet
87 154 m 0xbc
 87 274 172 450 379 450 c 0xdc
 413 450 443 444 468 434 c 1
 470 440 l 1
 590 440 l 1
 519 135 l 2
 514 112 511 94 511 79 c 0
 511 53 519 40 534 40 c 0
 550 40 570 49 573 64 c 1
 607 64 l 1
 598 25 567 -10 490 -10 c 0
 454 -10 426 1 409 21 c 1
 377 1 352 -10 293 -10 c 0
 154 -10 87 52 87 154 c 0xbc
382 400 m 0
 270 400 207 254 207 156 c 0
 207 84 244 40 319 40 c 0
 349 40 371 48 390 62 c 1
 389 67 389 73 389 79 c 0
 389 87 390 95 392 104 c 2
 446 338 l 1
 440 376 423 400 382 400 c 0
EndSplineSet
Validated: 1
EndChar

StartChar: uni2C6D
Encoding: 11373 11373 707
Width: 706
VWidth: 0
Flags: W
HStem: -10 50<343.059 531.922 671.372 734.976> 660 50<456.991 648.87> 680 20G<679 811>
VStem: 119 129<141.614 383.415> 544 126<61.7775 183.609>
LayerCount: 2
Fore
SplineSet
681 700 m 1xb8
 811 700 l 1xb8
 686 160 l 2
 677 120 670 90 670 70 c 0
 670 50 677 40 695 40 c 0
 714 40 720 45 739 65 c 1
 795 35 l 1
 762 4 712 -10 674 -10 c 0
 636 -10 595 1 570 27 c 1
 521 4 464 -10 405 -10 c 0
 257 -10 119 71 119 251 c 0
 119 498 324 710 552 710 c 0xd8
 603 710 645 704 679 693 c 1
 681 700 l 1xb8
555 660 m 0xd8
 344 660 248 395 248 245 c 0
 248 101 336 40 431 40 c 0
 473 40 512 49 547 67 c 1
 545 75 544 84 544 94 c 0
 544 104 545 115 548 127 c 2
 664 629 l 1
 637 648 602 660 555 660 c 0xd8
EndSplineSet
Validated: 1
EndChar

StartChar: uni019C
Encoding: 412 412 708
Width: 950
VWidth: 0
Flags: W
HStem: -10 50<258.235 381.704 590.249 705.477> 0 21G<743 872.606>
VStem: 122 123<56.2069 248.656>
LayerCount: 2
Fore
SplineSet
1020 660 m 1xa0
 868 0 l 1
 743 0 l 1x60
 753 42 l 1
 730 18 704 -10 643 -10 c 0
 546 -10 508 14 485 62 c 1
 427 8 355 -10 310 -10 c 0
 192 -10 122 38 122 137 c 0
 122 156 125 177 130 200 c 2
 236 660 l 1
 361 660 l 1
 258 212 l 2
 249 173 245 142 245 118 c 0
 245 58 270 40 306 40 c 0
 378 40 434 84 461 200 c 2
 567 660 l 1
 692 660 l 1
 589 212 l 2
 580 174 576 143 576 119 c 0
 576 58 602 40 639 40 c 0
 711 40 752 104 777 146 c 1
 895 660 l 1
 1020 660 l 1xa0
EndSplineSet
Validated: 1
EndChar

StartChar: uni026F
Encoding: 623 623 709
Width: 830
VWidth: 0
Flags: W
HStem: 0 50<209.595 325.83 481.015 616.498 717.5 800.853> 430 20G<138.396 268 410.385 540 691.357 821>
VStem: 75 123<61.154 239.57> 615 127<61.932 192.703> 804 34<55.1097 74>
LayerCount: 2
Fore
SplineSet
696 450 m 1
 821 450 l 1
 751 145 l 2
 745 123 742 102 742 86 c 0
 742 64 748 50 767 50 c 0
 783 50 796 57 804 74 c 1
 838 74 l 1
 830 37 784 0 741 0 c 0
 694 0 662 10 642 26 c 1
 619 15 584 0 536 0 c 0
 473 0 422 14 396 42 c 1
 357 18 314 0 273 0 c 0
 154 0 75 31 75 129 c 0
 75 146 77 164 82 185 c 2
 143 450 l 1
 268 450 l 1
 212 206 l 2
 203 167 198 138 198 115 c 0
 198 62 224 50 270 50 c 0
 290 50 308 53 325 60 c 1
 415 450 l 1
 540 450 l 1
 484 206 l 2
 475 168 470 138 470 116 c 0
 470 62 497 50 547 50 c 0
 572 50 598 58 617 66 c 1
 616 73 615 79 615 86 c 0
 615 95 616 104 618 114 c 2
 696 450 l 1
EndSplineSet
Validated: 1
EndChar

StartChar: uni0271
Encoding: 625 625 710
Width: 763
VWidth: 0
Flags: W
HStem: -170 50<455.201 560.022> 0 21G<40 169.643 321 450.615> 400 50<60.147 143.5 244.502 379.985 535.17 651.405>
VStem: 23 34<376 394.89> 119 127<257.297 388.068> 663 123<211.734 388.846>
LayerCount: 2
Fore
SplineSet
710 -33 m 2
 686 -134 570 -170 500 -170 c 0
 462 -170 428 -156 409 -125 c 1
 479 -95 l 1
 488 -115 507 -120 526 -120 c 0
 562 -120 574 -82 593 0 c 2
 649 244 l 2
 658 283 663 312 663 335 c 0
 663 388 637 400 591 400 c 0
 571 400 553 397 536 390 c 1
 446 0 l 1
 321 0 l 1
 377 244 l 2
 386 282 391 312 391 334 c 0
 391 388 364 400 314 400 c 0
 289 400 263 392 244 384 c 1
 245 377 246 371 246 364 c 0
 246 355 245 346 243 336 c 2
 165 0 l 1
 40 0 l 1
 110 305 l 2
 116 327 119 348 119 364 c 0
 119 386 113 400 94 400 c 0
 78 400 65 393 57 376 c 1
 23 376 l 1
 31 413 77 450 120 450 c 0
 167 450 199 440 219 424 c 1
 242 435 277 450 325 450 c 0
 388 450 439 436 465 408 c 1
 504 432 547 450 588 450 c 0
 707 450 786 419 786 321 c 0
 786 304 784 286 779 265 c 2
 710 -33 l 2
EndSplineSet
Validated: 1
EndChar

StartChar: uni2C6E
Encoding: 11374 11374 711
Width: 723
VWidth: 0
Flags: W
HStem: -170 50<403.201 508.483> 0 21G<45 179.618> 680 20G<202.371 341.694 689.02 833>
LayerCount: 2
Fore
SplineSet
663 -33 m 2
 640 -132 518 -170 448 -170 c 0
 410 -170 376 -156 357 -125 c 1
 427 -95 l 1
 436 -115 455 -120 474 -120 c 0
 510 -120 522 -82 541 0 c 2
 659 511 l 1
 386 121 l 1
 293 511 l 1
 175 0 l 1
 45 0 l 1
 207 700 l 1
 337 700 l 1
 429 308 l 1
 703 700 l 1
 833 700 l 1
 663 -33 l 2
EndSplineSet
Validated: 1
EndChar

StartChar: uni027D
Encoding: 637 637 712
Width: 401
VWidth: 0
Flags: W
HStem: -170 50<181.449 260.842> 400 50<90.147 179.5 303.583 446.088>
VStem: 53 34<376 394.89> 59 121<-119.358 30.7542>
LayerCount: 2
Fore
SplineSet
140 305 m 2xd0
 146 327 149 348 149 364 c 0
 149 386 143 400 124 400 c 0
 108 400 95 393 87 376 c 1
 53 376 l 1xe0
 61 413 107 450 150 450 c 0
 209 450 245 434 262 410 c 1
 304 435 335 450 383 450 c 0
 420 450 449 445 472 436 c 1
 455 362 l 1
 446 391 415 400 378 400 c 0
 335 400 306 384 276 357 c 1
 265 280 180 -35 180 -88 c 0
 180 -110 187 -120 206 -120 c 0
 225 -120 246 -115 265 -95 c 1
 321 -125 l 1
 288 -156 248 -170 210 -170 c 0
 147 -170 59 -140 59 -61 c 0
 59 -52 60 -43 62 -33 c 2
 140 305 l 2xd0
EndSplineSet
Validated: 1
EndChar

StartChar: uni0244
Encoding: 580 580 713
Width: 685
VWidth: 0
Flags: W
HStem: -10 50<289.24 427.356> 340 50<118 154 296 557 699 735> 680 20G<233.355 368 636.355 771>
VStem: 132 124<91.3169 311.781>
LayerCount: 2
Fore
SplineSet
106 340 m 1
 118 390 l 1
 166 390 l 1
 238 700 l 1
 368 700 l 1
 296 390 l 1
 569 390 l 1
 641 700 l 1
 771 700 l 1
 699 390 l 1
 747 390 l 1
 735 340 l 1
 687 340 l 1
 678 298 l 1
 620 48 482 -10 338 -10 c 0
 249 -10 132 31 132 194 c 0
 132 224 136 259 145 298 c 2
 154 340 l 1
 106 340 l 1
557 340 m 1
 284 340 l 1
 275 298 l 2
 262 242 256 198 256 163 c 0
 256 61 304 40 355 40 c 0
 431 40 500 88 548 298 c 1
 557 340 l 1
EndSplineSet
Validated: 1
EndChar

StartChar: uni0289
Encoding: 649 649 714
Width: 542
VWidth: 0
Flags: W
HStem: -10 50<212.173 326.167 427.5 512.65> 203 50<62 87 224 353 489 521> 420 20G<137.294 267 403.401 533>
VStem: 75 125<51.385 201.157> 326 127<49.1721 180.688> 516 34<45.2679 64>
LayerCount: 2
Fore
SplineSet
75 117 m 0
 75 134 77 161 87 203 c 1
 51 203 l 1
 62 253 l 1
 98 253 l 1
 142 440 l 1
 267 440 l 1
 224 253 l 1
 365 253 l 1
 408 440 l 1
 533 440 l 1
 489 253 l 1
 532 253 l 1
 521 203 l 1
 478 203 l 1
 462 135 l 2
 457 113 453 92 453 76 c 0
 453 54 460 40 478 40 c 0
 494 40 508 47 516 64 c 1
 550 64 l 1
 541 27 496 -10 453 -10 c 0
 402 -10 368 2 349 21 c 1
 326 11 279 -10 232 -10 c 0
 123 -10 75 31 75 117 c 0
353 203 m 1
 212 203 l 1
 204 166 200 138 200 115 c 0
 200 56 225 40 258 40 c 0
 292 40 312 51 327 62 c 1
 327 66 326 71 326 75 c 0
 326 84 328 94 330 104 c 2
 353 203 l 1
EndSplineSet
Validated: 1
EndChar

StartChar: uni028C
Encoding: 652 652 715
Width: 455
VWidth: 0
Flags: W
HStem: 0 21G<29 120.918 318.397 429> 420 20G<279.091 373.636>
AnchorPoint: "top" 345 490 basechar 0
LayerCount: 2
Fore
SplineSet
283 292 m 1
 109 0 l 1
 29 0 l 1
 291 440 l 1
 371 440 l 1
 429 0 l 1
 321 0 l 1
 283 292 l 1
EndSplineSet
Validated: 1048577
EndChar

StartChar: uni0245
Encoding: 581 581 716
Width: 623
VWidth: 0
Flags: W
HStem: 0 21G<15 141.921 495.347 613> 680 20G<420.086 522.657>
AnchorPoint: "top" 476 700 basechar 0
LayerCount: 2
Fore
SplineSet
130 0 m 1
 15 0 l 1
 432 700 l 1
 520 700 l 1
 613 0 l 1
 498 0 l 1
 431 505 l 1
 130 0 l 1
EndSplineSet
Validated: 1048577
EndChar

StartChar: uni2C64
Encoding: 11364 11364 718
Width: 556
VWidth: 0
Flags: W
HStem: -170 50<201.315 280.842> 0 21G<405 534> 320 50<300 336.596> 650 50<365 470.249>
VStem: 74 126<-118.429 27.1328> 410 128<0 186.626> 499 130<464.392 620.779>
LayerCount: 2
Fore
SplineSet
629 551 m 0xfa
 629 469 567 370 456 334 c 1
 499 283 538 153 538 56 c 0
 538 35 536 17 532 0 c 1
 405 0 l 1
 409 16 410 33 410 52 c 0xfc
 410 147 369 273 318 320 c 1
 289 320 l 1
 215 0 l 2
 206 -39 200 -68 200 -88 c 0
 200 -110 207 -120 226 -120 c 0
 245 -120 266 -115 285 -95 c 1
 341 -125 l 1
 308 -156 268 -170 230 -170 c 0
 167 -170 74 -139 74 -60 c 0
 74 -52 75 -42 77 -33 c 2
 247 700 l 1
 452 700 l 2
 586 700 629 623 629 551 c 0xfa
345 370 m 2
 437 370 499 469 499 551 c 0xfa
 499 601 477 650 410 650 c 2
 365 650 l 1
 300 370 l 1
 345 370 l 2
EndSplineSet
Validated: 1
EndChar

StartChar: uni048A
Encoding: 1162 1162 737
Width: 765
VWidth: 0
Flags: W
HStem: 0 50<626 644> 680 20G<202.371 337 641.111 776> 700 67<441.029 552.426>
VStem: 387 43<780.85 793>
LayerCount: 2
Fore
SplineSet
175 0 m 1
 45 0 l 1
 207 700 l 1
 337 700 l 1
 220 196 l 1
 635 655 l 1
 646 700 l 1
 776 700 l 1
 626 50 l 1
 750 50 l 1
 635 -124 l 1
 589 -124 l 1
 644 0 l 1
 484 0 l 1
 600 503 l 1
 185 45 l 1
 175 0 l 1
495 767 m 0
 532 767 572 791 580 813 c 1
 614 793 l 1
 596 743 537 700 479 700 c 0
 425 700 387 737 387 783 c 0
 387 786 388 790 388 793 c 1
 430 813 l 1
 430 811 l 2
 430 790 459 767 495 767 c 0
EndSplineSet
Validated: 1
EndChar

StartChar: uni048B
Encoding: 1163 1163 738
Width: 636
VWidth: 0
Flags: W
HStem: -20 20G<453 506.129> -10 60<455.719 514.98> -10 50<212.173 326.167> 530 67<320.029 431.426>
VStem: 75 125<51.385 244.531> 266 43<610.85 623> 326 129<50.2051 177.5>
LayerCount: 2
Fore
SplineSet
515 0 m 1x9e
 460 -124 l 1
 506 -124 l 1
 620 50 l 1
 481 50 l 2x5e
 463 50 455 60 455 82 c 0
 455 98 457 113 462 135 c 2
 533 440 l 1
 408 440 l 1
 330 104 l 2
 328 94 326 84 326 75 c 0
 326 71 327 66 327 62 c 1
 312 51 292 40 258 40 c 0
 225 40 200 56 200 115 c 0
 200 140 205 171 214 212 c 2
 267 440 l 1
 142 440 l 1
 86 200 l 2
 79 169 75 141 75 117 c 0
 75 31 123 -10 232 -10 c 0
 279 -10 326 11 349 21 c 1
 368 2 402 -10 453 -10 c 0x3e
 488 -10 515 0 515 0 c 1x9e
374 597 m 0
 411 597 451 621 459 643 c 1
 493 623 l 1
 475 573 416 530 358 530 c 0
 304 530 266 567 266 613 c 0
 266 616 267 620 267 623 c 1
 309 643 l 1
 309 641 l 2
 309 620 338 597 374 597 c 0
EndSplineSet
Validated: 9
EndChar

StartChar: uni048C
Encoding: 1164 1164 739
Width: 563
VWidth: 0
Flags: W
HStem: 0 50<258 356.678> 390 50<348 432.211> 530 50<174 238 380 449> 680 20G<273.333 408>
VStem: 465 129<176.76 353.775>
LayerCount: 2
Fore
SplineSet
594 267 m 0
 594 164 496 0 316 0 c 2
 116 0 l 1
 238 530 l 1
 162 530 l 1
 174 580 l 1
 250 580 l 1
 278 700 l 1
 408 700 l 1
 380 580 l 1
 461 580 l 1
 449 530 l 1
 368 530 l 1
 348 440 l 1
 416 440 l 2
 534 440 594 356 594 267 c 0
298 50 m 2
 387 50 465 173 465 274 c 0
 465 332 442 390 376 390 c 2
 336 390 l 1
 258 50 l 1
 298 50 l 2
EndSplineSet
Validated: 1
EndChar

StartChar: uni048D
Encoding: 1165 1165 740
Width: 488
VWidth: 0
Flags: W
HStem: -10 50<257.234 335.301> 235 50<289.567 366.747> 318 50<110 174 310 378> 420 20G<197.278 327>
VStem: 132 119<45.0844 207.281> 373 125<97.451 232.19>
LayerCount: 2
Fore
SplineSet
498 186 m 0
 498 108 448 -10 265 -10 c 0
 228 -10 132 4 132 114 c 0
 132 130 134 149 139 170 c 2
 174 318 l 1
 98 318 l 5
 110 368 l 5
 185 368 l 1
 202 440 l 1
 327 440 l 1
 310 368 l 1
 390 368 l 5
 378 318 l 5
 299 318 l 1
 289 277 l 1
 307 282 326 285 340 285 c 0
 453 285 498 252 498 186 c 0
276 221 m 1
 256 135 l 2
 252 119 251 105 251 93 c 0
 251 57 267 40 296 40 c 0
 358 40 373 161 373 183 c 0
 373 213 363 235 340 235 c 0
 316 235 294 230 276 221 c 1
EndSplineSet
Validated: 1
EndChar

StartChar: uni048E
Encoding: 1166 1166 741
Width: 474
VWidth: 0
Flags: W
HStem: 0 21G<45 179.625> 320 50<260 339.484> 650 50<325 430.121>
VStem: 459 130<465.197 620.779>
LayerCount: 2
Fore
SplineSet
340 375 m 1
 306 415 l 1
 393 475 l 1
 414 426 l 1
 443 461 459 509 459 551 c 0
 459 601 437 650 370 650 c 2
 325 650 l 1
 260 370 l 1
 305 370 l 2
 317 370 329 372 340 375 c 1
381 325 m 1
 363 322 344 320 324 320 c 2
 249 320 l 1
 175 0 l 1
 45 0 l 1
 207 700 l 1
 412 700 l 2
 545 700 589 623 589 551 c 0
 589 479 540 391 448 347 c 1
 475 284 l 1
 438 258 l 1
 381 325 l 1
EndSplineSet
Validated: 1
EndChar

StartChar: uni048F
Encoding: 1167 1167 742
Width: 491
VWidth: 0
Flags: W
HStem: -8 50<220.03 291.206> 402 50<63.2302 143 284.501 382.134>
VStem: 23 34<376 394.89> 394 121<178.781 371.115>
LayerCount: 2
Fore
SplineSet
292 50 m 1
 244 107 l 1
 331 167 l 1
 351 120 l 1
 384 190 394 287 394 312 c 0
 394 363 382 402 353 402 c 0
 274 402 246 349 222 246 c 0
 213 207 206 165 206 129 c 0
 206 80 219 42 260 42 c 0
 272 42 282 45 292 50 c 1
325 11 m 1
 295 -1 264 -8 233 -8 c 0
 207 -8 185 -4 166 4 c 1
 119 -200 l 1
 -6 -200 l 1
 110 305 l 2
 116 327 119 348 119 364 c 0
 119 386 113 400 94 400 c 0
 78 400 65 393 57 376 c 1
 23 376 l 1
 31 413 77 450 120 450 c 0
 166 450 199 440 219 424 c 1
 256 444 300 452 349 452 c 0
 454 452 515 378 515 281 c 0
 515 186 460 96 384 43 c 1
 413 -24 l 1
 376 -50 l 1
 325 11 l 1
EndSplineSet
Validated: 1
EndChar

StartChar: uni0492
Encoding: 1170 1170 743
Width: 555
VWidth: 0
Flags: W
HStem: 0 21G<133 267.615> 390 50<142 223 365 455> 650 50<413 687>
LayerCount: 2
Fore
SplineSet
130 390 m 1
 142 440 l 1
 235 440 l 1
 295 700 l 1
 699 700 l 1
 687 650 l 1
 413 650 l 1
 365 440 l 1
 467 440 l 1
 455 390 l 1
 353 390 l 1
 263 0 l 1
 133 0 l 1
 223 390 l 1
 130 390 l 1
EndSplineSet
Validated: 1
EndChar

StartChar: uni0493
Encoding: 1171 1171 744
Width: 408
VWidth: 0
Flags: W
HStem: -10 50<200.562 295.801> 193 50<80 130 332 373> 400 50<187.955 283.335>
VStem: 64 132<44.429 129.596> 288 131<322.76 395.925>
LayerCount: 2
Fore
SplineSet
288 362 m 0
 288 379 275 400 247 400 c 0
 212 400 152 362 135 331 c 1
 103 339 l 1
 137 408 201 450 272 450 c 0
 387 450 419 412 419 372 c 0
 419 331 379 287 332 243 c 1
 385 243 l 1
 373 193 l 1
 277 193 l 1
 233 152 196 113 196 79 c 0
 196 58 209 40 237 40 c 0
 272 40 332 77 348 108 c 1
 380 100 l 1
 346 32 283 -10 212 -10 c 0
 99 -10 64 19 64 66 c 0
 64 111 93 153 130 193 c 1
 68 193 l 1
 80 243 l 1
 182 243 l 1
 236 292 288 333 288 362 c 0
EndSplineSet
Validated: 1
EndChar

StartChar: uni0494
Encoding: 1172 1172 745
Width: 655
VWidth: 0
Flags: W
HStem: -106 50<323.804 421.592> -29 20G<283.154 314.5> 0 21G<85 219.589> 400 50<339.673 500.313> 650 50<365 639>
VStem: 521 127<181.281 367.126>
LayerCount: 2
Fore
SplineSet
296 353 m 1
 215 0 l 1
 85 0 l 1
 247 700 l 1
 651 700 l 1
 639 650 l 1
 365 650 l 1
 313 425 l 1
 348 441 392 450 429 450 c 0
 552 450 648 397 648 289 c 0
 648 274 646 258 642 240 c 2
 620 142 l 1
 574 -58 443 -106 353 -106 c 0
 317 -106 269 -89 245 -61 c 1
 307 -9 l 1
 322 -41 344 -56 379 -56 c 0
 418 -56 455 -12 485 120 c 2
 510 228 l 2
 518 262 521 290 521 312 c 0
 521 382 485 400 432 400 c 0
 387 400 336 382 296 353 c 1
EndSplineSet
Validated: 1
EndChar

StartChar: uni0495
Encoding: 1173 1173 746
Width: 555
VWidth: 0
Flags: W
HStem: -115 50<256.568 337.336> 0 21G<60 189.583> 238 50<265.632 385.815> 390 50<275 439>
VStem: 397 120<40.0284 226.505>
LayerCount: 2
Fore
SplineSet
517 145 m 0
 517 -5 401 -115 279 -115 c 0
 236 -115 196 -100 182 -70 c 1
 244 -18 l 1
 256 -54 271 -65 306 -65 c 0
 367 -65 397 120 397 172 c 0
 397 224 376 238 342 238 c 0
 297 238 269 221 229 192 c 1
 185 0 l 1
 60 0 l 1
 162 440 l 1
 451 440 l 1
 439 390 l 1
 275 390 l 1
 246 264 l 1
 281 280 301 288 338 288 c 0
 454 288 517 241 517 145 c 0
EndSplineSet
Validated: 1
EndChar

StartChar: uni0496
Encoding: 1174 1174 747
Width: 745
VWidth: 0
Flags: W
HStem: 0 21G<18 150 306 439.645> 650 50<190 207.648 822.941 863>
VStem: 593 131<0 101.855> 670 77<-156.188 -90.8211>
LayerCount: 2
Fore
SplineSet
528 403 m 1xe0
 603 483 679 700 875 700 c 1
 863 650 l 1
 781 650 698 427 560 350 c 1
 660 272 724 58 724 7 c 0xe0
 724 4 723 2 723 0 c 6
 703 -61 l 5
 735 -72 747 -99 747 -116 c 4
 747 -151 698 -180 659 -194 c 5
 632 -182 l 5
 649 -171 670 -148 670 -124 c 4xd0
 670 -103 652 -89 625 -80 c 5
 657 0 l 5
 593 0 l 1
 593 5 l 2
 593 43 563 248 507 310 c 1
 435 0 l 1
 306 0 l 1
 378 310 l 1
 288 244 152 17 148 0 c 1
 18 0 l 1
 26 33 198 267 342 350 c 1
 240 427 261 650 178 650 c 1
 190 700 l 1
 385 700 361 483 399 403 c 1
 468 700 l 1
 597 700 l 1
 528 403 l 1xe0
EndSplineSet
Validated: 1
EndChar

StartChar: uni0497
Encoding: 1175 1175 748
Width: 629
VWidth: 0
Flags: W
HStem: -10 50<20.1698 73.7354> 0 21G<252 381.641> 390 50<136 164.091 635.915 685>
VStem: -16 36<41.7456 64> 486 110<0.187504 89.6956> 541 77<-156.188 -90.8211>
LayerCount: 2
Fore
SplineSet
294 181 m 1x78
 165 78 182 -10 49 -10 c 0
 12 -10 -16 14 -16 48 c 0
 -16 53 -15 59 -14 64 c 1
 20 64 l 1
 20 60 l 2
 20 49 32 40 46 40 c 0
 54 40 62 45 70 55 c 0
 106 103 166 170 231 221 c 1
 173 281 197 390 124 390 c 1
 136 440 l 1
 297 440 274 307 311 255 c 1
 354 440 l 1
 479 440 l 1
 436 255 l 1
 497 307 536 440 697 440 c 1
 685 390 l 1
 612 390 586 281 500 221 c 1
 559 150 596 45 596 8 c 0xb8
 596 5 595 2 595 0 c 1
 594 0 l 1
 574 -61 l 1
 606 -72 618 -99 618 -116 c 0
 618 -151 569 -180 530 -194 c 1
 503 -182 l 1
 520 -171 541 -148 541 -124 c 0x74
 541 -103 523 -89 496 -80 c 1
 528 0 l 1
 485 0 l 1
 486 4 486 8 486 13 c 0
 486 55 455 135 419 181 c 1
 377 0 l 1
 252 0 l 1
 294 181 l 1x78
EndSplineSet
Validated: 1
EndChar

StartChar: uni0498
Encoding: 1176 1176 749
Width: 497
VWidth: 0
Flags: W
HStem: 390 50<269 344.982> 660 50<307.611 424.998>
VStem: 213 77<-156.188 -90.8211> 391 131<172.554 343.796> 439 129<515.749 648.852>
LayerCount: 2
Fore
SplineSet
196 -9 m 1xf0
 103 -2 63 51 52 119 c 1
 150 144 l 1
 150 139 l 2
 150 72 173 40 238 40 c 0
 304 40 391 164 391 257 c 0xf0
 391 390 299 390 257 390 c 1
 269 440 l 1
 396 440 439 530 439 589 c 0
 439 631 418 660 389 660 c 0
 315 660 287 629 263 583 c 1
 188 605 l 1
 242 676 323 710 392 710 c 0
 513 710 568 649 568 581 c 0xe8
 568 518 521 449 435 415 c 1
 501 381 522 317 522 262 c 0
 522 149 412 18 264 -6 c 1
 246 -61 l 1
 278 -72 290 -99 290 -116 c 0
 290 -151 241 -180 202 -194 c 1
 175 -182 l 1
 192 -171 213 -148 213 -124 c 0
 213 -103 195 -89 168 -80 c 1
 196 -9 l 1xf0
EndSplineSet
Validated: 1
EndChar

StartChar: uni0499
Encoding: 1177 1177 750
Width: 438
VWidth: 0
Flags: W
HStem: -10 50<159 196 264 269.979> 220 50<206 291.926> 400 50<234.316 327.635>
VStem: 213 77<-156.188 -90.8211> 304 125<79.564 207.371> 329 124<302.755 399.376>
LayerCount: 2
Fore
SplineSet
196 -10 m 1xf8
 111 -10 63 44 50 87 c 1
 131 108 l 1
 139 73 168 40 220 40 c 0
 294 40 304 139 304 160 c 0xf8
 304 201 280 220 230 220 c 2
 195 220 l 1
 206 270 l 1
 234 270 l 2
 315 270 329 339 329 369 c 0
 329 389 322 400 303 400 c 0
 244 400 222 374 208 340 c 1
 132 359 l 1
 158 404 213 450 303 450 c 0
 410 450 453 415 453 364 c 0xf4
 453 296 386 261 363 250 c 1
 410 229 429 195 429 156 c 0
 429 99 393 16 264 -5 c 1
 246 -61 l 1
 278 -72 290 -99 290 -116 c 0
 290 -151 241 -180 202 -194 c 1
 175 -182 l 1
 192 -171 213 -148 213 -124 c 0
 213 -103 195 -89 168 -80 c 1
 196 -10 l 1xf8
EndSplineSet
Validated: 1
EndChar

StartChar: uni049A
Encoding: 1178 1178 751
Width: 605
VWidth: 0
Flags: W
HStem: 0 21G<45 179.66> 680 20G<202.371 337 556.574 712>
VStem: 489 77<-156.188 -90.8211>
LayerCount: 2
Fore
SplineSet
522 -61 m 1
 554 -72 566 -99 566 -116 c 0
 566 -151 517 -180 478 -194 c 1
 451 -182 l 1
 468 -171 489 -148 489 -124 c 0
 489 -103 471 -89 444 -80 c 1
 479 8 l 1
 311 57 380 315 311 343 c 1
 240 279 l 1
 175 0 l 1
 45 0 l 1
 207 700 l 1
 337 700 l 1
 274 428 l 1
 579 700 l 1
 712 700 l 1
 371 397 l 1
 551 347 437 58 555 58 c 1
 522 -61 l 1
EndSplineSet
Validated: 1
EndChar

StartChar: uni049B
Encoding: 1179 1179 752
Width: 448
VWidth: 0
Flags: W
HStem: 0 21G<40 169.641> 420 20G<137.364 267 363.612 498>
VStem: 361 77<-156.188 -90.8211>
LayerCount: 2
Fore
SplineSet
236 306 m 1
 386 440 l 1
 498 440 l 1
 279 245 l 1
 414 0 l 1
 394 -61 l 1
 426 -72 438 -99 438 -116 c 0
 438 -151 389 -180 350 -194 c 1
 323 -182 l 1
 340 -171 361 -148 361 -124 c 0
 361 -103 343 -89 316 -80 c 1
 348 0 l 1
 308 0 l 1
 207 181 l 1
 165 0 l 1
 40 0 l 1
 142 440 l 1
 267 440 l 1
 236 306 l 1
EndSplineSet
Validated: 1
EndChar

StartChar: uni049C
Encoding: 1180 1180 753
Width: 710
VWidth: 0
Flags: W
HStem: 0 58<662.72 688> 342 66<309 344> 680 20G<242.371 377 635.5 857>
LayerCount: 2
Fore
SplineSet
215 0 m 1
 85 0 l 1
 247 700 l 1
 377 700 l 1
 309 408 l 1
 359 408 l 1
 387 530 l 1
 443 530 l 1
 421 435 l 1
 465 468 546 540 725 700 c 1
 857 700 l 1
 519 399 l 1
 682 355 590 58 701 58 c 1
 688 0 l 1
 404 0 588 341 400 342 c 1
 372 222 l 1
 316 222 l 1
 344 342 l 1
 294 342 l 1
 215 0 l 1
EndSplineSet
Validated: 1
EndChar

StartChar: uni049D
Encoding: 1181 1181 754
Width: 613
VWidth: 0
Flags: W
HStem: 0 21G<72 201.636 462.545 580> 220 50<259 283> 420 20G<169.364 299 529.412 664>
LayerCount: 2
Fore
SplineSet
197 0 m 1
 72 0 l 1
 174 440 l 1
 299 440 l 1
 259 270 l 1
 294 270 l 1
 324 398 l 1
 380 398 l 1
 350 270 l 1
 360 270 l 1
 552 440 l 1
 664 440 l 1
 445 245 l 1
 580 0 l 1
 474 0 l 1
 348 220 l 1
 339 220 l 1
 309 90 l 1
 253 90 l 1
 283 220 l 1
 248 220 l 1
 197 0 l 1
EndSplineSet
Validated: 1
EndChar

StartChar: uni049E
Encoding: 1182 1182 755
Width: 643
VWidth: 0
Flags: W
HStem: 0 58<557.821 580> 562 50<148 213 355 416> 680 20G<240.455 375 594.574 750>
LayerCount: 2
Fore
SplineSet
136 562 m 1
 148 612 l 1
 225 612 l 1
 245 700 l 1
 375 700 l 1
 355 612 l 1
 428 612 l 1
 416 562 l 1
 343 562 l 1
 312 428 l 1
 617 700 l 1
 750 700 l 1
 409 397 l 1
 589 347 475 58 593 58 c 1
 580 0 l 1
 333 0 425 312 349 343 c 1
 278 279 l 1
 213 0 l 1
 83 0 l 1
 213 562 l 1
 136 562 l 1
EndSplineSet
Validated: 1
EndChar

StartChar: uni049F
Encoding: 1183 1183 756
Width: 537
VWidth: 0
Flags: W
HStem: 0 21G<128 257.598 379.736 502> 420 20G<446.5 586> 480 50<146 239 375 462> 620 50<199.147 304>
VStem: 162 34<596 614.89> 258 127<530.672 618.973>
LayerCount: 2
Fore
SplineSet
474 530 m 1
 462 480 l 1
 364 480 l 1
 325 312 l 1
 469 440 l 1
 586 440 l 1
 366 245 l 1
 502 0 l 1
 391 0 l 1
 293 174 l 1
 253 0 l 1
 128 0 l 1
 239 480 l 1
 134 480 l 1
 146 530 l 1
 250 530 l 1
 254 550 258 569 258 584 c 0
 258 606 251 620 233 620 c 0
 217 620 204 613 196 596 c 1
 162 596 l 1
 170 633 216 670 259 670 c 0
 349 670 385 633 385 584 c 0
 385 575 384 566 381 556 c 2
 375 530 l 1
 474 530 l 1
EndSplineSet
Validated: 1
EndChar

StartChar: uni04A0
Encoding: 1184 1184 757
Width: 755
VWidth: 0
Flags: W
HStem: 0 58<709.821 732> 650 50<172 385>
LayerCount: 2
Fore
SplineSet
365 0 m 1
 235 0 l 1
 385 650 l 1
 160 650 l 1
 172 700 l 1
 527 700 l 1
 464 428 l 1
 769 700 l 1
 902 700 l 1
 561 397 l 1
 741 347 626 58 745 58 c 1
 732 0 l 1
 485 0 577 312 501 343 c 1
 429 279 l 1
 365 0 l 1
EndSplineSet
Validated: 1
EndChar

StartChar: uni04A1
Encoding: 1185 1185 758
Width: 568
VWidth: 0
Flags: W
HStem: 0 21G<161 290.641 417.84 535> 390 50<117 251>
LayerCount: 2
Fore
SplineSet
357 306 m 1
 507 440 l 1
 619 440 l 1
 400 245 l 1
 535 0 l 1
 429 0 l 1
 328 181 l 1
 286 0 l 1
 161 0 l 1
 251 390 l 1
 105 390 l 1
 117 440 l 1
 388 440 l 1
 357 306 l 1
EndSplineSet
Validated: 1
EndChar

StartChar: uni04A2
Encoding: 1186 1186 759
Width: 581
VWidth: 0
Flags: W
HStem: 0 21G<40 174.629> 350 50<262 483> 680 20G<197.371 332 559.333 694>
VStem: 479 77<-156.188 -90.8211>
LayerCount: 2
Fore
SplineSet
332 700 m 1
 262 400 l 1
 494 400 l 1
 564 700 l 1
 694 700 l 1
 532 0 l 1
 512 -61 l 1
 544 -72 556 -99 556 -116 c 0
 556 -151 507 -180 468 -194 c 1
 441 -182 l 1
 458 -171 479 -148 479 -124 c 0
 479 -103 461 -89 434 -80 c 1
 466 0 l 1
 402 0 l 1
 483 350 l 1
 251 350 l 1
 170 0 l 1
 40 0 l 1
 202 700 l 1
 332 700 l 1
EndSplineSet
Validated: 1
EndChar

StartChar: uni04A3
Encoding: 1187 1187 760
Width: 493
VWidth: 0
Flags: W
HStem: 0 21G<45 174.651> 215 50<231 366> 420 20G<142.364 272 413.314 543>
VStem: 336 131<40.3488 179.102> 443 77<-153.188 -87.8211> 526 34<45.5627 64>
LayerCount: 2
Fore
SplineSet
472 135 m 2xf4
 469 121 467 105 467 90 c 0xf4
 467 63 473 40 488 40 c 0
 505 40 523 51 526 64 c 1
 560 64 l 1
 552 32 525 6 493 -5 c 5
 476 -58 l 5
 508 -69 520 -96 520 -113 c 4
 520 -148 471 -177 432 -191 c 5
 405 -179 l 5
 422 -168 443 -145 443 -121 c 4xec
 443 -100 425 -86 398 -77 c 5
 426 -8 l 5
 371 -2 336 19 336 70 c 0
 336 80 337 91 340 104 c 2
 366 215 l 1
 220 215 l 1
 170 0 l 1
 45 0 l 1
 147 440 l 1
 272 440 l 1
 231 265 l 1
 377 265 l 1
 418 440 l 1
 543 440 l 1
 472 135 l 2xf4
EndSplineSet
Validated: 1
EndChar

StartChar: uni04A4
Encoding: 1188 1188 761
Width: 869
VWidth: 0
Flags: W
HStem: 0 21G<85 219.629 447 581.615> 350 50<307 528> 650 50<727 1001>
LayerCount: 2
Fore
SplineSet
377 700 m 1
 307 400 l 1
 539 400 l 1
 609 700 l 1
 1013 700 l 1
 1001 650 l 1
 727 650 l 1
 577 0 l 1
 447 0 l 1
 528 350 l 1
 296 350 l 1
 215 0 l 1
 85 0 l 1
 247 700 l 1
 377 700 l 1
EndSplineSet
Validated: 1
EndChar

StartChar: uni04A5
Encoding: 1189 1189 762
Width: 646
VWidth: 0
Flags: W
HStem: 0 21G<60 189.651 331 460.615> 215 50<246 381> 390 50<546 710>
LayerCount: 2
Fore
SplineSet
162 440 m 1
 287 440 l 1
 246 265 l 1
 392 265 l 1
 433 440 l 1
 722 440 l 1
 710 390 l 1
 546 390 l 1
 456 0 l 1
 331 0 l 1
 381 215 l 1
 235 215 l 1
 185 0 l 1
 60 0 l 1
 162 440 l 1
EndSplineSet
Validated: 1
EndChar

